<svg xmlns="http://www.w3.org/2000/svg" width="68" height="68" viewBox="0 0 68 68" fill="none"><rect x="0.5" y="0.5" width="67" height="67" rx="15.5" fill="white" stroke="#CED7DE"></rect><path d="M50.5004 41.1527H49.3672V39.6905C49.3672 37.1314 47.2831 35.0841 44.7608 35.0841H36.4253V31.099C40.1177 30.5871 42.9694 27.443 42.9694 23.6043C42.9694 19.4001 39.5695 16 35.365 16C31.1609 16 27.7607 19.3999 27.7607 23.6043C27.7607 27.4431 30.6123 30.5871 34.3048 31.099V35.0838L26.0065 35.0841C23.4475 35.0841 21.4001 37.1681 21.4001 39.6905V41.1527H20.2301C18.9872 41.1527 18 42.1399 18 43.3828V47.7699C18 49.0128 18.9872 50 20.2301 50H24.6172C25.8601 50 26.8473 49.0128 26.8473 47.7699V43.3828C26.8473 42.1399 25.8601 41.1527 24.6172 41.1527H23.4839V39.6905C23.4839 38.3012 24.6172 37.1678 26.0065 37.1678H34.3055V41.1527H33.1719C31.929 41.1527 30.9418 42.1399 30.9418 43.3828V47.7699C30.9418 49.0128 31.929 50 33.1719 50H37.559C38.8019 50 39.7891 49.0128 39.7891 47.7699V43.3828C39.7891 42.1399 38.8019 41.1527 37.559 41.1527H36.4257V37.1678H44.7247C46.114 37.1678 47.2473 38.3011 47.2473 39.6905V41.1527H46.114C44.8711 41.1527 43.8839 42.1399 43.8839 43.3828V47.7699C43.8839 49.0128 44.8711 50 46.114 50H50.5011C51.744 50 52.7312 49.0128 52.7312 47.7699V43.3828C52.7312 42.1399 51.744 41.1527 50.5011 41.1527L50.5004 41.1527ZM29.8445 23.6043C29.8445 20.5701 32.3304 18.0839 35.3648 18.0839C38.3993 18.0839 40.8852 20.5701 40.8852 23.6043C40.8852 26.6387 38.3993 29.1249 35.3648 29.1249C32.3304 29.1249 29.8445 26.6387 29.8445 23.6043ZM24.7627 43.3829V47.7699C24.7627 47.8431 24.6895 47.916 24.6166 47.916L20.0832 47.7699L20.2293 43.2367L24.7627 43.3829ZM37.7047 43.3829V47.7699C37.7047 47.8431 37.6315 47.916 37.5586 47.916L33.0252 47.7699L33.1713 43.2367L37.7047 43.3829ZM50.6467 47.7699C50.6467 47.8431 50.5735 47.916 50.5005 47.916L45.9671 47.7699L46.1135 43.2367L50.6469 43.3828L50.6467 47.7699Z" fill="#003E52"></path><path d="M38.2895 23.0924C38.6917 22.6538 38.6552 21.9956 38.253 21.6302C37.8509 21.228 37.1562 21.2645 36.7908 21.6667L34.6336 24.0065L33.8657 23.1657C33.4636 22.727 32.8057 22.727 32.4035 23.1292C31.9649 23.5314 31.9649 24.1893 32.367 24.5914L33.9025 26.2365C34.0854 26.4558 34.3779 26.5655 34.6704 26.5655C34.9629 26.5655 35.2187 26.4558 35.4383 26.2365L38.2895 23.0924Z" fill="#003E52"></path></svg>