<svg xmlns="http://www.w3.org/2000/svg" width="66" height="66" fill="none"><circle cx="33" cy="33" r="33" fill="#F5F8FC"></circle><path d="M22.006 46.318h-3.524a.482.482 0 0 1-.482-.482V34.322c0-.266.216-.482.482-.482h3.524c.267 0 .482.216.482.482v11.502a.482.482 0 0 1-.482.494zm25.502-6.114-11.84 6.74a1.498 1.498 0 0 1-1.23.117l-8.129-2.903-.39-.14a3.43 3.43 0 0 0-1.195-.209h-1.237v-7.472h2.357c2.207 0 3.31.795 6.8 1.968h4.964a.97.97 0 0 1 .958.726 1.004 1.004 0 0 1-.97 1.266h-5.063a2.502 2.502 0 0 0-2.496 2.496h1.033a1.504 1.504 0 0 1 1.498-1.498h5.005c.505 0 9.157-2.775 9.203-2.798a.906.906 0 0 1 1.214.44.918.918 0 0 1-.482 1.267zM37.811 18.802c.321-.499.44-1.101.331-1.684a2.332 2.332 0 0 0-4.645.43c.001.445.13.88.372 1.254a11.247 11.247 0 0 0-9.238 10.55h22.418a11.241 11.241 0 0 0-9.238-10.55zm-3.24-1.063a1.272 1.272 0 1 1 1.893 1.103H35.221c-.4-.223-.649-.645-.65-1.103zM25.996 32.842h19.69l1.741-2.491H24.254l1.742 2.49z" fill="#1B6798"></path></svg>