<svg xmlns="http://www.w3.org/2000/svg" width="68" height="68" viewBox="0 0 68 68" fill="none"><rect x="0.5" y="0.5" width="67" height="67" rx="15.5" fill="white" stroke="#CED7DE"></rect><path d="M36.4536 21.381V18.6148H38.9547C39.6748 18.6148 40.243 18.0465 40.243 17.3264C40.243 16.6064 39.6745 16 38.9544 16H31.3376C30.6175 16 30.0493 16.5683 30.0493 17.2884C30.0493 18.0084 30.6176 18.5767 31.3376 18.5767H33.8387V21.381C29.2156 21.76 25.0093 24.2231 22.3945 28.1262C21.9777 28.7326 22.1672 29.5283 22.7736 29.9451C23.38 30.3619 24.1756 30.1724 24.5925 29.566C26.9799 26.0039 30.9209 23.8818 35.203 23.8818C42.2135 23.8818 47.9356 29.6039 47.9356 36.6144C47.9356 43.6249 42.1755 49.3849 35.1651 49.3849C28.344 49.3849 22.7356 43.9661 22.4704 37.1829L24.0619 38.7744C24.3273 39.0398 24.6683 39.1535 24.9715 39.1535C25.2746 39.1535 25.6534 39.0398 25.881 38.7744C26.3737 38.2817 26.3737 37.448 25.881 36.9175L22.0537 33.0902C21.561 32.5975 20.7273 32.5975 20.1968 33.0902L16.3695 36.9177C15.8768 37.4104 15.8768 38.2442 16.3695 38.7746C16.8622 39.3051 17.696 39.2673 18.2264 38.7746L19.8558 37.1453C20.0831 45.3684 26.8663 52 35.1652 52C43.6157 52 50.5125 45.1032 50.5125 36.6527C50.4747 28.6569 44.2978 22.0632 36.4536 21.3811L36.4536 21.381Z" fill="#003E52"></path><path d="M35.1653 28.5054C34.4452 28.5054 33.877 29.0737 33.877 29.7937V36.6527C33.877 37.3727 34.4453 37.941 35.1653 37.941H41.039C41.7591 37.941 42.3274 37.3727 42.3274 36.6527C42.3274 35.9326 41.7591 35.3643 41.039 35.3643H36.4918V29.7938C36.454 29.0737 35.8854 28.5054 35.1653 28.5054V28.5054Z" fill="#003E52"></path></svg>