<svg xmlns="http://www.w3.org/2000/svg" width="66" height="66" fill="none"><circle cx="33" cy="33" r="33" fill="#FFEFE8"></circle><path d="m42.523 26.444-2.167 2.405c-.785.873-1.575 1.745-2.353 2.618-.508.546-1.016 1.091-1.518 1.686l-3.16 3.518c-.672.747-1.366 1.489-2.026 2.247l-.034.033h2.184l-1.693-1.882-3.17-3.518-1.863-2.057-1.986-2.181a172.2 172.2 0 0 0-2.528-2.815v-.049l-1.128 2.547h22.57c.41.002.805-.155 1.095-.436.29-.28.453-.661.451-1.058a1.47 1.47 0 0 0-.451-1.053 1.637 1.637 0 0 0-1.095-.436h-22.57a1.547 1.547 0 0 0-1.411.916 1.49 1.49 0 0 0 .321 1.636c.727.804 1.453 1.604 2.178 2.4.785.873 1.575 1.746 2.354 2.619a91.469 91.469 0 0 1 1.517 1.685l3.172 3.518c.671.753 1.337 1.511 2.025 2.248.013.01.022.023.028.038.294.275.686.432 1.095.436.409.001.801-.156 1.09-.436l1.692-1.888 3.171-3.518c.62-.687 1.236-1.374 1.856-2.056l1.981-2.182c.84-.933 1.693-1.865 2.517-2.793l.045-.049c.281-.284.444-.66.457-1.052a1.486 1.486 0 0 0-.457-1.059 1.57 1.57 0 0 0-1.061-.458c-.42-.016-.83.139-1.129.426z" fill="#F8783D"></path><path d="M33.89 49.49v-9.491a1.491 1.491 0 0 0-.452-1.053 1.58 1.58 0 0 0-1.072-.442 1.61 1.61 0 0 0-1.129.442 1.518 1.518 0 0 0-.451 1.053v9.49c-.002.403.165.79.463 1.07.298.282.7.435 1.117.425.408 0 .8-.157 1.089-.436.285-.284.447-.663.451-1.059h-.017z" fill="#F8783D"></path><path d="M27.287 51h10.1c.853-.003 1.544-.67 1.547-1.495 0-.396-.165-.775-.457-1.052A1.6 1.6 0 0 0 37.41 48H27.287a1.63 1.63 0 0 0-1.094.442 1.46 1.46 0 0 0 0 2.11c.294.275.685.43 1.094.437V51zM35.966 33.273c.197-.333.395-.666.564-.998l1.41-2.395 1.693-2.902 1.473-2.509c.248-.415.502-.824.734-1.244L40.542 24h5.366a1.62 1.62 0 0 0 1.095-.442 1.46 1.46 0 0 0 0-2.11A1.636 1.636 0 0 0 45.908 21h-5.366a1.563 1.563 0 0 0-1.332.742c-.197.332-.395.66-.564.998-.474.796-.944 1.595-1.41 2.395l-1.694 2.901-1.483 2.51c-.243.409-.491.812-.723 1.221-.204.35-.259.763-.152 1.151.163.58.67 1.01 1.288 1.087a1.557 1.557 0 0 0 1.533-.732h-.04z" fill="#F8783D"></path><path d="M38.008 31.495c-.756.84-1.518 1.68-2.257 2.525l-3.622 4.02-.824.91h2.172l-2.257-2.52c-1.202-1.335-2.415-2.677-3.617-4.02l-.88-.91-1.089 2.542H39.074c.853-.003 1.544-.67 1.547-1.495 0-.396-.165-.775-.457-1.052a1.63 1.63 0 0 0-1.09-.442H25.658a1.553 1.553 0 0 0-1.411.922 1.49 1.49 0 0 0 .322 1.636c.756.84 1.517 1.68 2.257 2.525l3.622 4.02.824.917c.29.276.681.433 1.09.436.408.001.8-.156 1.088-.436.753-.844 1.505-1.686 2.257-2.526a1730.48 1730.48 0 0 1 3.623-4.025l.824-.911c.278-.286.439-.66.451-1.053a1.464 1.464 0 0 0-.451-1.058 1.568 1.568 0 0 0-1.095-.436 1.55 1.55 0 0 0-1.05.43z" fill="#F8783D"></path></svg>