<svg xmlns="http://www.w3.org/2000/svg" width="66" height="66" fill="none"><circle cx="33" cy="33" r="33" fill="#FBF6FF"></circle><path d="M26.514 33.376h-5.767a.393.393 0 0 0-.284.123l-3.531 3.693a.35.35 0 0 0-.103.252v4.803h9.673l.012-8.871zm-2.043 6.428h-5.097V38.42l2.274-2.577h2.823v3.963zM17.21 45.203h1.595c.434-1.155 1.57-1.925 2.842-1.925s2.407.77 2.841 1.925h2.007v-2.466h-9.673v2.093a.38.38 0 0 0 .387.373z" fill="#6E3E9B"></path><path d="M45.407 48.156h-3.852a2.269 2.269 0 0 0 .986-1.835c0-1.195-1.002-2.163-2.237-2.163-1.236 0-2.237.968-2.237 2.163a2.27 2.27 0 0 0 .986 1.835H22.729a2.269 2.269 0 0 0 .986-1.835c0-1.195-1.002-2.163-2.237-2.163-1.236 0-2.237.968-2.237 2.163.006.728.372 1.41.985 1.835h-3.839a.34.34 0 0 0-.273.075.317.317 0 0 0-.114.252c0 .204.176.374.387.66h29.02c.211-.286.387-.456.387-.66a.317.317 0 0 0-.114-.252.34.34 0 0 0-.273-.075zm-5.115-2.432c.334 0 .604.262.604.585 0 .323-.27.584-.604.584a.595.595 0 0 1-.605-.584c0-.157.066-.308.182-.418a.616.616 0 0 1 .435-.167h-.012zm-18.814 0c.334 0 .604.262.604.585 0 .323-.27.584-.604.584a.595.595 0 0 1-.605-.584c0-.157.066-.308.181-.418a.616.616 0 0 1 .436-.167h-.012zM28.479 30.418a7.66 7.66 0 0 1-1.113-3.448h1.076s.387-.286.387-.485-.175-.368-.387-.497h-.52a7.233 7.233 0 0 1 1.911-4.605l.441.433a.381.381 0 0 0 .538 0 .362.362 0 0 0 0-.526l-.453-.433a7.8 7.8 0 0 1 4.837-1.999v.69a.473.473 0 0 0 .44.368c.212 0 .382-.163.575-.368v-.666c1.745.13 3.39.836 4.661 1.998l-.453.433a.362.362 0 0 0 0 .526.382.382 0 0 0 .538 0l.441-.432a7.274 7.274 0 0 1 1.917 4.581h-.52c-.218.129-.387.287-.387.497 0 .21.387.485.387.485h1.07a7.66 7.66 0 0 1-1.112 3.448h1.928c.557-1.21.843-2.52.84-3.845 0-5.287-4.433-9.573-9.902-9.573-5.47 0-9.903 4.286-9.903 9.573a9.155 9.155 0 0 0 .84 3.845h1.923z" fill="#6E3E9B"></path><path d="M34.21 26.486c.004.467.255.9.666 1.148.41.247.923.275 1.36.073l.042.053 1.324 1.274c.148.145.39.146.54.003a.361.361 0 0 0 .004-.523l-1.33-1.286c.152-.217.232-.474.23-.737a1.37 1.37 0 0 0-1.034-1.314s0-.036.2-.053V22.44c-.194-.198-.37-.368-.575-.368a.485.485 0 0 0-.442.368v2.677c.055 0 .055.035.06.053a1.37 1.37 0 0 0-1.045 1.315zM27.021 31.283v10.964h17.841V31.283a.38.38 0 0 0-.387-.368H27.402c-.21 0-.38.165-.38.368zM27.402 45.203h9.86c.403-1.17 1.536-1.96 2.812-1.96 1.276 0 2.409.79 2.811 1.96h1.59a.38.38 0 0 0 .387-.373v-2.093h-17.84v2.093c0 .204.169.37.38.373z" fill="#6E3E9B"></path></svg>