<svg xmlns="http://www.w3.org/2000/svg" width="68" height="68" viewBox="0 0 68 68" fill="none"><rect x="0.5" y="0.5" width="67" height="67" rx="15.5" fill="white" stroke="#CED7DE"></rect><path d="M35.977 15.0002C35.6634 15.0063 35.3652 15.1358 35.1473 15.3606C34.9291 15.5854 34.8088 15.8873 34.8125 16.2002V18.2484C32.9517 18.7716 31.5679 20.4686 31.5679 22.4883C31.5679 24.5078 32.952 26.2098 34.8125 26.7352V29.7539C32.9517 30.2769 31.5679 31.9739 31.5679 33.9936C31.5679 36.0134 32.9518 37.7176 34.8125 38.2426V41.2617C32.9517 41.787 31.5679 43.4887 31.5679 45.5085C31.5679 47.528 32.952 49.2253 34.8125 49.7485V51.7873C34.8053 52.1066 34.9273 52.4148 35.1507 52.6431C35.3742 52.8713 35.6803 53 36 53C36.3197 53 36.6258 52.8713 36.8493 52.6431C37.0728 52.4148 37.1947 52.1064 37.1875 51.787V49.7461C39.0467 49.2205 40.4301 47.5256 40.4301 45.5085C40.4301 43.4914 39.0467 41.7915 37.1875 41.2641V38.2405C39.0467 37.7131 40.4301 36.011 40.4301 33.9937C40.4301 31.9766 39.047 30.2814 37.1875 29.7561V26.7328C39.0467 26.2051 40.4301 24.5055 40.4301 22.4883C40.4301 20.4712 39.0467 18.7763 37.1875 18.2507V16.2003C37.1913 15.8793 37.0648 15.5703 36.8366 15.3442C36.6084 15.1181 36.2982 14.9939 35.977 15.0002ZM35.9953 20.4402C37.1457 20.4402 38.0549 21.3392 38.0549 22.4883C38.0549 23.5972 37.2064 24.4731 36.1136 24.534C36.068 24.5298 36.0226 24.5285 35.9771 24.5295C35.9468 24.5298 35.9166 24.5314 35.8864 24.534C34.7901 24.4774 33.9454 23.6002 33.9454 22.4883C33.9454 21.3392 34.8449 20.4402 35.9953 20.4402ZM35.9953 31.9456C37.1457 31.9456 38.0549 32.8445 38.0549 33.9937C38.0549 35.1047 37.2027 35.9819 36.1066 36.0394C36.0637 36.0354 36.0202 36.0341 35.977 36.0349C35.9452 36.0352 35.9134 36.0368 35.8819 36.0397C34.7877 35.9806 33.9453 35.1039 33.9453 33.9937C33.9453 32.8445 34.8449 31.9456 35.9953 31.9456ZM35.9627 43.4533C35.9866 43.4546 36.0107 43.4554 36.0345 43.4554C37.1659 43.4763 38.0546 44.3723 38.0546 45.508C38.0546 46.6153 37.2085 47.4843 36.1181 47.5468C36.0712 47.5417 36.024 47.5396 35.9768 47.5402C35.9458 47.5412 35.9148 47.5436 35.8838 47.547C34.7885 47.4896 33.9451 46.6192 33.9451 45.5082C33.9451 44.3702 34.828 43.4705 35.9627 43.4533Z" fill="#003E52"></path><path d="M17.6774 24.357L17.6776 24.3567C17.7885 24.2341 17.9404 24.1555 18.1051 24.1355C18.1242 24.135 18.1432 24.1352 18.162 24.136L18.1725 24.1364H18.183L26.0638 24.1364L26.0648 24.1364C26.2986 24.136 26.5168 24.2544 26.6436 24.4504L29.0186 28.1203L29.0187 28.1204C29.0905 28.2314 29.1287 28.3605 29.1287 28.4926C29.1287 28.6248 29.0905 28.7541 29.0187 28.865L26.6437 32.5325L26.6429 32.5337C26.5165 32.7302 26.2985 32.849 26.0645 32.8486H26.0638H18.1839C18.002 32.8478 17.8279 32.7749 17.6995 32.6458C17.5708 32.5162 17.4992 32.3414 17.5 32.16V32.1579L17.5 24.8182L17.5 24.8177C17.4999 24.6475 17.563 24.4834 17.6774 24.357Z" stroke="#003E52"></path><path d="M17.6774 41.7218L17.6776 41.7215C17.7885 41.5988 17.9404 41.5202 18.1051 41.5003C18.1242 41.4998 18.1432 41.4999 18.162 41.5007L18.1725 41.5012H18.183L26.0638 41.5012L26.0648 41.5012C26.2986 41.5007 26.5168 41.6192 26.6436 41.8151L29.0186 45.485L29.0187 45.4851C29.0905 45.5961 29.1287 45.7252 29.1287 45.8573C29.1287 45.9895 29.0905 46.1188 29.0187 46.2297L26.6437 49.8972L26.6429 49.8984C26.5165 50.0949 26.2985 50.2137 26.0645 50.2134H26.0638H18.1839C18.002 50.2126 17.8279 50.1396 17.6995 50.0106C17.5708 49.881 17.4992 49.7062 17.5 49.5247V49.5226L17.5 42.1829L17.5 42.1825C17.4999 42.0122 17.563 41.8481 17.6774 41.7218Z" stroke="#003E52"></path><path d="M53.9515 29.7218L53.9513 29.7215C53.8404 29.5988 53.6885 29.5202 53.5238 29.5003C53.5047 29.4998 53.4857 29.4999 53.4669 29.5007L53.4564 29.5012H53.4459L45.5651 29.5012L45.5641 29.5012C45.3303 29.5007 45.1121 29.6192 44.9853 29.8151L42.6103 33.485L42.6102 33.4851C42.5384 33.5961 42.5002 33.7252 42.5002 33.8573C42.5002 33.9895 42.5384 34.1188 42.6102 34.2297L44.9852 37.8972L44.986 37.8984C45.1125 38.0949 45.3304 38.2137 45.5644 38.2134H45.5651H53.445C53.6269 38.2126 53.8011 38.1396 53.9295 38.0106C54.0581 37.881 54.1297 37.7062 54.1289 37.5247V37.5226L54.1289 30.1829L54.1289 30.1825C54.129 30.0122 54.0659 29.8481 53.9515 29.7218Z" stroke="#003E52"></path></svg>