<svg xmlns="http://www.w3.org/2000/svg" width="66" height="66" fill="none"><circle cx="33" cy="33" r="33" fill="#FCEDEE"></circle><path d="m44.68 25.48-4.606 4.581v-3.67a1.42 1.42 0 0 0-1.438-1.426c-.378 0-.74.15-1.005.42l-4.57 4.577V26.39a1.432 1.432 0 0 0-2.449-1.005l-4.564 4.576V17.508A1.507 1.507 0 0 0 24.523 16h-4.015A1.502 1.502 0 0 0 19 17.508v29.127a1.502 1.502 0 0 0 1.508 1.508h25.13a1.502 1.502 0 0 0 1.507-1.508V26.49a1.426 1.426 0 0 0-2.443-1.01h-.023zM25.141 43.52a2.01 2.01 0 1 1 0-4.02 2.01 2.01 0 0 1 0 4.02zm8.036 0a2.01 2.01 0 1 1 0-4.02 2.01 2.01 0 0 1 0 4.02zm8.036 0a2.01 2.01 0 1 1 2.01-2.01 2.005 2.005 0 0 1-1.981 2.01h-.03z" fill="#EA4D5C"></path></svg>