<svg xmlns="http://www.w3.org/2000/svg" width="66" height="66" fill="none"><circle cx="33" cy="33" r="33" fill="#EAF6FF"></circle><path d="M44.602 40.403v1.989H24.267L18.74 22.989H15V21h4.984l5.534 19.403h19.084zM28.104 49.929a3.567 3.567 0 0 1-3.302-2.183 3.515 3.515 0 0 1 .778-3.86 3.589 3.589 0 0 1 3.896-.756 3.536 3.536 0 0 1 2.187 3.285c-.016 1.94-1.602 3.506-3.559 3.514zm0-5.272c-.97 0-1.757.78-1.757 1.743a1.75 1.75 0 0 0 1.757 1.742c.97 0 1.757-.78 1.757-1.742a1.773 1.773 0 0 0-1.757-1.705v-.038zM40.395 49.929a3.567 3.567 0 0 1-3.296-2.185 3.515 3.515 0 0 1 .777-3.855 3.588 3.588 0 0 1 3.889-.762A3.536 3.536 0 0 1 43.96 46.4c-.008 1.948-1.601 3.525-3.566 3.529zm0-5.272c-.97 0-1.757.78-1.757 1.743a1.75 1.75 0 0 0 1.757 1.742c.97 0 1.756-.78 1.756-1.742a1.78 1.78 0 0 0-1.756-1.705v-.038z" fill="#51AAED"></path><path d="M35.388 24.977h-13.33l3.92 14.431h17.244l3.921-14.43H35.388z" fill="#51AAED"></path></svg>