<svg xmlns="http://www.w3.org/2000/svg" width="66" height="66" fill="none"><circle cx="33" cy="33" r="33" fill="#F7F0E5"></circle><path fill-rule="evenodd" clip-rule="evenodd" d="M40.366 49.143h-6.908l.439-3.074h12.945l.327 3.074h-6.803zM21.63 22.488v4.74h-.988L19 30.271v2.747h2.74v.637a3.296 3.296 0 0 0 .878 6.475 3.372 3.372 0 0 0 3.29-3.29 2.922 2.922 0 0 0-.328-1.32l-1.536.66c0 .222.11.438.11.66a1.537 1.537 0 1 1-3.073 0c0-1.537 1.87-1.753 2.413-1.537v-2.285h2.747v-2.747l-1.648-3.045h-.988v-4.634l11.852 13.056a2.49 2.49 0 0 0-.333 1.21l-.988 7.13h12.39l-.877-7.13a5.219 5.219 0 0 0-5.26-4.5 3.023 3.023 0 0 0-.987.11L25.487 20.074v-.222A2.922 2.922 0 0 0 22.617 17a2.922 2.922 0 0 0-2.851 2.852 2.747 2.747 0 0 0 1.864 2.636zm-.877 8.766v-.52l.877-1.642h1.864l.988.987v1.18h-3.729v-.005zm19.613 4.64a2.197 2.197 0 1 0 2.198 2.192 2.197 2.197 0 0 0-2.198-2.186v-.006z" fill="#B77209"></path></svg>