<svg xmlns="http://www.w3.org/2000/svg" width="68" height="68" viewBox="0 0 68 68" fill="none"><rect x="0.5" y="0.5" width="67" height="67" rx="15.5" fill="white" stroke="#CED7DE"></rect><path d="M22.607 22C19.687 22 17.2926 24.3737 17.2926 27.2796C17.2926 30.1854 19.687 32.5682 22.607 32.5682C25.527 32.5682 27.9215 30.1854 27.9215 27.2796C27.9215 24.3737 25.527 22 22.607 22ZM34.0013 22C31.0813 22 28.6868 24.3737 28.6868 27.2796C28.6868 30.1854 31.0813 32.5682 34.0013 32.5682C36.9213 32.5682 39.3066 30.1854 39.3066 27.2796C39.3066 24.3737 36.9213 22 34.0013 22ZM45.3863 22C42.4663 22 40.0695 24.3737 40.0695 27.2796C40.0695 30.1854 42.4663 32.5682 45.3863 32.5682C48.3063 32.5682 50.7007 30.1854 50.7007 27.2796C50.7007 24.3737 48.3063 22 45.3863 22ZM22.607 24.3414C24.2554 24.3414 25.5687 25.6392 25.5687 27.2796C25.5687 28.9199 24.2554 30.2269 22.607 30.2269C20.9586 30.2269 19.6454 28.9199 19.6454 27.2796C19.6454 25.6392 20.9586 24.3414 22.607 24.3414ZM34.0013 24.3414C35.6497 24.3414 36.9538 25.6392 36.9538 27.2796C36.9538 28.9199 35.6497 30.2269 34.0013 30.2269C32.3529 30.2269 31.0396 28.9199 31.0396 27.2796C31.0396 25.6392 32.3529 24.3414 34.0013 24.3414ZM45.3863 24.3414C47.0347 24.3414 48.3457 25.6392 48.3457 27.2796C48.3457 28.9199 47.0347 30.2269 45.3863 30.2269C43.7379 30.2269 42.4246 28.9199 42.4246 27.2796C42.4246 25.6392 43.7379 24.3414 45.3863 24.3414ZM45.3863 33.8031V33.8053C44.3996 33.8053 43.4477 33.9674 42.5625 34.2718C42.2523 34.3606 41.9924 34.572 41.8437 34.8568C41.6946 35.1416 41.6697 35.4748 41.7747 35.7783C41.8798 36.0821 42.1056 36.3294 42.399 36.4626C42.6928 36.5956 43.0283 36.6031 43.3276 36.4829C43.9697 36.2621 44.6623 36.1468 45.3863 36.1468C48.8728 36.1468 51.6475 38.8987 51.6475 42.3683V42.6613H45.5423C45.2154 42.6358 44.8927 42.7472 44.6518 42.969C44.4112 43.1905 44.2743 43.5021 44.2743 43.8284C44.2743 44.1547 44.4112 44.4663 44.6518 44.6878C44.8927 44.9095 45.2153 45.0209 45.5423 44.9954H52.8193C53.4689 44.9981 53.9976 44.4761 54 43.8294V42.3683C54 37.642 50.1354 33.803 45.3862 33.803L45.3863 33.8031ZM22.607 33.8053C17.8577 33.8053 14 37.6421 14 42.3681V43.8292C14.0023 44.473 14.5268 44.994 15.1741 44.9953H22.4508H22.4505C22.7797 45.0247 23.106 44.9153 23.3498 44.6935C23.5934 44.4717 23.7322 44.1581 23.7322 43.8292C23.7322 43.5006 23.5934 43.187 23.3498 42.9652C23.106 42.7434 22.7797 42.6337 22.4505 42.6631H16.3552V42.3678C16.3552 38.8982 19.1205 36.1462 22.607 36.1462C23.3321 36.1462 24.0233 36.2612 24.6657 36.4823V36.4827C24.9634 36.5977 25.2953 36.5875 25.5851 36.4539C25.8749 36.3207 26.0981 36.0757 26.2028 35.7755C26.3079 35.475 26.2855 35.1454 26.1411 34.8618C25.9967 34.5783 25.743 34.3654 25.4377 34.2716C24.5515 33.9668 23.5943 33.8052 22.607 33.8052L22.607 33.8053ZM34.0013 33.8053C29.252 33.8053 25.385 37.6421 25.385 42.3681V43.8292H25.3847C25.3873 44.476 25.9161 44.998 26.566 44.9953H41.434H41.4337C42.08 44.9927 42.6032 44.4723 42.6058 43.8292V42.3681C42.6058 37.6419 38.7503 33.8053 34.0013 33.8053H34.0013ZM34.0013 36.1467C37.4878 36.1467 40.2532 38.8987 40.2532 42.3683V42.6636H27.7405V42.3683C27.7405 38.8987 30.5151 36.1467 34.0016 36.1467H34.0013Z" fill="#003E52"></path></svg>