<svg xmlns="http://www.w3.org/2000/svg" width="68" height="68" viewBox="0 0 68 68" fill="none"><rect x="0.5" y="0.5" width="67" height="67" rx="15.5" fill="white" stroke="#CED7DE"></rect><path d="M30.796 30.6537C31.5603 30.1307 32.5658 30.2917 33.4103 31.0156C33.6516 31.2569 34.0135 31.4179 34.3757 31.3775C34.7376 31.3775 35.0594 31.2168 35.3007 30.9351C35.542 30.6534 35.6627 30.3319 35.6225 29.9697C35.6225 29.6077 35.4618 29.2859 35.1801 29.0446C33.4507 27.476 31.1177 27.2347 29.2674 28.4414C27.377 29.6882 26.6531 32.0613 27.4171 34.3541C27.4572 34.4346 27.4976 34.5148 27.4976 34.5954L27.5781 34.9172H26.09C25.4868 34.9172 25.0039 35.3997 25.0039 35.9629C25.0039 36.5661 25.4865 37.0489 26.09 37.0489H27.6987L27.6586 37.2097C27.3368 39.4621 25.8487 40.9502 25.8082 41.0307C25.3658 41.4331 25.2853 42.1168 25.5669 42.6395C25.8486 43.1625 26.4518 43.4438 27.0551 43.2831C27.4975 43.1625 28.463 43.0014 29.2674 43.0014C29.6697 43.0014 30.0317 43.0415 30.3131 43.1622C30.7555 43.2828 31.3186 43.3633 31.9218 43.3633C33.1686 43.3633 34.2547 43.0816 34.3754 43.0415C35.0992 42.8404 35.5016 42.1165 35.3004 41.3923C35.1798 41.0304 34.9786 40.7487 34.6568 40.588C34.335 40.4272 33.9731 40.3868 33.6512 40.4673C33.2893 40.588 32.5652 40.7086 31.8814 40.7086C31.5997 40.7086 31.3584 40.6685 31.1171 40.6281C30.7148 40.5075 30.2322 40.3868 29.6691 40.3868L29.4679 40.3467L29.5485 40.1455C29.9909 39.1801 30.2723 38.2149 30.3528 37.2094V37.0486H32.8064C33.3695 37.0486 33.8521 36.566 33.8521 35.9625C33.8521 35.3593 33.3695 34.9168 32.8064 34.9168H30.2723L30.3537 34.6758C30.2732 34.1932 30.1929 33.7909 30.0319 33.429C29.549 32.0612 30.1525 31.0961 30.7959 30.6536L30.796 30.6537Z" fill="#003E52"></path><path d="M40.6103 43.4441C40.6103 45.3346 39.0416 46.9033 37.1512 46.9033H23.5159C21.6255 46.9033 20.0568 45.3346 20.0568 43.4441V27.5162C20.0568 25.6258 21.5853 24.0571 23.5159 24.0571H37.1512C39.0416 24.0571 40.6103 25.5856 40.6103 27.5162V31.136H43.6671V27.5162C43.6671 23.8963 40.731 21.0003 37.1512 21.0003L23.5159 21C19.8961 21 17 23.896 17 27.5159V43.4841C17 47.0639 19.896 50 23.5159 50H37.1512C40.731 50 43.6671 47.0639 43.6671 43.4841V39.8642H40.6103V43.4441Z" fill="#003E52"></path><path d="M54.7282 34.3538L49.9818 29.9697C49.3382 29.4066 48.3731 29.4467 47.81 30.0502C47.2469 30.6938 47.287 31.6589 47.8905 32.222L49.7408 33.9114H38.9211C38.0763 33.9114 37.3926 34.5951 37.3926 35.4399C37.3926 36.2847 38.0763 36.9684 38.9211 36.9684H49.7408L47.8905 38.6978C47.2469 39.2609 47.2067 40.2263 47.81 40.8697C48.1318 41.1915 48.5338 41.3522 48.9362 41.3522C49.2981 41.3522 49.7005 41.2316 49.9819 40.9499L54.7279 36.5658C55.0498 36.2841 55.2105 35.882 55.2105 35.4395C55.2111 35.0375 55.0503 34.6352 54.7285 34.3538L54.7282 34.3538Z" fill="#003E52"></path></svg>