<svg xmlns="http://www.w3.org/2000/svg" width="68" height="68" viewBox="0 0 68 68" fill="none"><rect x="0.5" y="0.5" width="67" height="67" rx="15.5" fill="white" stroke="#CED7DE"></rect><path d="M51.3776 47.6588L44.4731 41.1121C46.5124 38.5719 47.7287 35.3524 47.7287 31.8464C47.7287 23.6541 41.0746 17 32.8822 17C24.6898 17 18 23.6541 18 31.8822C18 40.1104 24.6541 46.7645 32.8822 46.7645C36.3881 46.7645 39.6078 45.5482 42.1478 43.5089L48.6946 50.4134C48.7303 50.4491 48.7303 50.4491 48.7662 50.485C49.5532 51.2004 50.7695 51.1648 51.485 50.4134C52.2004 49.6264 52.1648 48.4101 51.3777 47.6589L51.3776 47.6588ZM21.0766 31.8822C21.0766 25.3713 26.3711 20.0766 32.8822 20.0766C39.3931 20.0766 44.6878 25.3712 44.6878 31.8822C44.6878 38.3932 39.3932 43.6878 32.8822 43.6878C26.3712 43.6878 21.0766 38.3574 21.0766 31.8822Z" fill="#003E52"></path><path d="M28.1957 30.8804H25.2264C24.9402 30.8804 24.7256 31.095 24.7256 31.3812V36.3182C24.7256 36.6044 24.9402 36.819 25.2264 36.819L28.1957 36.8187C28.4819 36.8187 28.6965 36.6041 28.6965 36.3179V31.3812C28.7322 31.095 28.4817 30.8804 28.1957 30.8804V30.8804Z" fill="#003E52"></path><path d="M34.206 28.8057H31.2367C30.9504 28.8057 30.7358 29.0203 30.7358 29.3065V36.3183C30.7358 36.6045 30.9504 36.8191 31.2367 36.8191H34.206C34.4922 36.8191 34.7068 36.6045 34.7068 36.3183V29.3423C34.7068 29.056 34.4922 28.8058 34.206 28.8058V28.8057Z" fill="#003E52"></path><path d="M40.1801 26.7666H37.2108C36.9246 26.7666 36.71 26.9812 36.71 27.2674V36.3184C36.71 36.6046 36.9246 36.8192 37.2108 36.8192H40.1801C40.4663 36.8192 40.6809 36.6046 40.6809 36.3184V27.2674C40.7168 27.0171 40.4663 26.7666 40.1801 26.7666Z" fill="#003E52"></path></svg>