<svg xmlns="http://www.w3.org/2000/svg" width="66" height="66" fill="none"><circle cx="33" cy="33" r="33" fill="#EEFFFD"></circle><path d="M35.5 49.82v-5.678h-5.357v5.679h-5.464v2.036H41.07V49.82H35.5zm4.714-26.785v.429c0 4.071-3.321 7.5-7.393 7.5-4.071 0-7.392-3.322-7.392-7.5v-.429H19v19.072h27.643V23.035h-6.429zM35.18 39.642H21.786v-2.035H35.07v2.035h.108zm0-4.607H21.786V33H35.07v2.036h.108zm7.392 4.179L40 34.714l-.214 1.285-2.036-.321.75-4.071c.107-.643.75-.965 1.393-.75l3.857 1.392-.75 1.929-1.286-.429 2.572 4.5-1.715.965z" fill="#2E9C8E"></path><path d="M32.822 28.714a5.357 5.357 0 1 0 0-10.714 5.357 5.357 0 0 0 0 10.714z" fill="#2E9C8E"></path><path d="M30.571 26.465v-.964h.215c.214 0 .321-.107.535-.214.107-.108.215-.322.215-.643v-.429c0-.214 0-.321-.108-.536h-.75v-.642h.643l-.107-.75c0-.322 0-.536.107-.75.107-.215.215-.429.429-.536.214-.107.321-.322.643-.322.214-.107.428-.107.75-.107.321 0 .535 0 .75.107.214.108.428.215.643.429.214.214.321.429.428.643l-.964.321a1.478 1.478 0 0 0-.322-.428c-.107-.107-.214-.107-.428-.107-.107 0-.214 0-.322.107-.107.107-.214.107-.214.214-.107.107-.107.214-.107.429v.428c0 .107.107.322.107.536h1.179v.643H32.82v.964c0 .107 0 .321-.107.429 0 .107-.107.214-.107.321-.107.107-.107.214-.214.214h1.071c.214 0 .429 0 .536-.107.107-.107.214-.321.321-.536l.965.215c-.108.535-.322.857-.643 1.071-.322.214-.643.322-1.179.322-.107-.322-2.893-.322-2.893-.322z" fill="#fff"></path></svg>