<?xml version="1.0" encoding="UTF-8"?>
<svg width="128pt" height="128pt" version="1.1" viewBox="0 0 128 128" xmlns="http://www.w3.org/2000/svg">
 <path d="m76.207 74.258-1.5-4.0195c-0.25781-0.67188-0.6875-1.2734-1.2422-1.7266l-6.8477-5.4492c-0.80469-0.64453-1.8008-0.96094-2.8359-0.87109l-19.129 1.5977c-2.3242 0.17578-4.4766-0.93359-5.6484-2.9141l-7.6953-12.809c-1.0195-1.7148-1.125-3.8125-0.28906-5.6133 0.83594-1.7969 2.5-3.0625 4.457-3.3906l16.195-2.6992c0.62109-0.10938 1.1719-0.51953 1.4688-1.0938l4.2734-8.5664c0.25-0.50781 0.27734-1.1094 0.070313-1.6328l-2.6562-6.6094c-0.21484-0.55078-0.65625-0.96875-1.1953-1.1406l-4.2617-1.4297c-0.75781-0.25391-1.2891-0.92969-1.3594-1.7266l-0.41016-4.7891c-1.4414 0.32422-2.875 0.69531-4.2891 1.1328-1.0508 0.32422-2.1758-0.26562-2.5-1.3242-0.32422-1.0547 0.26562-2.1758 1.3242-2.5 2.2812-0.70312 4.6055-1.2266 6.9453-1.6562 0.054688-0.007813 0.097657-0.039063 0.15625-0.046875 0.019531 0 0.035157 0.007812 0.050781 0.007812 3.5352-0.63281 7.1133-0.99219 10.719-0.99219 11.625 0 22.902 3.3359 32.609 9.6445 0.92578 0.60156 1.1875 1.8398 0.58594 2.7656-0.38281 0.58984-1.0234 0.91016-1.6797 0.91016-0.375 0-0.75-0.10547-1.0859-0.32422-3.5664-2.3164-7.3633-4.1875-11.312-5.625l-0.80078 7.7031c-0.13672 1.3047 0.37891 2.5938 1.375 3.4492l11.613 9.9531c0.39453 0.33984 0.64062 0.82031 0.69141 1.3359l1.7109 18.84c0.11719 1.3203 0.88281 2.4922 2.0391 3.1328l13.445 7.4688c0.76562 0.42578 1.6641 0.59375 2.5352 0.46094l4.2539-0.63672c-0.10938-6.957-1.4688-13.711-4.0703-20.09-0.41797-1.0234 0.074219-2.1875 1.0977-2.6055 1.0195-0.42188 2.1875 0.070313 2.6055 1.0977 4.1094 10.078 5.2383 20.922 3.8086 30.801-0.14453 0.99609-1 1.7109-1.9766 1.7109-0.09375 0-0.19141-0.007812-0.28906-0.019531-1.0938-0.15625-1.8516-1.1719-1.6914-2.2656 0.21484-1.4805 0.34375-3.0156 0.42969-4.5703l-3.5781 0.53516c-0.39062 0.058593-0.78125 0.085937-1.1719 0.085937-1.3594 0-2.707-0.34375-3.8984-1.0078l-13.441-7.4688c-2.3164-1.2852-3.8438-3.6289-4.082-6.2695l-1.6406-18.031-10.996-9.4258c-1.9922-1.707-3.0234-4.2891-2.75-6.9023l0.88672-8.543c-4.918-1.3867-10.031-2.1211-15.223-2.1211-2.8359 0-5.6562 0.21094-8.4492 0.63281l0.33203 3.8867 2.9922 1.0039c1.6523 0.53125 3.0312 1.832 3.668 3.4727l2.6523 6.5977c0.625 1.5781 0.55078 3.3555-0.19922 4.8867l-4.2852 8.5938c-0.86719 1.707-2.5 2.9141-4.3672 3.2383l-16.215 2.7031c-0.66406 0.10938-1.2031 0.51953-1.4844 1.1289-0.28516 0.61328-0.25 1.2969 0.09375 1.875l7.6953 12.812c0.39453 0.66406 1.1094 1.0391 1.8906 0.97656l19.129-1.5977c2.043-0.16406 4.0586 0.45313 5.6562 1.7305l6.8555 5.457c1.1172 0.90625 1.9727 2.0898 2.4844 3.4336l1.5039 4.0312c0.38672 1.0352-0.14063 2.1875-1.1758 2.5742-0.23047 0.085937-0.46875 0.125-0.69922 0.125-0.8125 0-1.5742-0.49609-1.875-1.3008zm-4.5898 44.527c-3.7227 0.80469-7.6328 1.2148-11.617 1.2148-30.879 0-56-25.121-56-56 0-3.5586 0.36328-7.125 1.0352-10.629 0.52344-0.054688 1.0469-0.14062 1.5547-0.27734l9.0234-2.3828c0.85547-0.22656 1.7578 0.13672 2.2109 0.89844l15.875 26.453c0.19922 0.33594 0.30078 0.68359 0.30078 1.0391v2.4805c0 4.7227 3.2188 8.7383 7.8281 9.7734l10.469 2.3164 2.7031 13.492c0.78125 3.9805 3.8594 7.0547 7.8281 7.8359l4.7812 0.96094c0.13281 0.027343 0.26172 0.039062 0.39453 0.039062 0.45703 0 0.90625-0.15625 1.2656-0.45312 0.46484-0.37891 0.73438-0.94531 0.73438-1.5469v-9.3711l3.6406-5.2031c0.63281-0.90625 0.41406-2.1523-0.49219-2.7852s-2.1523-0.41406-2.7852 0.49219l-4 5.7188c-0.23438 0.33594-0.35938 0.73438-0.35938 1.1484v7.5586l-2.3945-0.48047c-2.375-0.46484-4.2148-2.3047-4.6836-4.6875l-2.9609-14.781c-0.15625-0.77734-0.75391-1.3906-1.5273-1.5625l-11.734-2.5977c-2.7656-0.62109-4.6953-3.0312-4.6953-5.8672v-2.4805c0-1.0664-0.29688-2.1328-0.86719-3.0898l-15.875-26.449c-1.3516-2.2852-4.0938-3.3984-6.6719-2.7148l-8.5391 2.2539c1.3086-4.7539 3.2031-9.3242 5.7305-13.602 0.5625-0.95312 0.24609-2.1797-0.70312-2.7383-0.95313-0.5625-2.1797-0.24609-2.7383 0.70312-5.6914 9.6172-8.3477 20.203-8.3477 30.535 0 33.086 26.914 60 60 60 4.2695 0 8.4609-0.4375 12.461-1.3047 1.0781-0.23437 1.7656-1.2969 1.5312-2.3789-0.23438-1.0781-1.2969-1.7656-2.3789-1.5312zm56.383-34.785v36c0 4.4102-3.5898 8-8 8h-36c-4.4102 0-8-3.5898-8-8v-36c0-4.4102 3.5898-8 8-8h36c4.4102 0 8 3.5898 8 8zm-30-4v10h8v-10zm26 4c0-2.207-1.793-4-4-4h-10v12c0 1.1055-0.89453 2-2 2h-12c-1.1055 0-2-0.89453-2-2v-12h-10c-2.207 0-4 1.793-4 4v36c0 2.207 1.793 4 4 4h36c2.207 0 4-1.793 4-4zm-34 32h-4c-1.1055 0-2 0.89453-2 2s0.89453 2 2 2h4c1.1055 0 2-0.89453 2-2s-0.89453-2-2-2zm4-8h-8c-1.1055 0-2 0.89453-2 2s0.89453 2 2 2h8c1.1055 0 2-0.89453 2-2s-0.89453-2-2-2zm-88-92c0-8.8203 7.1797-16 16-16s16 7.1797 16 16c0 8.1445-6.1211 14.871-14 15.859v8.1406c0 1.1055-0.89453 2-2 2s-2-0.89453-2-2v-8.1406c-7.8789-0.98828-14-7.7188-14-15.859zm4 0c0 6.6172 5.3828 12 12 12s12-5.3828 12-12-5.3828-12-12-12-12 5.3828-12 12zm6 0c0-3.3086 2.6914-6 6-6s6 2.6914 6 6-2.6914 6-6 6-6-2.6914-6-6zm4 0c0 1.1016 0.89844 2 2 2s2-0.89844 2-2-0.89844-2-2-2-2 0.89844-2 2zm74 10c0-6.6172 5.3828-12 12-12s12 5.3828 12 12c0 5.9336-4.332 10.863-10 11.82v8.1797c0 1.1055-0.89453 2-2 2s-2-0.89453-2-2v-8.1797c-5.668-0.95703-10-5.8867-10-11.82zm4 0c0 4.4102 3.5898 8 8 8s8-3.5898 8-8-3.5898-8-8-8-8 3.5898-8 8zm8 2c1.1055 0 2-0.89453 2-2s-0.89453-2-2-2-2 0.89453-2 2 0.89453 2 2 2z"/>
</svg>
