<?xml version="1.0" encoding="UTF-8"?>
<svg width="100pt" height="100pt" version="1.1" viewBox="0 0 100 100" xmlns="http://www.w3.org/2000/svg">
 <g>
  <path d="m88.07 58.152v14.547 1.7422c0 0.23047-0.011718 0.46094-0.03125 0.6875-0.011718 0.12891-0.082031 0.60156 0.007813-0.007812-0.019531 0.13281-0.046875 0.26562-0.074219 0.39453-0.050781 0.26172-0.125 0.51562-0.20312 0.76953-0.039062 0.125-0.085937 0.25-0.12891 0.37109-0.082031 0.20703-0.0625 0.16406 0.058594-0.125-0.035157 0.078125-0.070313 0.16016-0.10938 0.23828-0.21875 0.46875-0.5 0.91016-0.80859 1.3242 0.37891-0.50781-0.15234 0.15234-0.26562 0.26953-0.20703 0.21875-0.42969 0.41797-0.66016 0.61328-0.35156 0.29688 0.37891-0.27734 0.007812-0.007812-0.10547 0.078125-0.21094 0.14844-0.32031 0.21875-0.21484 0.14062-0.44531 0.26953-0.67188 0.38672-0.11719 0.058593-0.23438 0.11328-0.35156 0.16797 0.53516-0.24609 0.12109-0.054688 0.003907-0.011719-0.28906 0.10938-0.58594 0.19141-0.88672 0.26562-0.16406 0.039062-1.0391 0.16016-0.38281 0.085937-0.26953 0.03125-0.53906 0.046875-0.8125 0.046875h-0.039062-0.73438-10.512-17.875-18.891-13.559-2.7969-0.14844c-0.15234 0-0.30078-0.003906-0.44922-0.011718-0.14453-0.007813-0.28516-0.019532-0.42969-0.035157 0.60156 0.058594 0.13672 0.019531 0.007813-0.003906-0.26172-0.046875-0.52344-0.10938-0.78125-0.18359-0.12891-0.035156-0.25391-0.078125-0.37891-0.12109-0.125-0.042969-0.69531-0.28125-0.12109-0.035157-0.48047-0.20703-0.92969-0.47656-1.3555-0.77344-0.37891-0.26562 0.36328 0.29688 0.003906 0.007812-0.10156-0.082031-0.19922-0.16797-0.29297-0.25391-0.22656-0.19922-0.43359-0.41797-0.63672-0.64453-0.085937-0.097657-0.16797-0.19922-0.25-0.29688 0.36719 0.45312 0.082031 0.097656 0.011719 0-0.14844-0.21094-0.28125-0.4375-0.41016-0.66406-0.078126-0.14062-0.43359-0.92969-0.1875-0.33594-0.11719-0.28516-0.21094-0.57812-0.29688-0.875-0.074218-0.25781-0.125-0.51953-0.16797-0.78516 0.10938 0.65234-0.011719-0.23438-0.019532-0.40625-0.003906-0.12109-0.003906-0.24609-0.003906-0.36719v-0.81641-3.5156-9.1523-2.543-0.16016c0-0.14062 0.003906-0.28125 0.011719-0.42188 0.007813-0.13672 0.019531-0.27344 0.03125-0.41016 0.027344-0.22656 0.019531-0.17969-0.019531 0.14062 0.015625-0.089844 0.03125-0.17578 0.046875-0.26562 0.050781-0.26172 0.12109-0.51953 0.19531-0.77734 0.046875-0.15625 0.375-0.96094 0.11719-0.375 0.22656-0.51953 0.52344-1.0039 0.85547-1.4609-0.37109 0.50781 0.15234-0.16406 0.26172-0.28125 0.17578-0.19141 0.36719-0.36719 0.5625-0.53906 0.089844-0.078125 0.44922-0.36328-0.011718-0.007813 0.10156-0.078124 0.21094-0.15234 0.31641-0.22656 0.25-0.17188 0.51562-0.32812 0.78125-0.46875 0.11719-0.0625 0.23438-0.11719 0.35156-0.17188 0.42188-0.19922-0.44141 0.17188-0.003906 0.003906 0.24609-0.097656 0.5-0.17578 0.75781-0.24609 0.25781-0.070313 0.52344-0.12109 0.78906-0.16797-0.58203 0.097656-0.17188 0.023437-0.042969 0.011719 0.19922-0.019532 0.40234-0.027344 0.60547-0.03125 0.19922-0.003907 0.40234 0 0.60156 0h9.7031 17.543 19.035 14.18 2.7461 0.69531 0.16406c0.23047 0 1.1562 0.097656 0.37109-0.015626 0.57422 0.082032 1.0586 0.097657 1.582-0.20703 0.625-0.36719 1.0156-1.0469 1.0156-1.7695v-0.003906c-0.68359 0.68359-1.3672 1.3672-2.0508 2.0508 0.125 0.015625 0.046876 0.003906-0.24219-0.03125 0.13281 0.019531 0.26562 0.046875 0.39844 0.074219 0.21875 0.042968 0.43359 0.10547 0.64453 0.16797 0.21094 0.0625 0.41797 0.14063 0.62109 0.21875-0.59375-0.23437 0.089843 0.054688 0.21875 0.12109 0.19141 0.097656 0.37891 0.21094 0.55859 0.32812 0.12109 0.074219 0.71484 0.51953 0.21484 0.12891 0.33984 0.26562 0.64844 0.56641 0.9375 0.88281 0.097656 0.10547 0.54297 0.69141 0.16797 0.1875 0.12891 0.17188 0.24609 0.35547 0.35938 0.53906 0.11328 0.18359 0.21875 0.375 0.31641 0.56641 0.039063 0.078125 0.078125 0.15625 0.11328 0.23438 0.19922 0.42188-0.17188-0.44141-0.003906-0.007813 0.16016 0.41406 0.27344 0.84375 0.36328 1.2773 0.015625 0.089844 0.03125 0.17578 0.046875 0.26562-0.10156-0.60156-0.019531-0.13281-0.007812-0.003906 0.035156 0.22656 0.042968 0.45703 0.042968 0.6875 0.007813 1.1172 0.92578 2.0508 2.0508 2.0508 1.1094 0 2.0625-0.93359 2.0508-2.0508-0.023437-2.4844-0.94531-4.793-2.5859-6.6484-1.5977-1.8047-3.8906-2.8242-6.2539-3.0898-1.1133-0.125-2.0508 1.0273-2.0508 2.0508v0.003906c0.86719-0.66016 1.7305-1.3203 2.5977-1.9766-1.0078-0.14453-1.9805-0.13281-2.9922-0.13281h-4.7578-15.957-19.258-16.211-6.8125c-5.3398 0-9.8594 4.4336-9.8594 9.7969v5.8828 8.7852c0 0.58594-0.003906 1.1719 0 1.7578 0.023438 2.6133 1.1758 5.168 3.0664 6.957 1.8203 1.7266 4.2891 2.6953 6.7969 2.6953h0.53125 3.6016 14.574 19.113 17.301 9.1445c3.4531 0 6.543-1.6133 8.4648-4.4883 1.0664-1.5938 1.5508-3.5508 1.5508-5.4492v-2.4922-13.652c0-1.1172-0.93359-2.0508-2.0508-2.0508-1.1211 0-2.0547 0.93359-2.0547 2.0508z"/>
  <path d="m81.277 50.465v0.003906c0.86719-0.66016 1.7305-1.3203 2.5977-1.9766-0.24609-0.039063-0.49219-0.070313-0.74219-0.097657v4.1016c0.066407 0.007812 0.12891 0.011718 0.19531 0.023437 0.18359-0.023437 0.36328-0.046875 0.54688-0.074219 0.34766-0.097656 0.64844-0.27344 0.90625-0.52734 0.38281-0.38281 0.60156-0.91016 0.60156-1.4492 0-0.54297-0.21875-1.0664-0.60156-1.4492-0.13672-0.10547-0.27734-0.21484-0.41406-0.32031-0.32031-0.1875-0.66406-0.27734-1.0352-0.28125-0.066406-0.007813-0.12891-0.015625-0.19531-0.023438-0.18359 0.023438-0.36328 0.046875-0.54688 0.074219-0.34766 0.097656-0.64844 0.27344-0.90625 0.52734-0.38281 0.38281-0.60156 0.91016-0.60156 1.4492 0 0.54297 0.21875 1.0664 0.60156 1.4492 0.13672 0.10547 0.27734 0.21484 0.41406 0.32031 0.32031 0.18359 0.66406 0.27734 1.0352 0.28125 0.035157 0.003906 0.074219 0.007812 0.10938 0.011718-0.18359-0.023437-0.36328-0.046874-0.54688-0.074218 0.027344 0.003906 0.058594 0.007812 0.085938 0.011718 0.18359 0.023438 0.36328 0.046876 0.54688 0.074219 0.37109 0 0.71484-0.09375 1.0352-0.28125 0.625-0.36719 1.0156-1.0469 1.0156-1.7695v-0.003906c0-0.54297-0.21875-1.0664-0.60156-1.4492-0.38281-0.38281-0.91016-0.60156-1.4492-0.60156-0.54297 0-1.0664 0.21875-1.4492 0.60156-0.38281 0.38281-0.60156 0.91016-0.60156 1.4492z"/>
  <path d="m80.82 40.512c0.066407 0.36328 0.125 0.72656 0.17969 1.0938 0.089844 0.60938-0.050781-0.42188 0.027344 0.19141 0.023437 0.18359 0.042968 0.37109 0.0625 0.55469 0.089844 0.80859 0.14062 1.6211 0.17188 2.4336 0.023437 0.65234 0.019531 1.3086 0.019531 1.9609v3.7227c0.86719-0.66016 1.7305-1.3203 2.5977-1.9766-1.0078-0.14453-1.9805-0.13281-2.9922-0.13281h-4.7578-15.957-19.258-16.211-6.8125c-0.33984 0-0.67969 0.023437-1.0156 0.058594 0.68359 0.68359 1.3672 1.3672 2.0508 2.0508 0-2.875-0.097656-5.7617 0.25-8.6211 0.015625-0.125 0.082031-0.60156-0.003906 0.011719 0.019531-0.13281 0.039063-0.26562 0.058594-0.39844 0.039062-0.26563 0.082031-0.52734 0.12891-0.79297 0.097656-0.56641 0.21484-1.1328 0.34375-1.6914 0.24609-1.0703 0.54688-2.1211 0.89844-3.1602 0.16797-0.49609 0.34766-0.98438 0.53906-1.4688 0.054687-0.14453 0.39062-0.95312 0.13672-0.35156 0.11719-0.27734 0.24219-0.55469 0.36719-0.83203 0.44531-0.98047 0.94531-1.9336 1.4844-2.8672 0.53516-0.92578 1.125-1.8242 1.7461-2.6953 0.14844-0.20703 0.30078-0.41406 0.45703-0.62109 0.070313-0.09375 0.35156-0.45703-0.007812 0.007812 0.078125-0.10156 0.15625-0.20312 0.23828-0.30078 0.34375-0.43359 0.70312-0.85938 1.0703-1.2734 0.70313-0.80078 1.4492-1.5625 2.2266-2.293 0.375-0.35156 0.75781-0.69141 1.1445-1.0234 0.19531-0.16797 0.39062-0.32812 0.58984-0.49219 0.097656-0.082031 0.19922-0.16016 0.30078-0.24219 0.097657-0.078125 0.58203-0.45312 0.089844-0.074219 1.7031-1.3047 3.5352-2.4375 5.4531-3.3906 0.46484-0.23047 0.93359-0.44922 1.4102-0.65625 0.10938-0.046876 0.53906-0.23047-0.011718 0.003906 0.12109-0.050782 0.23828-0.10156 0.35937-0.14844 0.28125-0.11328 0.56641-0.22266 0.84766-0.33203 1.0234-0.38281 2.0664-0.71094 3.1211-0.99219 0.98438-0.26172 1.9805-0.47266 2.9805-0.64063 0.21875-0.039062 0.44141-0.070312 0.66016-0.10547 0.125-0.019532 0.60156-0.082032-0.011719 0 0.13281-0.019532 0.26562-0.035156 0.40234-0.050782 0.53906-0.066406 1.0781-0.11328 1.6172-0.15234 1.1523-0.082031 2.3125-0.097657 3.4688-0.0625 0.75391 0.023437 1.5039 0.078125 2.2539 0.15234 0.1875 0.019532 0.37109 0.039063 0.55469 0.0625 0.054687 0.007813 0.67188 0.089844 0.19141 0.023438 0.36719 0.050781 0.73047 0.10938 1.0977 0.17188 1.1016 0.19141 2.2031-0.27734 2.5234-1.4336 0.27344-0.99609-0.32812-2.332-1.4336-2.5234-9.6914-1.6758-19.82 0.59375-27.656 6.6094-7.1992 5.5273-12.211 13.66-13.555 22.676-0.49609 3.3125-0.42969 6.625-0.42969 9.9648 0 1.0312 0.9375 2.1641 2.0508 2.0508 0.86719-0.085937 1.7422-0.058594 2.6133-0.058594h4.7852 15.988 19.258 16.18c2.3008 0 4.6055-0.023437 6.9102 0 0.18359 0 0.97266 0.097657 0.18359-0.015625 0.57422 0.082032 1.0586 0.097656 1.582-0.20703 0.625-0.36719 1.0156-1.0469 1.0156-1.7695v-3.7227c0-2.4609-0.17188-4.8945-0.60547-7.3242-0.19531-1.1016-1.5234-1.707-2.5234-1.4336-1.1641 0.32422-1.6406 1.4297-1.4453 2.5273z"/>
  <path d="m25.492 82.184v3.3945 1.9961 0.41406c0 0.14062-0.007813 0.28516-0.015626 0.42578-0.03125 0.47656 0.082032-0.48437 0.007813-0.015624-0.027344 0.17187-0.070313 0.34375-0.11719 0.51172-0.035157 0.125-0.078126 0.24609-0.11719 0.37109-0.15234 0.43359 0.19922-0.43359 0.007812-0.015625-0.10547 0.23047-0.23828 0.44922-0.37891 0.66016-0.070312 0.10547-0.35156 0.44531 0.019532-0.011719-0.078126 0.097657-0.16406 0.19141-0.25 0.28125-0.085938 0.09375-0.17969 0.17578-0.26953 0.26172-0.0625 0.054688-0.125 0.10938-0.19141 0.16406 0.25-0.1875 0.28906-0.21875 0.11328-0.09375-0.20703 0.14844-0.42969 0.27344-0.65234 0.38672-0.40625 0.20703 0.44922-0.16797 0.019531-0.003906-0.12109 0.046875-0.24219 0.085938-0.36719 0.12109-0.16797 0.050781-1.0156 0.17969-0.35938 0.10156-0.26953 0.03125-0.54297 0.03125-0.81641 0.019532-0.12891-0.003906-0.60156-0.066406 0.011719 0.019531-0.13281-0.019531-0.26172-0.046875-0.39062-0.074219-0.25781-0.054687-0.50391-0.14062-0.75-0.23438 0.59375 0.22656-0.17188-0.10938-0.32031-0.19922-0.10938-0.066406-0.21484-0.14062-0.32031-0.21484-0.17578-0.12891-0.14062-0.10156 0.10938 0.085937-0.066406-0.054687-0.12891-0.10938-0.19531-0.16797-0.19141-0.17188-0.36328-0.36328-0.52734-0.55859 0.40234 0.47656-0.10156-0.17578-0.1875-0.32422-0.066407-0.11328-0.12109-0.22656-0.17969-0.34375-0.20312-0.41406 0.16797 0.44531 0.011719 0.011719-0.10547-0.28906-0.17578-0.58984-0.22656-0.89062 0.10547 0.61719 0.007813-0.125 0.007813-0.33594v-0.53516-2.0273-3.2188l-2.0508 2.0508c1.7734 0.13672 3.5859 0.03125 5.3594 0.03125h5.0703c1.1172 0 2.0508-0.93359 2.0508-2.0508 0-1.1172-0.93359-2.0508-2.0508-2.0508h-5.0703c-1.7734 0-3.5859 0.10547-5.3594-0.03125-1.1172-0.085938-2.0508 1-2.0508 2.0508v3.4141c0 1.3906-0.09375 2.8164 0.21484 4.1836 0.59766 2.6289 2.8984 4.7695 5.5 5.3398 2.8555 0.62891 5.6562-0.49219 7.4141-2.7852 1.3203-1.7188 1.3984-3.75 1.3984-5.8047v-4.3125c0-1.1172-0.93359-2.0508-2.0508-2.0508-1.1172 0.003906-2.0508 0.9375-2.0508 2.0547z"/>
  <path d="m81.035 82.152v3.4141 2.0078 0.41406c0 0.14062-0.007812 0.28516-0.015625 0.42578-0.03125 0.47656 0.082031-0.48437 0.007813-0.015624-0.027344 0.17187-0.070313 0.34375-0.11719 0.51172-0.035156 0.125-0.078125 0.24609-0.12109 0.37109-0.15234 0.43359 0.19922-0.43359 0.007813-0.015625-0.10547 0.23047-0.23828 0.44922-0.37891 0.66016-0.070313 0.10547-0.35156 0.44531 0.019531-0.011719-0.078125 0.097657-0.16406 0.19141-0.25 0.28125-0.085938 0.09375-0.17969 0.17578-0.26953 0.26172-0.0625 0.054688-0.125 0.10938-0.19141 0.16406 0.25-0.1875 0.28906-0.21875 0.11328-0.09375-0.20703 0.14844-0.42969 0.27344-0.65234 0.38672-0.40625 0.20703 0.44922-0.16797 0.019531-0.003906-0.12109 0.046875-0.24219 0.085938-0.36719 0.12109-0.16797 0.050781-1.0156 0.17969-0.35938 0.10156-0.26953 0.03125-0.54297 0.03125-0.81641 0.019532-0.12891-0.003906-0.60156-0.066406 0.011719 0.019531-0.13281-0.019531-0.26172-0.046875-0.39062-0.074219-0.25781-0.054687-0.50391-0.14062-0.75-0.23438 0.59375 0.22656-0.17188-0.10938-0.32031-0.19922-0.10938-0.066406-0.21484-0.14062-0.32031-0.21484-0.17578-0.12891-0.14062-0.10156 0.10938 0.085937-0.066406-0.054687-0.12891-0.10938-0.19531-0.16797-0.19141-0.17188-0.36328-0.36328-0.52734-0.55859 0.40234 0.47656-0.10156-0.17578-0.1875-0.32422-0.066406-0.11328-0.12109-0.22656-0.17578-0.34375-0.20312-0.41406 0.16797 0.44531 0.011719 0.011719-0.10547-0.28906-0.17578-0.58984-0.22656-0.89062 0.10547 0.61719 0.007813-0.125 0.007813-0.33594v-0.53125-2.0156-3.2031c-0.68359 0.68359-1.3672 1.3672-2.0508 2.0508h5.0391c1.7812 0 3.6094 0.11719 5.3906-0.03125 1.1133-0.09375 2.0508-0.86328 2.0508-2.0508 0-1.0469-0.93359-2.1445-2.0508-2.0508-1.7461 0.14844-3.543 0.03125-5.293 0.03125h-5.1367c-1.1172 0-2.0508 0.93359-2.0508 2.0508v3.3945c0 1.3828-0.09375 2.8086 0.21484 4.168 0.59766 2.6289 2.8984 4.7695 5.5 5.3398 2.8555 0.62891 5.6562-0.49219 7.4141-2.7852 1.3203-1.7227 1.3984-3.7539 1.3984-5.8125v-4.3359c0-1.1172-0.93359-2.0508-2.0508-2.0508-1.1172 0.007812-2.0508 0.94141-2.0508 2.0586z"/>
  <path d="m27.91 66.664c0 0.13672-0.007812 0.26953-0.015625 0.40625-0.03125 0.47656 0.085938-0.48437 0-0.019531-0.046875 0.25781-0.12109 0.50391-0.21094 0.75-0.15234 0.43359 0.20312-0.42969 0.003906-0.019531-0.054688 0.11328-0.11719 0.22656-0.18359 0.33594-0.0625 0.10937-0.13672 0.21484-0.20703 0.32031-0.12891 0.17578-0.097656 0.13672 0.089844-0.11328-0.054688 0.066406-0.10938 0.12891-0.16797 0.19141-0.10938 0.12109-0.74609 0.66016-0.24219 0.26953-0.20312 0.15625-0.41797 0.28516-0.64062 0.40625-0.10938 0.0625-0.52734 0.23828 0.027343 0.007813-0.11719 0.050781-0.24219 0.089843-0.36328 0.12891-0.125 0.039063-0.25 0.070313-0.37891 0.10156-0.085938 0.019531-0.17188 0.035156-0.25781 0.050781 0.32812-0.039063 0.37891-0.046875 0.14844-0.023438-0.26953 0.027344-0.53906 0.019531-0.80859 0-0.47656-0.03125 0.48438 0.085938 0.019531 0-0.12891-0.023437-0.25391-0.058593-0.38281-0.089843-0.125-0.03125-0.24609-0.078126-0.36719-0.12109-0.43359-0.15234 0.42969 0.20312 0.019532 0.003906-0.26563-0.12891-0.51563-0.28906-0.75781-0.46484 0.51172 0.37109-0.12109-0.14844-0.24219-0.26953-0.085938-0.089844-0.36328-0.44141-0.003907 0.027344-0.078125-0.10156-0.14844-0.20703-0.21484-0.3125-0.09375-0.14062-0.44531-0.90234-0.19922-0.30469-0.11719-0.28125-0.19531-0.57422-0.25391-0.87109-0.097656-0.46094 0.046876 0.49219 0 0.019531-0.011718-0.13281-0.015624-0.26953-0.015624-0.40625s0.007812-0.26953 0.015624-0.40625c0.03125-0.47656-0.085937 0.48438 0 0.019531 0.046876-0.25781 0.12109-0.50391 0.21094-0.75 0.15234-0.43359-0.20312 0.42969-0.003906 0.019531 0.074218-0.15234 0.16016-0.30078 0.25-0.44141 0.066406-0.10938 0.14062-0.21094 0.21484-0.3125-0.34375 0.47266-0.085938 0.125 0.003906 0.027344 0.10938-0.12109 0.74609-0.66016 0.24219-0.26953 0.20312-0.15625 0.41797-0.28516 0.64062-0.40625 0.10938-0.0625 0.52734-0.23828-0.027344-0.007813 0.16016-0.066406 0.32422-0.11719 0.48828-0.16406 0.125-0.035156 0.25391-0.0625 0.38281-0.089843 0.46094-0.097657-0.49219 0.046875-0.019531 0 0.26953-0.027344 0.53906-0.019531 0.80859 0 0.47656 0.03125-0.48438-0.085938-0.019531 0 0.12891 0.023437 0.25391 0.058593 0.38281 0.089843 0.125 0.03125 0.24609 0.078126 0.36719 0.12109 0.20703 0.078125 0.16016 0.058594-0.13281-0.058594 0.078125 0.035157 0.15234 0.074219 0.23047 0.11328 0.22656 0.11719 0.4375 0.25781 0.64062 0.40625-0.51172-0.37109 0.12109 0.14844 0.24219 0.26953 0.085938 0.089844 0.36328 0.44141 0.003906-0.027344 0.078126 0.10156 0.14844 0.20703 0.21484 0.3125 0.070313 0.10547 0.12891 0.21875 0.19141 0.32812 0.039063 0.074219 0.078126 0.15234 0.11328 0.23047-0.12109-0.29688-0.14062-0.33984-0.058594-0.13281 0.09375 0.24219 0.15625 0.49609 0.21094 0.75 0.097656 0.46094-0.046876-0.49219 0-0.019531 0.007812 0.12109 0.007812 0.25781 0.011718 0.39453 0.015625 1.1172 0.92188 2.0508 2.0508 2.0508 1.1055 0 2.0664-0.93359 2.0508-2.0508-0.019531-1.3555-0.39844-2.7188-1.1719-3.8398-0.86328-1.25-1.9961-2.0703-3.3867-2.6445-2.5117-1.043-5.6562-0.14453-7.4414 1.832-1.9844 2.1992-2.3008 5.3398-0.96484 7.9492 1.2227 2.3867 4.0781 3.8867 6.7305 3.5586 1.6992-0.21094 3.2656-0.91797 4.4258-2.207 1.1562-1.2812 1.7812-2.9258 1.8047-4.6484 0.015626-1.1172-0.94531-2.0508-2.0508-2.0508-1.125 0-2.0312 0.92969-2.0469 2.0508z"/>
  <path d="m77.996 66.664c0 0.13672-0.007813 0.26953-0.015625 0.40625-0.03125 0.47656 0.085937-0.48437 0-0.019531-0.046875 0.25781-0.125 0.50391-0.21094 0.75-0.15234 0.43359 0.20312-0.42969 0.003907-0.019531-0.054688 0.11328-0.11719 0.22656-0.18359 0.33594-0.0625 0.10937-0.13672 0.21484-0.20703 0.32031-0.12891 0.17578-0.097656 0.13672 0.089844-0.11328-0.054687 0.066406-0.10938 0.12891-0.16797 0.19141-0.10938 0.12109-0.74609 0.66016-0.24219 0.26953-0.20312 0.15625-0.42188 0.28516-0.64062 0.40625-0.10938 0.0625-0.52734 0.23828 0.027344 0.007813-0.11719 0.050781-0.24219 0.089843-0.36328 0.12891-0.125 0.039063-0.25 0.070313-0.37891 0.10156-0.085937 0.019531-0.17188 0.035156-0.25781 0.050781 0.32812-0.039063 0.37891-0.046875 0.14844-0.023438-0.26953 0.027344-0.53906 0.019531-0.80859 0-0.47656-0.03125 0.48438 0.085938 0.019532 0-0.12891-0.023437-0.25391-0.058593-0.38281-0.089843-0.125-0.03125-0.24609-0.078126-0.36719-0.12109-0.43359-0.15234 0.42969 0.20312 0.019531 0.003906-0.26562-0.12891-0.51562-0.28906-0.75781-0.46484 0.51172 0.37109-0.12109-0.14844-0.24219-0.26953-0.085937-0.089844-0.36328-0.44141-0.003906 0.027344-0.078125-0.10156-0.14844-0.20703-0.21484-0.3125-0.09375-0.14062-0.44531-0.90234-0.19922-0.30469-0.11719-0.28125-0.19531-0.57422-0.25391-0.87109-0.097656-0.46094 0.046875 0.49219 0 0.019531-0.011719-0.13281-0.015625-0.26953-0.015625-0.40625s0.007813-0.26953 0.015625-0.40625c0.03125-0.47656-0.085938 0.48438 0 0.019531 0.046875-0.25781 0.125-0.50391 0.21094-0.75 0.15234-0.43359-0.20313 0.42969-0.003907 0.019531 0.074219-0.15234 0.16016-0.30078 0.25-0.44141 0.066407-0.10938 0.14062-0.21094 0.21484-0.3125-0.34375 0.47266-0.085937 0.125 0.003906 0.027344 0.10938-0.12109 0.74609-0.66016 0.24219-0.26953 0.20312-0.15625 0.42188-0.28516 0.64062-0.40625 0.10938-0.0625 0.52734-0.23828-0.027344-0.007813 0.16016-0.066406 0.32422-0.11719 0.48828-0.16406 0.125-0.035156 0.25391-0.0625 0.38281-0.089843 0.46094-0.097657-0.49219 0.046875-0.019532 0 0.26953-0.027344 0.53906-0.019531 0.80859 0 0.47656 0.03125-0.48438-0.085938-0.019531 0 0.12891 0.023437 0.25391 0.058593 0.38281 0.089843 0.125 0.03125 0.24609 0.078126 0.36719 0.12109 0.20703 0.078125 0.16016 0.058594-0.13281-0.058594 0.078126 0.035157 0.15234 0.074219 0.23047 0.11328 0.22656 0.11719 0.4375 0.25781 0.64062 0.40625-0.51172-0.37109 0.12109 0.14844 0.24219 0.26953 0.085937 0.089844 0.36328 0.44141 0.003906-0.027344 0.078125 0.10156 0.14844 0.20703 0.21484 0.3125 0.070312 0.10547 0.12891 0.21875 0.19141 0.32812 0.039062 0.074219 0.078125 0.15234 0.11328 0.23047-0.12109-0.29688-0.14062-0.33984-0.058593-0.13281 0.09375 0.24219 0.15625 0.49609 0.21094 0.75 0.097656 0.46094-0.046875-0.49219 0-0.019531 0.007813 0.12109 0.007813 0.25781 0.011719 0.39453 0.015625 1.1172 0.92188 2.0508 2.0508 2.0508 1.1055 0 2.0664-0.93359 2.0508-2.0508-0.019531-1.3555-0.39844-2.7188-1.1719-3.8398-0.86328-1.25-1.9961-2.0703-3.3867-2.6445-2.5117-1.043-5.6562-0.14453-7.4414 1.832-1.9844 2.1992-2.3008 5.3398-0.96484 7.9492 1.2227 2.3867 4.0781 3.8867 6.7305 3.5586 1.6992-0.21094 3.2656-0.91797 4.4258-2.207 1.1562-1.2812 1.7812-2.9258 1.8047-4.6484 0.015625-1.1172-0.94531-2.0508-2.0508-2.0508-1.125 0-2.0312 0.92969-2.0469 2.0508z"/>
  <path d="m39.793 67.863h14.266 6.3516c1.1172 0 2.0508-0.93359 2.0508-2.0508s-0.93359-2.0508-2.0508-2.0508h-14.266-6.3516c-1.1172 0-2.0508 0.93359-2.0508 2.0508s0.93359 2.0508 2.0508 2.0508z"/>
  <path d="m70.855 21.246c-0.27344-0.003906-0.54297-0.015625-0.8125-0.042969 0.66016 0.066406-0.20312-0.046875-0.37109-0.085937-0.25391-0.058594-0.50391-0.14063-0.75-0.22656-0.11719-0.042969-0.53906-0.22266 0.007813 0.015625-0.15625-0.066406-0.3125-0.14453-0.46094-0.22656-0.22656-0.11719-0.44531-0.25391-0.65625-0.39453-0.10547-0.070312-0.21094-0.14844-0.3125-0.22266 0.47266 0.34766 0.11328 0.082031 0.019531 0-0.19531-0.16406-0.375-0.34766-0.55078-0.53125-0.085938-0.09375-0.17188-0.1875-0.25391-0.28516-0.13672-0.16797-0.10938-0.12891 0.082031 0.11719-0.050781-0.066406-0.10156-0.13672-0.14844-0.20703-0.14844-0.20703-0.28125-0.42969-0.40625-0.64844-0.078126-0.14062-0.42969-0.92187-0.17969-0.32422-0.21875-0.52734-0.35547-1.082-0.44531-1.6406 0.10547 0.66016 0-0.22656-0.003907-0.39453-0.007812-0.27344 0.007813-0.54297 0.03125-0.81641 0.039063-0.47656-0.078125 0.48438-0.003906 0.015625 0.019531-0.12891 0.046875-0.26172 0.074219-0.39062 0.0625-0.29688 0.15625-0.58984 0.25391-0.87891 0.042969-0.11719 0.22266-0.53906-0.015625 0.007813 0.050781-0.11719 0.10938-0.23438 0.16797-0.34766 0.11328-0.23047 0.24609-0.44922 0.38281-0.66406 0.070313-0.10938 0.14453-0.21094 0.21875-0.31641 0.26562-0.37109-0.29688 0.36328-0.007812 0.011719 0.1875-0.23047 0.39844-0.44141 0.61328-0.64453 0.09375-0.085938 0.1875-0.17188 0.28516-0.25391 0.34766-0.29688-0.37891 0.27734-0.015625 0.007812 0.20703-0.15234 0.42188-0.28906 0.64453-0.41797 0.22266-0.12891 0.45312-0.24219 0.6875-0.35156-0.53906 0.24609-0.12891 0.058594-0.007813 0.015625 0.16406-0.058594 0.32812-0.10938 0.49609-0.16016 0.25391-0.074219 0.51172-0.125 0.77344-0.17188 0.46875-0.082031-0.49219 0.054687-0.015625 0.003906 0.13281-0.015625 0.26953-0.019531 0.40625-0.027344 0.27344-0.011719 0.54688-0.003906 0.81641 0.015625 0.12891 0.007813 0.60156 0.070313-0.011719-0.015625 0.17578 0.023438 0.34766 0.058594 0.51953 0.097657 0.25781 0.054687 0.50781 0.12891 0.75391 0.21094 0.125 0.039063 0.24219 0.089844 0.36328 0.13672-0.55078-0.21484-0.13281-0.050782-0.019532 0.003906 0.23047 0.10938 0.45312 0.23828 0.67188 0.375 0.10938 0.066406 0.21484 0.14062 0.32031 0.21094 0.070312 0.046874 0.13672 0.097656 0.20703 0.14844-0.24609-0.19141-0.28516-0.21875-0.11719-0.082031 0.35937 0.29688 0.68359 0.63672 0.98047 0.99609-0.40625-0.49219 0.10938 0.17187 0.19922 0.3125 0.13672 0.21484 0.25781 0.44141 0.375 0.67187 0.039063 0.078126 0.074219 0.15625 0.10938 0.23438-0.24609-0.53906-0.058594-0.12891-0.015625-0.007813 0.089844 0.24609 0.16016 0.49609 0.22656 0.75 0.042968 0.16406 0.16797 1.0352 0.085937 0.37109 0.03125 0.26953 0.042969 0.54297 0.042969 0.8125 0.011718 1.1172 0.92578 2.0508 2.0508 2.0508 1.1094 0 2.0625-0.93359 2.0508-2.0508-0.023437-2.5938-1.0977-5.1133-3.0156-6.8711-1.9102-1.75-4.5547-2.6914-7.1445-2.4297-2.7891 0.28125-5.0898 1.6719-6.7852 3.875-1.6094 2.0938-2.0234 4.9023-1.5273 7.4414 0.83203 4.2617 4.8711 7.2891 9.125 7.3281 1.1172 0.011719 2.0508-0.94141 2.0508-2.0508 0.011719-1.1367-0.92188-2.0508-2.0391-2.0586z"/>
  <path d="m70.855 25.363c0.27344 0.003907 0.54297 0.015625 0.8125 0.042969-0.66016-0.066406 0.20312 0.046875 0.37109 0.085938 0.25391 0.058593 0.50391 0.14062 0.75 0.22656 0.11719 0.042969 0.53906 0.22266-0.007812-0.015625 0.15625 0.066406 0.30859 0.14453 0.46094 0.22656 0.22656 0.11719 0.44531 0.25391 0.65625 0.39453 0.10547 0.070312 0.21094 0.14844 0.3125 0.22266-0.47266-0.34766-0.11328-0.082031-0.019532 0 0.19531 0.16406 0.375 0.34766 0.55078 0.53125 0.085937 0.09375 0.17187 0.1875 0.25391 0.28516 0.13672 0.16797 0.10938 0.12891-0.082032-0.11719 0.050782 0.066406 0.10156 0.13672 0.14844 0.20703 0.14844 0.20703 0.28125 0.42969 0.40625 0.64844 0.078125 0.14063 0.42969 0.92188 0.17969 0.32422 0.21875 0.52734 0.35547 1.082 0.44531 1.6406-0.10547-0.66016 0 0.22656 0.003906 0.39453 0.007813 0.27344-0.007812 0.54297-0.03125 0.81641-0.039062 0.47656 0.078125-0.48438 0.003906-0.015625-0.019531 0.12891-0.046874 0.26172-0.074218 0.39062-0.0625 0.29688-0.15625 0.58984-0.25391 0.87891-0.042969 0.11719-0.22266 0.53906 0.015624-0.007812-0.050781 0.11719-0.10937 0.23437-0.16797 0.34766-0.11328 0.23047-0.24609 0.44922-0.38281 0.66406-0.070312 0.10938-0.14453 0.21094-0.21875 0.31641-0.26562 0.37109 0.29688-0.36328 0.007813-0.011718-0.1875 0.23047-0.39844 0.44141-0.61328 0.64453-0.09375 0.085937-0.1875 0.17188-0.28516 0.25391-0.34766 0.29688 0.37891-0.27734 0.011719-0.007812-0.20703 0.15234-0.42188 0.28906-0.64062 0.41797-0.22266 0.12891-0.45312 0.24219-0.6875 0.35156 0.53906-0.24609 0.12891-0.058594 0.007812-0.015625-0.16406 0.0625-0.32812 0.10938-0.49609 0.16016-0.25391 0.074219-0.51172 0.125-0.77344 0.17188-0.46875 0.082032 0.49219-0.054687 0.015625-0.003906-0.13281 0.015625-0.26953 0.019531-0.40625 0.027344-0.27344 0.011718-0.54688 0.003906-0.81641-0.015625-0.12891-0.007813-0.60156-0.070313 0.011719 0.015625-0.17578-0.023438-0.34766-0.058594-0.51953-0.097656-0.25781-0.054688-0.50781-0.12891-0.75391-0.21094-0.125-0.039062-0.24219-0.089844-0.36328-0.13672 0.55078 0.21484 0.13281 0.050781 0.019531-0.003906-0.23047-0.10938-0.45312-0.23828-0.67188-0.375-0.10938-0.066406-0.21484-0.14062-0.32031-0.21094-0.070313-0.046876-0.13672-0.097657-0.20703-0.14844 0.24609 0.19141 0.28516 0.21875 0.11719 0.082031-0.35938-0.29688-0.68359-0.63672-0.98047-0.99609 0.40625 0.49219-0.10938-0.17188-0.19922-0.3125-0.13672-0.21484-0.25781-0.44141-0.375-0.67188-0.039062-0.078124-0.074218-0.15625-0.10937-0.23437 0.24609 0.53906 0.058593 0.12891 0.015624 0.007812-0.089843-0.24609-0.16016-0.49609-0.22656-0.75-0.042969-0.16406-0.16797-1.0352-0.085938-0.37109-0.03125-0.26953-0.042968-0.54297-0.042968-0.8125-0.011719-1.1172-0.92578-2.0508-2.0508-2.0508-1.1094 0-2.0625 0.93359-2.0508 2.0508 0.023438 2.5938 1.0977 5.1133 3.0156 6.8711 1.9102 1.75 4.5547 2.6914 7.1445 2.4297 2.7891-0.28516 5.0898-1.6719 6.7852-3.875 1.6094-2.0938 2.0234-4.9023 1.5273-7.4414-0.83203-4.2617-4.8711-7.2891-9.125-7.3281-1.1172-0.011718-2.0508 0.94141-2.0508 2.0508-0.011718 1.1328 0.92188 2.0469 2.0391 2.0586z"/>
  <path d="m68.785 6.3438v10.934 18.355 5.6641c0 1.1172 0.93359 2.0508 2.0508 2.0508 1.1172 0 2.0508-0.93359 2.0508-2.0508v-10.934-18.355-5.6641c0-1.1172-0.93359-2.0508-2.0508-2.0508-1.1172 0-2.0508 0.93359-2.0508 2.0508z"/>
 </g>
</svg>
