<?xml version="1.0" encoding="UTF-8"?>
<svg width="128pt" height="128pt" version="1.1" viewBox="0 0 128 128" xmlns="http://www.w3.org/2000/svg">
 <path d="m63.992 6.7539v0.003906c2.7617 2.0938 5.3594 4.168 7.5938 6.4258l-0.007813 0.003906c-1.8516 0.78516-4.375 1.3516-7.5977 1.3516-3.2109 0-5.7305-0.5625-7.582-1.3438h-0.003907c2.2305-2.2773 4.8281-4.3398 7.5898-6.4453zm-0.007813 19.027c2.4688 0 4.4727 2.0039 4.4727 4.4727 0 2.4727-2.0039 4.4766-4.4766 4.4766-2.4688 0-4.4727-2.0039-4.4727-4.4766s2.0039-4.4727 4.4727-4.4727zm-0.003906-4.6211h-0.003907c-5.0234 0-9.0938 4.0703-9.0938 9.0938 0 5.0234 4.0742 9.0977 9.0977 9.0977 5.0234 0 9.0977-4.0742 9.0977-9.0977 0-5.0234-4.0742-9.0938-9.0977-9.0938zm0 20.207h-0.003907c-1.2734 0-2.3047 1.0352-2.3047 2.3086v16.699c0 1.2773 1.0312 2.3125 2.3086 2.3125 1.2773 0 2.3125-1.0352 2.3125-2.3125v-16.699c0-1.2773-1.0352-2.3086-2.3125-2.3086zm-17.871 6.3594v0.007813c0.51953 2.7461 1.1211 5.5469 1.7461 8.3516l-0.003907 0.003906c-1.5 1.3008-3.1836 3.0312-3.9766 5.9258v0.003906c-0.25 0.90625-0.40625 1.9219-0.49609 3-0.85156-1.6211-1.4922-3.1562-1.8164-4.6133l-0.003906-0.003906c-0.71484-3.2422 0.12109-6.2656 1.4805-8.6992h0.003907c0.85547-1.5312 1.8906-2.7773 3.0625-3.9844zm35.742 0 0.003907 0.003907c1.1758 1.1914 2.2109 2.4414 3.0664 3.9766v0.003907c1.3633 2.4336 2.1992 5.4648 1.4805 8.6875v0.003906c-0.32422 1.457-0.96875 3-1.8203 4.625-0.09375-1.0781-0.24609-2.0938-0.49609-3-0.79297-2.9023-2.4766-4.6367-3.9766-5.9375v-0.003906c0.62891-2.8203 1.2148-5.6094 1.7344-8.3672zm-7.1641-30.898 0.003906 0.003906c1.7656 2.4375 3.0781 5.1836 3.7539 8.4414 1.8477 8.918-0.99219 21.848-4.1992 35.648l-3.0117 0.87109c-0.48828 0.14062-0.91797 0.44141-1.2188 0.85156l-1.875 2.5508h-8.332l-1.875-2.5547c-0.30078-0.41016-0.73047-0.71094-1.2188-0.85156l-3.0117-0.87109c-3.1953-13.793-6.0273-26.715-4.1836-35.633v-0.003906c0.67188-3.2695 1.9922-6.0078 3.7539-8.4609l0.007812 0.003907c3.0859 1.5547 7.043 2.3359 10.699 2.3359 3.6602 0 7.6211-0.78125 10.703-2.3438zm-10.703-15.293h-0.003906c-0.54297 0-1.082 0.19141-1.5078 0.5625l-0.003906 0.003906c-7.2031 5.4531-15.246 11.492-17.473 22.223v0.003906c-1.0664 5.1289-0.76953 11.285 0.1875 17.863-0.039063 0.03125-0.054688 0.046875-0.054688 0.046875-2.043 1.9141-4.3672 4.0742-6.1211 7.2031-1.7461 3.1172-2.9922 7.3164-1.9648 11.949 0.98438 4.4297 4.0664 9.0547 6.7734 13.168 0.43359 0.66016 1.168 1.043 1.9336 1.043 0.22266 0 0.44531-0.03125 0.66797-0.10156 0.97266-0.29297 1.6328-1.1875 1.6406-2.1914v-0.13281c-0.19922-4.1406-0.34375-7.6836 0.27344-9.9336 0.18359-0.66797 0.4375-1.2227 0.75781-1.7227l0.003906 0.003907c0.13672 0.58594 0.27734 1.1719 0.41406 1.7539 0.1875 0.81641 0.80469 1.4648 1.6055 1.6992l3.5586 1.0312 2.1055 2.8711c0.4375 0.59375 1.1289 0.94141 1.8633 0.94141l10.668 0.003907c0.73438 0 1.4258-0.35156 1.8594-0.94531l2.1094-2.8672 3.5586-1.0312c0.80078-0.23438 1.418-0.88281 1.6055-1.6953 0.13672-0.58984 0.27734-1.1797 0.41406-1.7695l0.003906 0.003906c0.32422 0.5 0.58203 1.0547 0.76562 1.7266h0.003906c0.61328 2.25 0.46875 5.793 0.26953 9.9375l-0.003907 0.11328c0 1.0117 0.66406 1.9141 1.6406 2.2109 0.22266 0.070313 0.44922 0.10156 0.67188 0.10156 0.79688 0 1.5586-0.41406 1.9844-1.1211 2.6953-4.0938 5.7461-8.6875 6.7227-13.086h0.003907c1.0312-4.6328-0.21484-8.832-1.9609-11.949-1.75-3.1289-4.0742-5.293-6.1172-7.2031v-0.003906c-0.019532-0.015625-0.0625-0.046875-0.0625-0.046875 0.95703-6.5898 1.2539-12.738 0.19141-17.863v-0.003907c-2.2227-10.73-10.262-16.777-17.457-22.234-0.085938-0.0625-0.125-0.09375-0.125-0.09375-0.41797-0.32422-0.91016-0.46875-1.3945-0.46875zm-7.2891 70.875h-0.003906c-1.2734 0-2.3086 1.0352-2.3086 2.3086v7.5c0 1.2773 1.0352 2.3125 2.3125 2.3125 1.2773 0 2.3125-1.0352 2.3125-2.3125v-7.5c0-1.2773-1.0391-2.3086-2.3125-2.3086zm14.57 0h-0.003906c-1.2734 0-2.3047 1.0352-2.3047 2.3086v7.5c0 1.2773 1.0352 2.3125 2.3086 2.3125 1.2773 0 2.3125-1.0352 2.3125-2.3125v-7.5c0-1.2773-1.0352-2.3086-2.3125-2.3086zm-7.2852 5.9492h-0.003907c-1.2734 0-2.3047 1.0352-2.3047 2.3086v7.5c0 1.2773 1.0312 2.3125 2.3086 2.3125 1.2773 0 2.3125-1.0352 2.3125-2.3125v-7.5c0-1.2734-1.0352-2.3086-2.3125-2.3086zm-37.551 12.375c-9.0469 0-16.383 7.3359-16.383 16.387 0 0.11328 0 0.22656 0.003906 0.33984-2.293 2-3.7383 4.9414-3.7383 8.2227 0 6.0234 4.8828 10.91 10.91 10.91 1.5508 0 3.0312-0.32031 4.3672-0.90234l0.003906-0.003906c0.80859-0.36719 1.3711-1.1758 1.3711-2.1172 0-1.2773-1.0352-2.3125-2.3125-2.3125-0.375 0-0.72656 0.089844-1.0391 0.24609l-0.007812 0.003906c-0.73438 0.29688-1.5391 0.46484-2.3828 0.46484-3.4727 0-6.2891-2.8164-6.2891-6.2891 0-0.77344 0.14062-1.5156 0.39453-2.1992 0.62891-1.6875 1.957-3.0273 3.6406-3.6719 0.69922-0.27344 1.4609-0.41797 2.2539-0.41797 0.28516 0 0.56641 0.015625 0.83984 0.054688h0.003906c0.12891 0.019531 0.24609 0.03125 0.37891 0.03125 1.2773 0 2.3125-1.0352 2.3125-2.3086v-0.003906c0-1.1641-0.86328-2.125-1.9805-2.2891h-0.015625c-0.50391-0.074218-1.0156-0.10938-1.5391-0.10938-0.8125 0-1.6055 0.089844-2.3672 0.25781 0.98828-5.5 5.7969-9.6719 11.578-9.6719 5.1992 0 9.6094 3.375 11.164 8.0508l-0.003906 0.003906c-1.4336 0.80078-2.6953 1.875-3.6875 3.1641l-0.003906 0.003906c-0.14453 0.18359-0.28516 0.375-0.41797 0.57031v0.003906c-0.25391 0.36719-0.40234 0.81641-0.40234 1.3008v0.003906c0 1.2734 1.0312 2.3086 2.3086 2.3086 0.80078 0 1.5078-0.40625 1.9219-1.0234l0.023438-0.035157c0.22266-0.31641 0.46094-0.61328 0.73437-0.89062l0.007813-0.003906c1.2188-1.2695 2.8711-2.1172 4.7305-2.3086 0.25781-0.023437 0.51953-0.039062 0.78125-0.039062 2.4141 0 4.5664 1.1133 5.9688 2.8594v0.003906c0.37109 0.46094 0.69141 0.96875 0.94922 1.5117 0.37891 0.76562 1.168 1.293 2.0781 1.293 0.60547 0 1.1719-0.22656 1.582-0.60937l0.003906-0.003907c0.39062-0.36719 0.75781-0.75391 1.1094-1.1602h0.003906c2.418-2.8047 3.875-6.4609 3.875-10.453 0-2.2852-0.47656-4.4531-1.3398-6.418v-0.003906c-0.31641-0.90234-1.1797-1.5469-2.1875-1.5469-1.2773 0-2.3125 1.0352-2.3125 2.3125v0.003906c0 0.32812 0.070313 0.64062 0.19531 0.92578 0.65625 1.4375 1.0234 3.0391 1.0234 4.7266 0 2.2305-0.64453 4.3164-1.7539 6.0781-2.25-2.5391-5.5352-4.1406-9.1953-4.1406-0.54688 0-1.082 0.035156-1.6016 0.10547h-0.003906c-2.1641-6.5156-8.3086-11.215-15.551-11.215zm75.086 0.003906c-7.2383 0-13.375 4.6992-15.539 11.211-0.51953-0.070313-1.0586-0.10547-1.6055-0.10547-3.6602 0-6.9414 1.6016-9.1914 4.1406-1.1133-1.7617-1.7539-3.8477-1.7539-6.0781 0-1.6836 0.36328-3.2773 1.0156-4.7148l0.007813-0.011718c0.12109-0.29297 0.19141-0.60156 0.19141-0.92578v-0.003906c0-1.2773-1.0352-2.3125-2.3086-2.3125-1.0117 0-1.875 0.64453-2.1914 1.5469v0.007813c-0.85938 1.9609-1.3359 4.1328-1.3359 6.4141 0 3.9922 1.457 7.6484 3.875 10.453 0.35156 0.40625 0.72266 0.79297 1.1094 1.1602l0.003907 0.003907c0.41406 0.38281 0.97656 0.60937 1.5859 0.60937 0.91016 0 1.6992-0.52734 2.0742-1.293 0.25781-0.54297 0.57812-1.0469 0.95312-1.5078v-0.003906c1.4023-1.7461 3.5547-2.8633 5.9648-2.8633 0.26562 0 0.52344 0.015625 0.78125 0.042968h0.003906c1.8555 0.1875 3.5039 1.0391 4.7266 2.3086l0.003907 0.003906c0.24219 0.24219 0.64062 0.76172 0.73047 0.88672l0.039062 0.050781c0.44141 0.58203 1.1172 1.0078 1.9141 1.0078 1.2773 0 2.3125-1.0352 2.3125-2.3086v-0.003906c0-0.48438-0.14844-0.93359-0.40234-1.3047h-0.003907c-0.13281-0.19922-0.27344-0.38672-0.41797-0.57031l-0.003906-0.003906c-0.99219-1.2891-2.2539-2.3594-3.6875-3.1641h-0.003907c1.5586-4.6836 5.9688-8.0547 11.164-8.0547 5.7852 0 10.594 4.1758 11.582 9.6719v0.003906c-0.76562-0.17188-1.5586-0.26172-2.3711-0.26172-0.52344 0-1.0391 0.039063-1.5469 0.10938-1.1211 0.15625-1.9844 1.1211-1.9844 2.2891v0.003906c0 1.2734 1.0352 2.3086 2.3086 2.3086 0.12891 0 0.25781-0.007813 0.37891-0.027344h0.003907c0.27344-0.042969 0.55469-0.058594 0.83984-0.058594 3.4727 0 6.2891 2.8125 6.2891 6.2891 0 3.4727-2.8164 6.2891-6.2891 6.2891-0.84375 0-1.6484-0.16797-2.3828-0.46875h-0.003907c-0.30469-0.15234-0.66797-0.24609-1.043-0.24609-1.2734 0-2.3086 1.0352-2.3086 2.3125 0 0.94531 0.5625 1.7578 1.375 2.1172 1.3359 0.58203 2.8125 0.90625 4.3633 0.90625 6.0273 0 10.914-4.8867 10.914-10.91 0-3.2812-1.4492-6.2148-3.7383-8.2148l-0.003906-0.003906c0.003906-0.11719 0.003906-0.23047 0.003906-0.34375 0-9.0508-7.3398-16.383-16.391-16.383z"/>
</svg>
