<?xml version="1.0" encoding="UTF-8"?>
<svg width="128pt" height="128pt" version="1.1" viewBox="0 0 128 128" xmlns="http://www.w3.org/2000/svg">
 <g>
  <path d="m58.469 97.48h-38.113c-3.5508 0-6.4375-2.8867-6.4375-6.4375l0.003906-69.098c0-0.33984 0.13281-0.66406 0.375-0.90625l13.281-13.281c0.24219-0.24219 0.56641-0.375 0.90625-0.375h44.207c3.543 0 6.4258 2.8867 6.4258 6.4375v45.305c0 0.375-0.16406 0.73047-0.44922 0.97266-0.28516 0.24219-0.66406 0.35156-1.0312 0.28906-6.5508-1.043-13.277 1.1328-17.965 5.8242-7.9453 7.957-8.0703 21.012-0.27734 29.102 0.35547 0.36719 0.45703 0.91797 0.25391 1.3906-0.20313 0.47266-0.66797 0.77734-1.1797 0.77734zm-41.988-75.008v68.57c0 2.1367 1.7383 3.8789 3.8789 3.8789h35.344c-6.8359-9.1172-6.0898-22.262 2.1562-30.52 4.9141-4.9141 11.812-7.3711 18.699-6.7266l-0.003906-43.855c0-2.1367-1.7344-3.8789-3.8672-3.8789h-43.676z"/>
  <path d="m23.328 23.219h-8.125c-0.51562 0-0.98438-0.3125-1.1836-0.78906-0.19922-0.48047-0.089843-1.0273 0.27734-1.3945l13.277-13.277c0.36719-0.36719 0.91406-0.47656 1.3945-0.27734 0.48047 0.19531 0.78906 0.66406 0.78906 1.1836v8.125c0 3.5469-2.8828 6.4297-6.4297 6.4297zm-5.0352-2.5586h5.0352c2.1367 0 3.8711-1.7383 3.8711-3.8711v-5.0352z"/>
  <path d="m35.105 53.5c-3.7031 0-6.7148-3.0117-6.7148-6.7148 0-0.70703 0.57422-1.2812 1.2812-1.2812s1.2812 0.57031 1.2812 1.2812c0 2.293 1.8633 4.1562 4.1562 4.1562s4.1562-1.8633 4.1562-4.1562c0-2.2891-1.8633-4.1523-4.1562-4.1523-3.7031 0-6.7148-3.0117-6.7148-6.7148s3.0117-6.7148 6.7148-6.7148 6.7148 3.0117 6.7148 6.7148c0 0.70703-0.57031 1.2812-1.2812 1.2812-0.70703 0-1.2812-0.57031-1.2812-1.2812 0-2.2891-1.8633-4.1523-4.1562-4.1523s-4.1562 1.8633-4.1562 4.1523c0 2.293 1.8633 4.1562 4.1562 4.1562 3.7031 0 6.7148 3.0117 6.7148 6.7148 0 3.6953-3.0117 6.7109-6.7148 6.7109z"/>
  <path d="m35.105 55.586c-0.61719 0-1.1211-0.5-1.1211-1.1211v-2.2539c0-0.61719 0.5-1.1211 1.1211-1.1211 0.61719 0 1.1211 0.5 1.1211 1.1211v2.2539c0 0.61719-0.50391 1.1211-1.1211 1.1211z"/>
  <path d="m35.105 31.602c-0.61719 0-1.1211-0.5-1.1211-1.1211v-2.2578c0-0.61719 0.5-1.1211 1.1211-1.1211 0.61719 0 1.1211 0.5 1.1211 1.1211v2.2578c0 0.62109-0.50391 1.1211-1.1211 1.1211z"/>
  <path d="m48.086 66.012h-19.605c-0.70703 0-1.2812-0.57031-1.2812-1.2812 0-0.70703 0.57422-1.2812 1.2812-1.2812h19.605c0.70703 0 1.2812 0.57031 1.2812 1.2812-0.003907 0.71094-0.57422 1.2812-1.2812 1.2812z"/>
  <path d="m48.086 73.945h-19.605c-0.70703 0-1.2812-0.57031-1.2812-1.2812 0-0.70703 0.57422-1.2812 1.2812-1.2812h19.605c0.70703 0 1.2812 0.57031 1.2812 1.2812-0.003907 0.71094-0.57422 1.2812-1.2812 1.2812z"/>
  <path d="m39.27 81.879h-10.789c-0.70703 0-1.2812-0.57031-1.2812-1.2812 0-0.70703 0.57422-1.2812 1.2812-1.2812h10.789c0.70703 0 1.2812 0.57031 1.2812 1.2812 0 0.71094-0.57422 1.2812-1.2812 1.2812z"/>
  <path d="m91.711 102.38c-0.32813 0-0.65625-0.125-0.90625-0.375l-3.2305-3.2305c-0.25391-0.25391-0.39062-0.60547-0.375-0.96484 0.019531-0.35938 0.1875-0.69531 0.46094-0.92578 0.46484-0.38281 0.93359-0.8125 1.3945-1.2734 0.47266-0.47266 0.89062-0.93359 1.2812-1.4023 0.23047-0.27734 0.56641-0.44531 0.92578-0.46094 0.36328-0.027344 0.71094 0.11719 0.96484 0.375l3.2305 3.2305c0.5 0.5 0.5 1.3086 0 1.8086l-2.8477 2.8477c-0.24609 0.24609-0.57031 0.37109-0.89844 0.37109zm-1.3633-4.457 1.3633 1.3633 1.0352-1.0352-1.3633-1.3633c-0.16406 0.17578-0.33594 0.34766-0.51172 0.52734-0.17578 0.17578-0.34766 0.34375-0.52344 0.50781z"/>
  <path d="m107.4 120.62c-0.89844 0-1.7969-0.34375-2.4844-1.0273l-14.273-14.273c-1.3672-1.3672-1.3672-3.5977 0-4.9648l3.168-3.168c1.3711-1.3711 3.5977-1.3711 4.9648 0l14.273 14.273c1.3672 1.3672 1.3672 3.5977 0 4.9648l-3.168 3.168c-0.68359 0.68359-1.582 1.0273-2.4805 1.0273zm-11.109-21.906c-0.25391 0-0.49219 0.097656-0.67188 0.27734l-3.168 3.168c-0.17969 0.17969-0.27734 0.41797-0.27734 0.67188s0.097657 0.49219 0.27734 0.67188l14.273 14.273c0.35938 0.35937 0.98438 0.35937 1.3477 0l3.168-3.168c0.17969-0.17969 0.27734-0.41797 0.27734-0.67188s-0.097656-0.49219-0.27734-0.67188l-14.273-14.27c-0.17969-0.17969-0.41797-0.28125-0.67578-0.28125z"/>
  <path d="m74.367 104.23c-5.9766 0-11.953-2.2734-16.5-6.8242-9.1016-9.1016-9.1016-23.906-0.003907-33.008 4.4102-4.4102 10.27-6.8359 16.504-6.8359 6.2344 0 12.098 2.4258 16.508 6.8359 9.0977 9.0977 9.0938 23.906-0.003906 33.008-4.5547 4.5508-10.531 6.8242-16.504 6.8242zm0-44.105c-5.5508 0-10.77 2.1602-14.695 6.0859-8.1016 8.1016-8.0977 21.281 0.003906 29.387 8.1016 8.0977 21.281 8.1016 29.383 0 8.1016-8.1055 8.1055-21.285 0.003906-29.387-3.9258-3.9258-9.1445-6.0859-14.695-6.0859z"/>
  <path d="m74.367 97.379c-4.4023 0-8.5352-1.7109-11.648-4.8242-3.1133-3.1133-4.8242-7.25-4.8281-11.652 0-4.4023 1.7148-8.5352 4.8242-11.648 6.4219-6.4258 16.875-6.4258 23.301 0 6.4219 6.4219 6.4219 16.875-0.003906 23.297-3.1094 3.1133-7.2461 4.8281-11.645 4.8281zm0-30.379c-3.5625 0-7.1289 1.3555-9.8398 4.0703-2.6289 2.625-4.0742 6.1211-4.0742 9.8359 0 3.7188 1.4492 7.2109 4.0781 9.8398s6.1211 4.0742 9.8398 4.0742c3.7148 0 7.207-1.4453 9.8359-4.0742 5.4258-5.4258 5.4258-14.254 0.003907-19.676-2.7188-2.7148-6.2812-4.0703-9.8438-4.0703z"/>
  <path d="m68.129 29.504h-15.82c-0.70703 0-1.2812-0.57031-1.2812-1.2812 0-0.70703 0.57031-1.2812 1.2812-1.2812h15.82c0.70703 0 1.2812 0.57031 1.2812 1.2812-0.003906 0.71094-0.57422 1.2812-1.2812 1.2812z"/>
  <path d="m68.129 38.195h-15.82c-0.70703 0-1.2812-0.57031-1.2812-1.2812 0-0.70703 0.57031-1.2812 1.2812-1.2812h15.82c0.70703 0 1.2812 0.57031 1.2812 1.2812-0.003906 0.70703-0.57422 1.2812-1.2812 1.2812z"/>
  <path d="m59.172 46.887h-6.8672c-0.70703 0-1.2812-0.57031-1.2812-1.2812 0-0.70703 0.57031-1.2812 1.2812-1.2812h6.8672c0.70703 0 1.2812 0.57031 1.2812 1.2812 0 0.70703-0.57422 1.2812-1.2812 1.2812z"/>
 </g>
</svg>
