<?xml version="1.0" encoding="UTF-8"?>
<svg width="100pt" height="100pt" version="1.1" viewBox="0 0 100 100" xmlns="http://www.w3.org/2000/svg">
 <path d="m73.875 21.77h-16.418c-1.0469 0-1.9453 0.75391-2.1211 1.7891l-1.6797 9.7656h-4.7109c-1.0273-5.9141-6.1836-10.43-12.387-10.43-6.9375 0-12.582 5.6445-12.582 12.582 0 6.2031 4.5156 11.359 10.43 12.387v21.621c0 4.8203 3.2539 8.7461 7.2539 8.7461h20.051c4 0 7.2539-3.9219 7.2539-8.7461l-0.003906-34.004c0-1.1875-0.96484-2.1523-2.1523-2.1523h-8.7852l1.2461-7.25h14.605c1.1875 0 2.1523-0.96484 2.1523-2.1523s-0.96484-2.1523-2.1523-2.1523zm-23.898 32.953c-3.3984-0.90625-7.1289-1.6719-11.266-0.75391v-16.336h14.203zm-21.699-19.242c0-4.5625 3.7148-8.2773 8.2773-8.2773 3.8203 0 7.043 2.6016 7.9922 6.125h-7.9922c-1.1875 0-2.1523 0.96484-2.1523 2.1523v7.9922c-3.5234-0.94922-6.125-4.1719-6.125-7.9922zm33.43 38.445h-20.051c-1.5703 0-2.9453-2.0742-2.9453-4.4375v-11.07c3.6797-1.1172 6.9375-0.40625 10.535 0.57031l-0.64062 3.7383c-0.20312 1.1719 0.58594 2.2852 1.7578 2.4883 0.125 0.019531 0.24609 0.03125 0.36719 0.03125 1.0312 0 1.9375-0.74219 2.1211-1.7891l0.57813-3.3633c1.8594 0.43359 3.8125 0.76562 5.8789 0.76562 1.6992 0 3.4805-0.22656 5.3477-0.79297v9.4258c0 2.3633-1.375 4.4375-2.9453 4.4375zm2.9453-36.289v17.863c-3.7969 1.5156-7.1445 1.1484-10.5 0.33984l3.1289-18.203z"/>
</svg>
