<?xml version="1.0" encoding="UTF-8"?>
<svg width="128pt" height="128pt" version="1.1" viewBox="0 0 128 128" xmlns="http://www.w3.org/2000/svg">
 <path d="m74.254 20.824 1.9531 0.62891c0.10938 0.29688 0.23047 0.58594 0.35938 0.87109l-0.93359 1.8203c-0.34766 0.67578-0.21875 1.4961 0.31641 2.0352l2.3867 2.3828c0.53516 0.53516 1.3555 0.66016 2.0273 0.31641l1.8164-0.92969c0.28125 0.12891 0.57031 0.24609 0.86328 0.35547l0.64844 1.9648v-0.003906c0.23828 0.71875 0.90625 1.1992 1.6602 1.1992h3.3594c0.76562 0 1.4414-0.49609 1.6719-1.2227l0.61719-1.9336c0.29297-0.10938 0.57812-0.22656 0.85938-0.35938l1.8477 0.93359c0.67969 0.34375 1.5 0.20703 2.0312-0.33203l2.3633-2.3555c0.54297-0.53516 0.67578-1.3633 0.32813-2.0469l-0.94141-1.832c0.13281-0.28906 0.25391-0.57812 0.36328-0.85938l1.9414-0.63281-0.003907 0.003906c0.71875-0.23828 1.207-0.91016 1.207-1.6641v-3.3594c-0.003906-0.75781-0.48828-1.4258-1.207-1.6641l-1.9414-0.63672c-0.10547-0.28516-0.22656-0.57031-0.36328-0.85938l0.94141-1.8281h0.003907c0.34766-0.67969 0.21484-1.5039-0.32813-2.043l-2.3633-2.3594c-0.53516-0.53906-1.3594-0.67187-2.0391-0.32422l-1.832 0.93359c-0.28516-0.13281-0.57422-0.25391-0.86719-0.36328l-0.62109-1.9336c-0.23047-0.72656-0.90234-1.2227-1.668-1.2227h-3.3594c-0.75391 0-1.4219 0.48047-1.6602 1.1953l-0.64844 1.9688c-0.28516 0.10547-0.57031 0.22266-0.85547 0.35547l-1.8242-0.93359c-0.67188-0.33984-1.4844-0.21484-2.0234 0.3125l-2.3906 2.3867h0.003906c-0.53516 0.53516-0.66016 1.3555-0.31641 2.0312l0.93359 1.8164c-0.13281 0.28516-0.25391 0.57812-0.36328 0.875l-1.9492 0.62891c-0.72266 0.23438-1.2109 0.90625-1.2148 1.6641v3.3555c0 0.75781 0.48828 1.4297 1.2109 1.6641zm2.2891-3.7461 1.6055-0.52344c0.55859-0.17969 0.98828-0.63281 1.1445-1.2031 0.17188-0.64062 0.42578-1.2539 0.75781-1.8281 0.30078-0.51172 0.31641-1.1445 0.046875-1.6758l-0.76562-1.5 0.57031-0.57031 1.4805 0.76172v0.003907c0.51953 0.26562 1.1367 0.25781 1.6484-0.027344 0.58984-0.33203 1.2188-0.58984 1.875-0.77344 0.57031-0.16016 1.0234-0.59375 1.2031-1.1562l0.50391-1.5781h0.80859l0.53906 1.6172c0.1875 0.54688 0.63281 0.96875 1.1914 1.125 0.64062 0.17578 1.2539 0.43359 1.8281 0.76172 0.51172 0.29297 1.1328 0.30859 1.6562 0.046875l1.5117-0.76172 0.57422 0.57422-0.75391 1.4844c-0.26172 0.51953-0.25391 1.1328 0.027344 1.6406 0.33203 0.58594 0.59375 1.2109 0.78125 1.8633 0.15625 0.56641 0.58203 1.0195 1.1406 1.1992l1.5781 0.51562v0.81641l-1.5781 0.51562 0.003906 0.003906c-0.55859 0.18359-0.98828 0.63281-1.1445 1.1992-0.1875 0.65234-0.44922 1.2812-0.78516 1.8711-0.27734 0.50781-0.28516 1.1172-0.023438 1.6328l0.76172 1.4922-0.58203 0.57812-1.4961-0.76172c-0.52734-0.26562-1.1523-0.25391-1.668 0.039063-0.57422 0.33203-1.1875 0.58984-1.8281 0.76562-0.55859 0.15625-1.0039 0.57422-1.1914 1.125l-0.53906 1.6172h-0.80859l-0.50781-1.582c-0.17969-0.5625-0.63281-1-1.1992-1.1562-0.64844-0.17578-1.2734-0.43359-1.8555-0.76562-0.51172-0.29297-1.1406-0.30859-1.6641-0.039063l-1.4805 0.76172-0.57031-0.56641 0.76562-1.5039c0.26953-0.53125 0.25-1.1602-0.050781-1.6719-0.32813-0.57422-0.58594-1.1914-0.75781-1.8281-0.15234-0.57031-0.58594-1.0234-1.1484-1.207l-1.5977-0.51953zm10.492 6.2422v0.003907c2.3594-0.007813 4.4844-1.4336 5.3828-3.6172 0.90234-2.1797 0.39844-4.6914-1.2734-6.3594-1.6719-1.668-4.1797-2.1641-6.3633-1.2617-2.1797 0.90625-3.6016 3.0352-3.6016 5.3945 0 1.5508 0.61719 3.0391 1.7148 4.1328 1.0977 1.0977 2.5859 1.7109 4.1367 1.7109zm0-8.1836v0.003906c0.94531 0.003906 1.793 0.57812 2.1523 1.4531s0.15625 1.8828-0.51562 2.5508c-0.67188 0.66406-1.6758 0.86328-2.5508 0.5s-1.4414-1.2188-1.4414-2.1641c0-0.62109 0.24609-1.2188 0.6875-1.6602 0.44141-0.4375 1.0391-0.68359 1.6641-0.67969zm20.523 59.555-6.4336 0.003906v-25.527c-0.007812-3.6172-2.9375-6.5469-6.5547-6.5508h-6.6797c0-0.050782 0.007813-0.10547 0.007813-0.15625v-0.003907c-0.011719-6.8477-5.5625-12.398-12.414-12.402h-3.8242c-0.22266-5.8164-3.4688-11.094-8.5586-13.918-5.0898-2.8281-11.285-2.793-16.34 0.089843-5.0586 2.8828-8.2422 8.1953-8.4062 14.016-5.9219 1.0625-10.242 6.1992-10.277 12.215 0 0.054688 0 0.10547 0.007813 0.15625l-5.3828 0.003907c-3.6172 0-6.5508 2.9336-6.5547 6.5508v53.137c0.003906 3.6172 2.9375 6.5469 6.5547 6.5508h25.656v6.3672h-5.5117c-2.6016 0-4.707 2.1016-4.7188 4.6992v2.832c0 1.0312 0.83984 1.8711 1.875 1.8711h37.258c0.5 0 0.97656-0.19531 1.3281-0.55078 0.35156-0.35156 0.54688-0.83203 0.54688-1.3281v-2.832c-0.007813-2.5938-2.1133-4.6953-4.707-4.6992h-5.5156v-6.3594h10.789v11.477c-0.003906 2.4336 1.9648 4.4102 4.3984 4.418h23.453c2.4375 0 4.418-1.9766 4.4219-4.418v-41.23c-0.003906-2.4375-1.9844-4.4141-4.4219-4.4141zm-32.172 45.23v0.95312h-33.504v-0.95312c0.011719-0.52344 0.43359-0.94531 0.95703-0.94922h31.59c0.52734-0.003906 0.95312 0.42188 0.95703 0.94922zm-23.277-4.6992v-6.3672h13.051v6.3672zm38.746-36.535h9.9453v1.8867c0.003907 0.125-0.027343 0.24609-0.097656 0.35547l-9.7148 0.027343c-0.09375-0.10547-0.14453-0.24219-0.13281-0.38281zm-50.543-44.879c0.52734-0.011719 1.0234-0.24609 1.3711-0.64453 0.34766-0.39844 0.51172-0.92187 0.44922-1.4453-0.03125-0.33984-0.039062-0.68359-0.03125-1.0234-0.035156-3.4492 1.3086-6.7656 3.7344-9.2148 2.4219-2.4531 5.7266-3.8281 9.1758-3.8281 3.4453 0 6.75 1.375 9.1758 3.8281 2.4258 2.4492 3.7695 5.7656 3.7344 9.2148 0 0.36328-0.023437 0.72266-0.042969 1.0781v0.050781-0.003907c-0.027344 0.51563 0.15625 1.0195 0.51172 1.3945 0.35547 0.37891 0.84766 0.58984 1.3633 0.58984h5.7344c4.7812 0 8.6523 3.875 8.6523 8.6523 0 4.7812-3.8711 8.6523-8.6523 8.6523h-35c-4.7539 0.019531-8.6328-3.8047-8.6797-8.5625-0.050782-4.7539 3.7461-8.6562 8.5039-8.7383zm-17.609 12.559h6.0156c1.6914 5.0664 6.4297 8.4805 11.77 8.4883h7.918v5.3906h-10.797v-2.5625c0-1.0352-0.83984-1.875-1.875-1.875h-8.8789c-1.0352 0-1.875 0.83984-1.875 1.875v8.875c0 1.0391 0.83984 1.875 1.875 1.875h8.8789c1.0352 0 1.875-0.83984 1.875-1.875v-2.5586h12.672c0.49609 0 0.97266-0.19922 1.3242-0.55078 0.35547-0.35156 0.55078-0.82812 0.55078-1.3242v-7.2656h3.7148v11.031l-2.5664 0.003906c-0.49609 0-0.97266 0.19531-1.3242 0.55078-0.35156 0.35156-0.55078 0.82813-0.54688 1.3281v8.8789c0 1.0312 0.83594 1.8711 1.8711 1.8711h8.8789c1.0352 0 1.875-0.83594 1.875-1.8711v-8.8789c0-1.0352-0.83984-1.875-1.875-1.875h-2.5586v-11.039h3.7148v7.2617c-0.003906 0.5 0.19531 0.97656 0.54688 1.3281 0.35156 0.35156 0.82812 0.55078 1.3242 0.55078h12.77v2.5586c0 1.0391 0.83984 1.875 1.875 1.875h8.875c1.0391 0 1.875-0.83984 1.875-1.875v-8.875c0-1.0391-0.83984-1.875-1.875-1.875h-8.875c-1.0352 0-1.875 0.83594-1.875 1.875v2.5586h-10.895v-5.3906h8.3984c5.3398-0.003906 10.078-3.4219 11.77-8.4883h7.3164c1.5469 0 2.8008 1.2539 2.8047 2.8008v25.523h-13.273c-2.4336 0.007812-4.4023 1.9844-4.3984 4.418v17.398h-59.805v-47.336c0.003906-1.5469 1.2578-2.8008 2.8047-2.8008zm11.156 13.191v5.125h-5.1289v-5.1289zm23.875 10.086h2.5742v5.1289l-5.1289-0.003907v-5.125zm23.996-10.09h5.1289v5.125h-5.1289zm-59.027 45.547c-1.5469 0-2.8008-1.25-2.8047-2.7969v-2.0469h59.805v4.8516zm85.273 15.227c-0.007812 0.23047-0.19531 0.41016-0.42187 0.41797h-23.453c-0.22656-0.007813-0.40625-0.19141-0.40234-0.41797v-41.23c-0.003907-0.22656 0.17578-0.41016 0.40234-0.41406h2.7539v1.8906c-0.085938 2.3086 1.707 4.2539 4.0156 4.3516h9.9375c2.3008-0.10547 4.0859-2.0508 3.9922-4.3516v-1.8867h2.7539c0.22656 0.003906 0.41406 0.1875 0.42187 0.41406zm-5.5508-2.9453c0 1.1055-0.89844 2-2 2h-9.1953c-1.082-0.027343-1.9492-0.91406-1.9492-2 0-1.0859 0.86719-1.9727 1.9492-2h9.1953c0.53125 0 1.0391 0.21094 1.4141 0.58594s0.58594 0.88672 0.58594 1.418z"/>
</svg>
