<?xml version="1.0" encoding="UTF-8"?>
<svg width="100pt" height="100pt" version="1.1" viewBox="0 0 100 100" xmlns="http://www.w3.org/2000/svg">
 <g>
  <path d="m18.566 75.855h-9.5586c-1.7227 0-3.125 1.3984-3.125 3.125v13.18c0 0.82812 0.33203 1.6211 0.91797 2.207 0.58594 0.58984 1.3789 0.91797 2.207 0.91797h9.5586c0.82812 0 1.6211-0.32812 2.207-0.91797 0.58984-0.58594 0.91797-1.3789 0.91797-2.207v-13.18c0-0.82812-0.32812-1.625-0.91797-2.2109-0.58594-0.58594-1.3789-0.91406-2.207-0.91406zm-9.5547 16.305v-13.18h9.5547v13.18z"/>
  <path d="m40.305 66.797h-9.5547c-1.7266 0-3.125 1.3984-3.125 3.125v22.238c0 1.7227 1.3984 3.1211 3.125 3.125h9.5547c1.7266-0.003906 3.125-1.4023 3.125-3.125v-22.238c0-0.82812-0.32813-1.625-0.91406-2.2109-0.58594-0.58594-1.3828-0.91406-2.2109-0.91406zm-9.5547 25.363v-22.238h9.5547v22.238z"/>
  <path d="m62.043 54.113h-9.5547c-1.7266 0-3.125 1.4023-3.125 3.125v34.922c0 0.83203 0.32812 1.625 0.91406 2.2109 0.58594 0.58594 1.3828 0.91406 2.2109 0.91406h9.5547c0.83203 0 1.625-0.32812 2.2109-0.91406 0.58594-0.58594 0.91406-1.3789 0.91406-2.2109v-34.922c0-0.82812-0.32812-1.6211-0.91406-2.207-0.58594-0.58594-1.3789-0.91797-2.2109-0.91797zm-9.5547 38.047v-34.922h9.5547v34.922z"/>
  <path d="m93.559 26.852-12.641-15.496c-0.46875-0.57422-1.1719-0.91016-1.9141-0.91016-0.74219 0-1.4453 0.33594-1.9141 0.91016l-12.637 15.496c-0.60156 0.73828-0.72656 1.7578-0.31641 2.6211 0.41016 0.85938 1.2773 1.4062 2.2305 1.4062h4.7383v61.031h-0.003907c0.003907 1.8633 1.5117 3.3711 3.375 3.375h9.0586c1.8633-0.003906 3.3711-1.5117 3.375-3.375v-61.031h4.7383-0.003907c0.95312 0 1.8242-0.54688 2.2305-1.4062 0.41016-0.86328 0.28516-1.8828-0.31641-2.6211zm-8.2109 0.90234c-0.86328 0-1.5625 0.69922-1.5625 1.5625v62.594c0 0.13672-0.11328 0.25-0.25 0.25h-9.0586c-0.13672 0-0.25-0.11328-0.25-0.25v-62.594c0-0.41406-0.16406-0.80859-0.45703-1.1016-0.29297-0.29297-0.69141-0.46094-1.1055-0.46094h-4.9141l11.258-13.801 11.258 13.801z"/>
  <path d="m30.336 4.7148c-6.4648 0-12.664 2.5664-17.234 7.1367-4.5703 4.5703-7.1367 10.77-7.1367 17.234 0 6.4609 2.5664 12.66 7.1367 17.23 4.5703 4.5703 10.77 7.1367 17.234 7.1367 6.4609 0 12.66-2.5664 17.23-7.1367 4.5703-4.5703 7.1367-10.77 7.1367-17.23-0.007813-6.4609-2.5742-12.656-7.1445-17.223-4.5703-4.5703-10.762-7.1406-17.223-7.1484zm0 45.613c-5.6367 0-11.039-2.2344-15.023-6.2188s-6.2227-9.3906-6.2227-15.023c0-5.6328 2.2383-11.039 6.2227-15.023s9.3867-6.2227 15.023-6.2227c5.6328 0 11.035 2.2383 15.02 6.2227s6.2227 9.3867 6.2227 15.023c-0.003906 5.6328-2.2461 11.031-6.2266 15.016-3.9844 3.9805-9.3828 6.2227-15.016 6.2266z"/>
  <path d="m30.336 12.055c-4.5195 0-8.8516 1.793-12.043 4.9883-3.1953 3.1914-4.9883 7.5234-4.9883 12.043 0 4.5156 1.793 8.8477 4.9883 12.043 3.1914 3.1914 7.5234 4.9883 12.043 4.9883 4.5156 0 8.8477-1.7969 12.043-4.9883 3.1914-3.1953 4.9883-7.5273 4.9883-12.043-0.007813-4.5156-1.8008-8.8438-4.9961-12.039-3.1914-3.1914-7.5195-4.9883-12.035-4.9922zm0 30.938c-5.625 0-10.695-3.3906-12.848-8.5859-2.1523-5.1953-0.96484-11.176 3.0117-15.156 3.9805-3.9766 9.9609-5.1641 15.156-3.0117 5.1953 2.1523 8.5859 7.2227 8.5859 12.848-0.011719 7.6758-6.2305 13.898-13.906 13.906z"/>
  <path d="m30.141 23.023h0.38281c1.1719-0.11328 2.2148 0.73047 2.3555 1.8984 0 0.86328 0.69922 1.5625 1.5625 1.5625 0.86328 0 1.5625-0.69922 1.5625-1.5625-0.078125-2.375-1.7812-4.3867-4.1094-4.8594v-0.95312c0-0.86328-0.69922-1.5625-1.5625-1.5625s-1.5625 0.69922-1.5625 1.5625v0.95312c-2.3281 0.47266-4.0273 2.4844-4.1016 4.8594v0.69141c0 2.7695 2.457 5.0234 5.4727 5.0234h0.38281v0.003906c1.1719-0.10938 2.2188 0.73828 2.3555 1.9062v0.70312c-0.14062 1.168-1.1836 2.0078-2.3555 1.8984h-0.38281c-1.168 0.10937-2.2109-0.73438-2.3477-1.8984 0-0.86328-0.69922-1.5625-1.5625-1.5625s-1.5625 0.69922-1.5625 1.5625c0.074219 2.375 1.7734 4.3828 4.1016 4.8594v0.95312c0 0.86328 0.69922 1.5625 1.5625 1.5625s1.5625-0.69922 1.5625-1.5625v-0.95312c2.3281-0.47266 4.0312-2.4844 4.1094-4.8594v-0.70312c0-2.7734-2.457-5.0312-5.4766-5.0312h-0.38672c-1.168 0.10938-2.2109-0.73438-2.3477-1.9023v-0.69141c0.13672-1.1641 1.1797-2.0078 2.3477-1.8984z"/>
 </g>
</svg>
