<?xml version="1.0" encoding="UTF-8"?>
<svg width="1200pt" height="1200pt" version="1.1" viewBox="0 0 1200 1200" xmlns="http://www.w3.org/2000/svg">
 <g>
  <path d="m436.1 656.25h-136.1c-6.6992 0-12.887 3.5742-16.238 9.375-3.3477 5.8008-3.3477 12.949 0 18.75 3.3516 5.8008 9.5391 9.375 16.238 9.375h118.85c4.8672-12.887 10.633-25.418 17.25-37.5z"/>
  <path d="m856.15 693.75h118.85c6.6992 0 12.887-3.5742 16.238-9.375 3.3477-5.8008 3.3477-12.949 0-18.75-3.3516-5.8008-9.5391-9.375-16.238-9.375h-136.1c6.6172 12.082 12.379 24.613 17.246 37.5z"/>
  <path d="m337.5 600c0 4.9727 1.9766 9.7422 5.4922 13.258 3.5156 3.5156 8.2852 5.4922 13.258 5.4922h102.14c1.3164-2.0938 22.07-35.332 23.422-37.5h-125.56c-4.9727 0-9.7422 1.9766-13.258 5.4922-3.5156 3.5156-5.4922 8.2852-5.4922 13.258z"/>
  <path d="m937.5 600c0-4.9727-1.9766-9.7422-5.4922-13.258-3.5156-3.5156-8.2852-5.4922-13.258-5.4922h-125.54c1.3633 2.1523 22.074 35.391 23.398 37.5h102.14c4.9727 0 9.7422-1.9766 13.258-5.4922 3.5156-3.5156 5.4922-8.2852 5.4922-13.258z"/>
  <path d="m636.91 871.88c4.9727 0 9.7422-1.9766 13.258-5.4922 3.5156-3.5156 5.4922-8.2852 5.4922-13.258v-2.7344c2.8242-0.72266 5.5938-1.6562 8.2812-2.7852 10.785-4.0977 19.633-12.105 24.777-22.43 5.1484-10.328 6.2109-22.215 2.9844-33.289-8.0859-25.535-31.172-32.199-48.031-37.059-12.332-3.5625-20.039-6.0977-23.117-11.25v-0.003906c-2.2148-3.4336-2.375-7.8047-0.41797-11.391 3.8672-6.0352 15-7.4414 23.953-5.7578h0.003906c2.7109 0.58594 5.2812 1.7031 7.5547 3.2969 4.1133 2.8047 9.1758 3.8594 14.066 2.9297 4.8906-0.92969 9.2109-3.7656 12.008-7.8867 2.8008-4.1172 3.8438-9.1797 2.9023-14.07-0.9375-4.8867-3.7852-9.2031-7.9102-11.992-5.2227-3.5508-10.98-6.2461-17.055-7.9805v-6.3477c0-6.6992-3.5742-12.887-9.375-16.238-5.8008-3.3477-12.949-3.3477-18.75 0-5.8008 3.3516-9.375 9.5391-9.375 16.238v6.4531c-12.113 3.0703-22.641 10.559-29.516 20.996-4.7812 7.6367-7.3359 16.453-7.3867 25.461-0.046875 9.0117 2.418 17.855 7.1172 25.543 10.859 18.191 29.73 23.648 44.898 28.023 15.5 4.4766 20.953 6.8867 22.672 12.324 1.9258 6.1172-6.8125 9.9805-6.8789 10.016h-0.003906c-7.8789 2.9883-16.676 2.3398-24.031-1.7773-4.3828-2.3594-9.5273-2.8789-14.293-1.4453-4.7656 1.4375-8.7656 4.7109-11.117 9.0977-2.3555 4.3867-2.8633 9.5312-1.4219 14.293 1.4453 4.7656 4.7227 8.7617 9.1172 11.105 3.4766 1.8203 7.1055 3.3359 10.844 4.5312v4.1289c0 4.9727 1.9766 9.7422 5.4922 13.258 3.5156 3.5156 8.2852 5.4922 13.258 5.4922z"/>
  <path d="m346.88 300h581.25c5.0312-0.10938 9.8125-2.2188 13.285-5.8594 3.4727-3.6445 5.3477-8.5234 5.2109-13.555-0.13281-5.0312-2.2695-9.8008-5.9297-13.25l-290.62-262.5c-3.4453-3.1133-7.9258-4.8359-12.566-4.8359s-9.1211 1.7227-12.566 4.8359l-290.62 262.5c-3.6055 3.4727-5.6953 8.2305-5.8125 13.238-0.11719 5.0078 1.75 9.8555 5.1914 13.496 3.4414 3.6367 8.1836 5.7695 13.188 5.9297zm290.62-255.98 241.89 218.48h-483.78z"/>
  <path d="m656.25 178.12h-37.5c-6.6992 0-12.887 3.5742-16.238 9.375-3.3477 5.8008-3.3477 12.949 0 18.75 3.3516 5.8008 9.5391 9.375 16.238 9.375h37.5c6.6992 0 12.887-3.5742 16.238-9.375 3.3477-5.8008 3.3477-12.949 0-18.75-3.3516-5.8008-9.5391-9.375-16.238-9.375z"/>
  <path d="m778.12 337.5h37.5v206.25h-37.5z"/>
  <path d="m853.12 337.5h37.5v206.25h-37.5z"/>
  <path d="m459.38 337.5h37.5v206.25h-37.5z"/>
  <path d="m384.38 337.5h37.5v206.25h-37.5z"/>
  <path d="m717.38 922.3c10.176 1.8047 20.445 3.0156 30.758 3.6289 8.4766 0.47266 16.887 1.8086 25.098 3.9844 18.469-16.035 33.402-35.734 43.852-57.852 10.453-22.113 16.188-46.16 16.848-70.609 4.1484-78.242-21.086-118.32-53.031-169.06-5.043-8.0117-66.539-97.355-75.668-113.17 6.0586-19.859 13.523-39.266 22.34-58.062 3.0664-5.2617 4.6914-11.242 4.7031-17.336 0.011718-6.0938-1.5859-12.078-4.6367-17.355-3.0312-4.5898-7.2227-8.3008-12.148-10.754s-10.414-3.5625-15.906-3.2148h-124.43c-13.258 0.26172-25.461 7.2891-32.344 18.621-7.0547 10.941-7.9297 24.762-2.3047 36.504 4.1211 8.4141 7.168 14.109 10.129 19.629 4.3672 8.1484 8.5273 15.902 16.113 32.738-8.8438 14.711-67.625 104.43-72.68 112.45-31.934 50.73-57.156 90.801-53 169.02h0.003907c0.89844 18.102 4.2852 35.996 10.062 53.176 15.234 2.75 30.227 5.875 44.816 9.5469-10.555-20.004-16.512-42.109-17.434-64.711-3.5234-66.328 16.691-98.438 47.293-147.04 5.1641-8.2031 61.75-94.656 70.375-108.67h80.055c9.2578 15.242 67.77 100.43 72.926 108.62 30.617 48.625 50.84 80.75 47.324 147.11-3.3125 62.668-37.215 102.97-79.117 122.83zm-142.22-472.3 116.22 0.035156c-8.3086 18.27-15.453 37.047-21.395 56.215h-68.293c-8.5508-19.074-23.637-47.23-27.379-54.539 0.21875-0.59766 0.50391-1.1719 0.84766-1.7109z"/>
  <path d="m234.38 862.5h-93.75c-12.426 0.015625-24.344 4.957-33.129 13.746-8.7891 8.7852-13.73 20.703-13.746 33.129v225c0.015625 12.426 4.957 24.344 13.746 33.129 8.7852 8.7891 20.703 13.73 33.129 13.746h93.75c12.426-0.015625 24.344-4.957 33.129-13.746 8.7891-8.7852 13.73-20.703 13.746-33.129v-225c-0.015625-12.426-4.957-24.344-13.746-33.129-8.7852-8.7891-20.703-13.73-33.129-13.746zm9.375 271.88c-0.003906 5.1758-4.1992 9.3711-9.375 9.375h-93.75c-5.1758-0.003906-9.3711-4.1992-9.375-9.375v-225c0.003906-5.1758 4.1992-9.3711 9.375-9.375h93.75c5.1758 0.003906 9.3711 4.1992 9.375 9.375z"/>
  <path d="m206.25 1087.5c0 10.355-8.3945 18.75-18.75 18.75s-18.75-8.3945-18.75-18.75 8.3945-18.75 18.75-18.75 18.75 8.3945 18.75 18.75"/>
  <path d="m1104.8 946.72c-12.246-50.914-84.91-50.289-110.88-48.359-35.246-25.516-99.777-21.277-119.67-18.082v0.003906c-5.1484-3.3828-10.602-6.2734-16.289-8.6367-3.9883 10.957-8.8906 21.559-14.66 31.688-9.1211 16.18-20.406 31.035-33.543 44.164 2.8906 2.2383 5.6484 4.6406 8.2617 7.1953 0 0 79.535-38.953 79.461-39.105 21.172-1.4297 42.43 0.98047 62.746 7.1094l-122.93 60.211c4.668 12.371 6.7305 25.574 6.0664 38.781l175.86-86.141c14.945-7.7148 45.895 6.5742 49.109 19.941 2.4336 10.125-8.5547 22.43-27.363 30.211l-365.41 167.02c-20.344 8.0078-42.266 11.207-64.047 9.3438-12.23-1.0312-24.262-3.7383-35.754-8.0469 0 0-208.94-76.832-209.48-76.977-13.695-3.6016-28.082-3.6719-41.812-0.19922l-5.7344 1.625v38.969l15.418-4.3789c7.1055-1.7227 14.523-1.7227 21.633 0l207.03 76.152v0.003906c19.277 7.0977 39.652 10.75 60.195 10.793 23.121 0.11719 46.043-4.2617 67.492-12.898l365.41-167.01c36.754-15.18 55.941-43.973 48.875-73.371z"/>
  <path d="m318.75 920.93c15.773-2.1172 31.719-2.6484 47.598-1.5742 38.699 2.6406 77.078 8.7773 114.67 18.328 26.285 6.7852 52.977 14.391 78.789 21.742 22.488 6.3984 69.695 19.371 69.695 19.371v0.003906c37.387 11.285 75.848 18.668 114.76 22.027 8.0742 0.42578 25.141 3.6055 24.465 14.629-0.84375 14.027-21.258 27.641-46.477 31.008-47.332 6.3086-107.17 7.8906-192.16-28.023-4.5781-1.9414-9.7461-1.9844-14.359-0.11719-4.6094 1.8672-8.293 5.4922-10.23 10.074-1.9375 4.582-1.9727 9.75-0.10156 14.359 1.875 4.6094 5.5039 8.2852 10.09 10.219 49.391 22.172 102.81 33.945 156.95 34.586 18.324-0.082031 36.621-1.3945 54.77-3.9258 44.508-5.9414 76.973-33.051 78.957-65.926 0.48438-8.75-1.457-17.461-5.6055-25.176-4.1523-7.7109-10.355-14.129-17.926-18.543-11.02-6.6289-23.574-10.285-36.434-10.609-36.309-3.3008-72.191-10.277-107.09-20.828 0 0-46.699-12.836-69.027-19.199-26.031-7.4062-52.953-15.078-79.688-21.98h0.003906c-39.789-10.113-80.406-16.617-121.36-19.43-18.117-1.2031-36.309-0.625-54.312 1.7344 2.668 8.3047 4.0312 16.973 4.0312 25.695z"/>
 </g>
</svg>
