<?xml version="1.0" encoding="UTF-8"?>
<svg width="100pt" height="100pt" version="1.1" viewBox="0 0 100 100" xmlns="http://www.w3.org/2000/svg">
 <path d="m32.875 33.461c0.003906-0.63281 0.51562-1.1445 1.1484-1.1445h10.973c0.3125-0.011718 0.61328 0.10547 0.83594 0.32031 0.22266 0.21875 0.34766 0.51562 0.34766 0.82422 0 0.3125-0.125 0.60937-0.34766 0.82422-0.22266 0.21484-0.52344 0.33203-0.83594 0.32422h-10.973c-0.63281 0-1.1484-0.51562-1.1484-1.1484zm1.1484-4.4531h28.398c0.63281 0 1.1484-0.51562 1.1484-1.1484s-0.51562-1.1484-1.1484-1.1484h-28.398c-0.63281 0-1.1484 0.51562-1.1484 1.1484s0.51562 1.1484 1.1484 1.1484zm0-5.6016h2.9492v-0.003906c0.63281 0 1.1445-0.51172 1.1445-1.1445 0-0.63281-0.51172-1.1484-1.1445-1.1484h-2.9492c-0.63281 0-1.1484 0.51562-1.1484 1.1484 0 0.63281 0.51562 1.1445 1.1484 1.1445zm8.3477 0 20.051-0.003906c0.63281 0 1.1484-0.51172 1.1484-1.1445 0-0.63281-0.51562-1.1484-1.1484-1.1484h-20.047c-0.63672 0-1.1484 0.51562-1.1484 1.1484 0 0.63281 0.51172 1.1445 1.1484 1.1445zm-16.359 15.656c0-0.30078-0.12109-0.59375-0.33594-0.80859-0.21484-0.21484-0.50781-0.33594-0.80859-0.33594h-1.7656c-0.63672 0-1.1484 0.51172-1.1484 1.1445 0 0.63672 0.51172 1.1484 1.1484 1.1484h1.7656c0.63281 0 1.1445-0.51172 1.1445-1.1484zm21.738-1.1484-19.555 0.003907c-0.63672 0-1.1484 0.51172-1.1484 1.1445 0 0.63672 0.51172 1.1484 1.1484 1.1484h19.555c0.63281 0 1.1484-0.51172 1.1484-1.1484 0-0.63281-0.51563-1.1445-1.1484-1.1445zm14.672-5.5977h-12.02c-0.30859-0.011718-0.60938 0.10547-0.83203 0.32422-0.22266 0.21484-0.34766 0.51172-0.34766 0.82031 0 0.3125 0.125 0.60937 0.34766 0.82422 0.22266 0.21875 0.52344 0.33203 0.83203 0.32422h12.02c0.30859 0.007813 0.60938-0.10547 0.83203-0.32422 0.22266-0.21484 0.34766-0.51172 0.34766-0.82422 0-0.30859-0.125-0.60547-0.34766-0.82031-0.22266-0.21875-0.52344-0.33594-0.83203-0.32422zm-39.441 1.457v1.7148c0 0.63281 0.51562 1.1445 1.1484 1.1445 0.63281 0 1.1484-0.51172 1.1484-1.1445v-1.6992c1.9258-0.21875 3.3867-1.8477 3.3867-3.7891v-1.668c0-3.3828-2.7305-3.6523-4.3633-3.8125-1.9922-0.19531-2.293-0.39453-2.293-1.5273v-1.668c0-0.83984 0.67969-1.5195 1.5156-1.5234h1.332c0.83984 0.003907 1.5156 0.68359 1.5156 1.5234v1.668c0 0.63281 0.51172 1.1484 1.1484 1.1484 0.63281 0 1.1445-0.51562 1.1445-1.1484v-1.668c0-1.918-1.4258-3.5391-3.3281-3.7812v-1.6562c-0.019532-0.61719-0.52734-1.1094-1.1445-1.1094-0.62109 0-1.1289 0.49219-1.1484 1.1094v1.6562c-1.9023 0.24219-3.3281 1.8633-3.3281 3.7812v1.668c0 3.3828 2.7383 3.6523 4.3633 3.8086 1.9922 0.19531 2.293 0.39453 2.293 1.5273v1.6719c0 0.83984-0.67578 1.5195-1.5156 1.5234h-1.332c-0.83594-0.003907-1.5156-0.68359-1.5156-1.5234v-1.668c0-0.63281-0.51172-1.1484-1.1445-1.1484-0.63672 0-1.1484 0.51562-1.1484 1.1484v1.668c0.003906 1.8945 1.3906 3.5 3.2656 3.7734zm6.0312 12.48c0 1.1602-0.69531 2.2031-1.7656 2.6445-1.0664 0.44141-2.2969 0.19922-3.1133-0.62109-0.82031-0.81641-1.0625-2.0469-0.62109-3.1133 0.44141-1.0703 1.4844-1.7656 2.6406-1.7656 1.5781 0 2.8594 1.2812 2.8594 2.8555zm-2.293 0c0-0.22656-0.14062-0.43359-0.35156-0.51953-0.21094-0.085937-0.45313-0.039063-0.61328 0.12109-0.16016 0.16406-0.21094 0.40625-0.12109 0.61719 0.085938 0.21094 0.29297 0.34766 0.51953 0.34766 0.3125 0 0.56641-0.25391 0.56641-0.56641zm2.293 7.6172v0.003906c0 1.1562-0.69531 2.1992-1.7656 2.6406-1.0664 0.44141-2.2969 0.19922-3.1172-0.62109-0.81641-0.81641-1.0586-2.0469-0.61719-3.1133 0.44141-1.0703 1.4844-1.7656 2.6406-1.7656 1.5781 0 2.8594 1.2812 2.8594 2.8594zm-2.293 0v0.003906c0-0.23047-0.14062-0.43359-0.35156-0.52344-0.21094-0.085937-0.45313-0.039062-0.61328 0.125-0.16016 0.16016-0.21094 0.40234-0.12109 0.61328 0.085938 0.21094 0.29297 0.34766 0.51953 0.34766 0.3125 0 0.5625-0.25391 0.56641-0.5625zm4.9766 8.7656 30.727 0.003906c0.30859 0.007813 0.60938-0.10938 0.83203-0.32422s0.34766-0.51172 0.34766-0.82422c0-0.30859-0.125-0.60547-0.34766-0.82422-0.22266-0.21484-0.52344-0.33203-0.83203-0.32031h-30.73c-0.30859-0.011718-0.60938 0.10547-0.83203 0.32031-0.22266 0.21875-0.35156 0.51562-0.35156 0.82422 0 0.3125 0.12891 0.60937 0.35156 0.82422s0.52344 0.33203 0.83203 0.32422zm-2.6797-1.1484-0.003906 0.003907c0 1.1562-0.69922 2.1992-1.7656 2.6406-1.0703 0.44141-2.3008 0.19531-3.1172-0.62109-0.81641-0.82031-1.0586-2.0469-0.61719-3.1172 0.44141-1.0664 1.4844-1.7617 2.6406-1.7617 1.582 0 2.8594 1.2812 2.8594 2.8594zm-2.293 0-0.003906 0.003907c0-0.22656-0.14062-0.43359-0.35156-0.51953-0.21094-0.089844-0.45313-0.039062-0.61328 0.12109s-0.21094 0.40625-0.12109 0.61719c0.085938 0.21094 0.29297 0.34766 0.51953 0.34766 0.3125-0.003906 0.56641-0.25391 0.56641-0.56641zm70.992 4.0195-1.0156 3.3359c-0.38672 1.2578-1.5469 2.1211-2.8672 2.125-0.29688 0-0.58984-0.042969-0.87109-0.12891l-7.043-2.1367v3.2188c0 0.23438-0.03125 0.47266-0.085938 0.70312h5.9219c1.6562 0 2.9961 1.3398 2.9961 2.9961v3.4805-0.003906c0 1.6562-1.3398 2.9961-2.9961 3h-1.7891c0.058594 0.23047 0.085937 0.46484 0.085937 0.70312v3.4727c0 0.67187-0.22656 1.3242-0.64062 1.8477 0.41406 0.52734 0.64062 1.1797 0.64062 1.8516v3.4805c0 1.6523-1.3398 2.9922-2.9961 2.9961h-20.691c-4.3008 2.8867-9.8047 3.2969-14.488 1.0742-4.6797-2.2188-7.8438-6.7383-8.332-11.898h-36.922c-2.4609 0-4.457-1.9961-4.4609-4.4609v-67.73c0.003906-2.4609 2-4.457 4.4609-4.4609h3.6445v-3.457c0.003906-2.4648 2-4.4609 4.4609-4.4648h40.859c0.30469 0 0.59766 0.12109 0.8125 0.33594l16.277 16.281c0.21484 0.21484 0.33594 0.50391 0.33594 0.80859v18.488l0.83203 1.7773c0.58594 1.25 0.23828 2.7383-0.83203 3.6016v12.539l22.703 6.8906h-0.003906c1.5859 0.48437 2.4766 2.1562 2 3.7383zm-51.105-13.23 24.816-11.625c0.35156-0.16797 0.5-0.58594 0.33984-0.9375l-1.4727-3.1484c-0.082031-0.16797-0.22266-0.29297-0.39844-0.35547-0.078125-0.027344-0.16016-0.042969-0.24219-0.042969-0.10156 0-0.20312 0.023437-0.29297 0.066406l-24.824 11.621c-0.34766 0.16797-0.49609 0.58203-0.33594 0.93359l1.4727 3.1484v0.003906c0.16797 0.34766 0.58203 0.5 0.93359 0.33594zm9.9375-34.949 12.547 0.003906-12.547-12.547zm-43.984 55.914c0 1.1953 0.96875 2.168 2.1641 2.168h31.707c1.5742-2.0898 3.6719-3.7227 6.082-4.7383v-2.2305c0.003906-1.6523 1.3438-2.9961 3-2.9961h15.203v-1.3594l-3.9805-1.207c-1.5859-0.48438-2.4805-2.1562-2-3.7383l1.0117-3.3281-0.003906-0.003906c0.48438-1.582 2.1562-2.4766 3.7383-2l1.2305 0.37109v-10.66l-19.656 9.207h11.363c0.63281 0 1.1484 0.51563 1.1484 1.1484s-0.51562 1.1484-1.1484 1.1484h-30.73c-0.63281 0-1.1484-0.51563-1.1484-1.1484s0.51562-1.1484 1.1484-1.1484h11.816l-1.3867-2.9648v0.003906c-0.34766-0.74609-0.375-1.5977-0.074219-2.3633h-10.355c-0.63281 0-1.1484-0.51172-1.1484-1.1484 0-0.63281 0.51562-1.1445 1.1484-1.1445h13.105c0.058594 0 0.11328 0.003906 0.16797 0.011719l10.48-4.9102h-4.3672c-0.63281 0-1.1484-0.51563-1.1484-1.1484s0.51562-1.1484 1.1484-1.1484h9.0703c0.054687 0.003907 0.10937 0.007813 0.16797 0.015626l8.0664-3.7812c0.71875-0.33984 1.543-0.37891 2.2891-0.10547l0.042969 0.019531 0.003906-14.438h-15.316c-0.63672 0-1.1484-0.51172-1.1484-1.1484v-15.129h-39.527c-1.1953 0-2.1641 0.96875-2.1641 2.168zm60.449-8.4609v0.66016h2.1836zm-66.391 18.551h36.887c0.12109-1.957 0.63281-3.8711 1.5078-5.625h-30.289c-2.4609-0.003906-4.457-2-4.4609-4.4648v-61.973h-3.6445c-1.1953 0-2.1641 0.96875-2.168 2.1641v67.73c0.003906 1.1992 0.97266 2.168 2.168 2.168zm51.559 13.32c5.0195 0 9.5469-3.0234 11.465-7.6602 1.9219-4.6367 0.85938-9.9766-2.6875-13.523-3.5508-3.5508-8.8867-4.6094-13.523-2.6914-4.6406 1.9219-7.6641 6.4492-7.6602 11.469 0.003906 6.8477 5.5547 12.398 12.406 12.406zm29.578-6.6758c-0.003906-0.38672-0.31641-0.69531-0.70312-0.70312h-15.055c-0.66016 1.8086-1.6719 3.4688-2.9688 4.8867h18.027c0.38672-0.003906 0.69922-0.31641 0.70312-0.70312zm-0.70312-7.8828-14.328 0.003906c0.23828 1.6211 0.20313 3.2734-0.10547 4.8828h14.438c0.38672-0.003907 0.69922-0.31641 0.70312-0.70312v-3.4727c0-0.38672-0.31641-0.70313-0.70312-0.70703zm4.6953-7.1797-22.211 0.003907c1.1875 1.4453 2.0898 3.1016 2.6562 4.8828h19.559c0.38672-0.003906 0.69922-0.31641 0.70312-0.70312v-3.4766c-0.003906-0.38672-0.31641-0.69922-0.70312-0.70312zm-8.3477-6.9805-0.65625-0.19922-27.23 0.003906c-0.38672 0.003907-0.69922 0.31641-0.70312 0.70312v1.4922c4.3125-1.0195 8.8594-0.03125 12.359 2.6914h15.75c0.38672-0.007812 0.69531-0.31641 0.70312-0.70312v-3.4805c0-0.19141-0.082031-0.37109-0.21875-0.50391zm11.641-3.9688-26.223-7.957c-0.066406-0.019531-0.13281-0.027343-0.20312-0.027343-0.11328 0-0.23047 0.027343-0.33203 0.082031-0.16406 0.085938-0.28516 0.23438-0.33984 0.41406l-1.0117 3.3281c-0.10938 0.37109 0.097656 0.76172 0.46875 0.87891l26.227 7.9609c0.37109 0.10938 0.76172-0.10156 0.875-0.46875l1.0117-3.3281c0.10547-0.37109-0.10156-0.76172-0.46875-0.87891zm-35.715 12.992v-1.3359c0-0.63672-0.51562-1.1484-1.1484-1.1484-0.63281 0-1.1484 0.51172-1.1484 1.1484v1.3359c-1.6875 0.27734-2.9219 1.7344-2.9258 3.4453v1.4727c0 3.1016 2.5781 3.3555 3.9648 3.4922 1.7656 0.17187 1.8945 0.32812 1.8945 1.207v1.4688c0 0.66406-0.53516 1.1992-1.1953 1.2031h-1.1758c-0.66016-0.003906-1.1953-0.53906-1.1953-1.2031v-1.4727c0-0.63281-0.51172-1.1484-1.1484-1.1484-0.63281 0-1.1445 0.51562-1.1445 1.1484v1.4688c0 1.6875 1.2109 3.1328 2.875 3.4336v1.3906c0 0.63281 0.51172 1.1484 1.1445 1.1484 0.63672 0 1.1484-0.51562 1.1484-1.1484v-1.3711c1.7148-0.25391 2.9805-1.7227 2.9805-3.4531v-1.4688c0-3.1016-2.5781-3.3555-3.9648-3.4922-1.7656-0.17188-1.8945-0.32812-1.8945-1.207v-1.4727h0.003907c0-0.66406 0.53516-1.1992 1.1953-1.2031h1.1719c0.66016 0.003907 1.1953 0.53906 1.1953 1.2031v1.4727c-0.007813 0.3125 0.10547 0.61328 0.32422 0.83594 0.21484 0.22266 0.51172 0.34766 0.82422 0.34766 0.30859 0 0.60547-0.125 0.82031-0.34766 0.21875-0.22266 0.33594-0.52344 0.32422-0.83594v-1.4727c-0.003906-1.707-1.2422-3.1641-2.9258-3.4414z"/>
</svg>
