<?xml version="1.0" encoding="UTF-8"?>
<svg width="128pt" height="128pt" version="1.1" viewBox="0 0 128 128" xmlns="http://www.w3.org/2000/svg">
 <path d="m64 24c-10.609 0-20.781 4.2148-28.285 11.715-7.5 7.5039-11.715 17.676-11.715 28.285s4.2148 20.781 11.715 28.285c7.5039 7.5 17.676 11.715 28.285 11.715s20.781-4.2148 28.285-11.715c7.5-7.5039 11.715-17.676 11.715-28.285-0.011719-10.605-4.2305-20.773-11.73-28.27-7.4961-7.5-17.664-11.719-28.27-11.73zm0 76c-9.5469 0-18.703-3.793-25.457-10.543-6.75-6.7539-10.543-15.91-10.543-25.457s3.793-18.703 10.543-25.457c6.7539-6.75 15.91-10.543 25.457-10.543s18.703 3.793 25.457 10.543c6.75 6.7539 10.543 15.91 10.543 25.457-0.011719 9.543-3.8086 18.695-10.555 25.445-6.75 6.7461-15.902 10.543-25.445 10.555zm0-70c-9.0156 0-17.664 3.582-24.043 9.957-6.375 6.3789-9.957 15.027-9.957 24.043s3.582 17.664 9.957 24.043c6.3789 6.375 15.027 9.957 24.043 9.957s17.664-3.582 24.043-9.957c6.375-6.3789 9.957-15.027 9.957-24.043-0.011719-9.0156-3.5938-17.656-9.9688-24.031s-15.016-9.957-24.031-9.9688zm0 64c-7.957 0-15.586-3.1602-21.215-8.7852-5.625-5.6289-8.7852-13.258-8.7852-21.215s3.1602-15.586 8.7852-21.215c5.6289-5.625 13.258-8.7852 21.215-8.7852s15.586 3.1602 21.215 8.7852c5.625 5.6289 8.7852 13.258 8.7852 21.215-0.007812 7.9531-3.1719 15.578-8.7969 21.203s-13.25 8.7891-21.203 8.7969zm60.914-67.781c-0.66406-0.34375-1.4688-0.28516-2.0781 0.15234-9.3008 6.6602-14.824 17.395-14.836 28.832v16.797c0 0.53125 0.21094 1.0391 0.58594 1.4141s0.88281 0.58594 1.4141 0.58594h4v22c0 3.3125 2.6875 6 6 6s6-2.6875 6-6v-68c0-0.75-0.41797-1.4375-1.0859-1.7812zm-2.9141 69.781c0 1.1055-0.89453 2-2 2s-2-0.89453-2-2v-22h4zm0-26h-10v-14.797c0.007812-8.7148 3.6289-17.039 10-22.988zm-102-44c-1.1055 0-2 0.89453-2 2v10h-4v-10c0-1.1055-0.89453-2-2-2s-2 0.89453-2 2v10h-4v-10c0-1.1055-0.89453-2-2-2s-2 0.89453-2 2v24c0 0.53125 0.21094 1.0391 0.58594 1.4141l3.4141 3.4141v43.172c0 0.53125 0.21094 1.0391 0.58594 1.4141s0.88281 0.58594 1.4141 0.58594h8c0.53125 0 1.0391-0.21094 1.4141-0.58594s0.58594-0.88281 0.58594-1.4141v-43.172l3.4141-3.4141c0.375-0.375 0.58594-0.88281 0.58594-1.4141v-24c0-0.53125-0.21094-1.0391-0.58594-1.4141s-0.88281-0.58594-1.4141-0.58594zm-2 25.172-3.4141 3.4141c-0.375 0.375-0.58594 0.88281-0.58594 1.4141v42h-4v-42c0-0.53125-0.21094-1.0391-0.58594-1.4141l-3.4141-3.4141v-9.1719h12zm55.613-1.1211c-3.3125-0.38281-6.6172 0.77344-8.9688 3.1328l-0.64453 0.64453-0.64453-0.64453c-2.0977-2.0977-4.957-3.2539-7.9258-3.2031-2.9648 0.050781-5.7852 1.3086-7.8086 3.4766-2.0234 2.1719-3.0742 5.0703-2.918 8.0352 0.15625 2.9648 1.5117 5.7344 3.7539 7.6797l14.23 12.355c0.75391 0.65625 1.8711 0.65625 2.625 0l14.23-12.355c3.2773-2.8438 4.5625-7.3516 3.2773-11.496-1.2852-4.1445-4.8984-7.1328-9.207-7.625zm3.3086 16.102-12.922 11.219-12.922-11.219c-2.0781-1.8047-2.8945-4.6641-2.0781-7.293 0.81641-2.625 3.1055-4.5234 5.8398-4.832 0.26562-0.03125 0.53125-0.046875 0.79688-0.046875 1.8359 0 3.5977 0.73047 4.8906 2.0312l2.0586 2.0586c0.78125 0.78125 2.0469 0.78125 2.8281 0l2.0586-2.0586c1.4961-1.4883 3.5898-2.2188 5.6875-1.9844 2.7344 0.30859 5.0234 2.207 5.8398 4.832 0.81641 2.6289 0 5.4883-2.0781 7.293z"/>
</svg>
