<?xml version="1.0" encoding="UTF-8"?>
<svg width="128pt" height="128pt" version="1.1" viewBox="0 0 128 128" xmlns="http://www.w3.org/2000/svg">
 <g>
  <path d="m65.91 28.574c-3.6016-7.6367-8.2852-12.395-13.094-13.406v28.688c5.8906-0.13672 11.746-0.94531 17.457-2.4102-1.0039-4.4297-2.4648-8.7461-4.3633-12.871z"/>
  <path d="m35.875 97.973c3.6016 7.6367 8.2891 12.395 13.098 13.406v-28.691c-5.8945 0.14062-11.75 0.94922-17.465 2.4102 1.0039 4.4336 2.4648 8.75 4.3672 12.875z"/>
  <path d="m35.875 28.574c-1.9023 4.125-3.3633 8.4414-4.3672 12.871 5.7148 1.4648 11.57 2.2734 17.465 2.4102v-28.688c-4.8125 1.0117-9.4961 5.7734-13.098 13.406z"/>
  <path d="m27.016 44.16c-5.8008-1.7656-11.348-4.2617-16.52-7.4258-4.8516 7.3281-7.5938 15.844-7.9375 24.621h22.738c0.085937-5.7695 0.66016-11.523 1.7188-17.195z"/>
  <path d="m32.402 26.938c1.7539-3.9414 4.1914-7.5391 7.1914-10.641-10.648 2.5703-20.113 8.6719-26.852 17.312 4.7266 2.8633 9.7891 5.1445 15.07 6.7812 1.0586-4.6328 2.5977-9.1406 4.5898-13.453z"/>
  <path d="m27.812 86.156c-5.2812 1.6406-10.344 3.918-15.07 6.7852 6.7383 8.6367 16.203 14.738 26.852 17.309-3-3.0977-5.4375-6.6992-7.1914-10.641-1.9922-4.3125-3.5312-8.8203-4.5898-13.453z"/>
  <path d="m25.297 65.195h-22.738c0.34375 8.7773 3.0859 17.293 7.9375 24.617 5.1719-3.1602 10.723-5.6562 16.523-7.4219-1.0586-5.6719-1.6367-11.426-1.7227-17.195z"/>
  <path d="m73.969 40.391c5.2852-1.6367 10.344-3.9141 15.074-6.7812-6.7383-8.6406-16.203-14.742-26.852-17.312 3 3.0977 5.4336 6.6992 7.1914 10.641 1.9922 4.3125 3.5273 8.8242 4.5859 13.453z"/>
  <path d="m123.52 45.27h-9.8711c-2.3945-0.039062-4.5117 1.5469-5.1484 3.8516l-1.0078 3.4883h-56.598c-0.58984 0-1.1523 0.26953-1.5156 0.73828-0.36328 0.46875-0.49219 1.0781-0.34766 1.6523l7.1133 28.121c0.89844 3.6992 4.2266 6.293 8.0352 6.2539h34.746l4.3164 2.4961v-0.003906c0.66406 0.38672 0.98437 1.1719 0.78516 1.9141-0.19922 0.74219-0.875 1.2539-1.6445 1.2539h-42.316c-1.0586 0-1.918 0.85938-1.918 1.918 0 1.0625 0.85937 1.9219 1.918 1.9219h42.316c2.5078 0 4.707-1.6797 5.3555-4.1016 0.65234-2.4219-0.40625-4.9805-2.5781-6.2344l-3.457-2 10.496-36.352c0.16797-0.66016 0.77734-1.1133 1.457-1.0781h9.8633c1.0625 0 1.9219-0.85938 1.9219-1.918 0-1.0625-0.85938-1.9219-1.9219-1.9219zm-68.285 18.582-1.8711-7.4023h6.5391l1.1719 7.3984zm2.6406 10.441-1.6641-6.5977h5.4844l1.0469 6.5977zm6.3047 11.242c-2.043 0.023438-3.8281-1.3672-4.3125-3.3516l-1.0234-4.0469h4.5l1.1719 7.4023zm-0.38281-29.082h7.8359l0.28516 7.3984h-6.9492zm1.7812 11.242h6.4844l0.25781 6.5977h-5.6953zm2.8281 17.84-1.1719-7.4023 5.2383 0.003907 0.28516 7.4023zm13.516 0h-5.3164l-0.28516-7.4023h5.8867zm0.4375-11.242h-6.1914l-0.25781-6.5977h6.707zm0.40625-10.441h-7l-0.28516-7.4023h7.5781zm7.3594 21.684h-4.3516l0.28906-7.4023h5.2461zm1.7773-11.242h-5.6953l0.25781-6.5977h6.4922zm-5.2969-10.441 0.28906-7.3984h7.8359l-1.1641 7.3984zm11.383 21.684h-3.9727l1.1719-7.4023h4.9414zm3.2422-11.242h-5.4414l1.0469-6.5977h6.2969zm3.0117-10.441h-6.7891l1.1719-7.3984h7.7578z"/>
  <path d="m70.551 99.801c-2.5508 0.003907-4.8477 1.5391-5.8242 3.8984-0.97266 2.3555-0.43359 5.0664 1.3711 6.8672 1.8008 1.8047 4.5117 2.3438 6.8711 1.3672 2.3555-0.97266 3.8906-3.2734 3.8945-5.8203-0.003906-3.4883-2.8281-6.3125-6.3125-6.3125zm0 8.7695c-0.99609 0-1.8945-0.60156-2.2734-1.5234-0.38281-0.92188-0.16797-1.9805 0.53516-2.6836 0.70703-0.70703 1.7656-0.91406 2.6875-0.53125 0.92188 0.37891 1.5195 1.2812 1.5195 2.2773 0 1.3594-1.1055 2.4648-2.4688 2.4609z"/>
  <path d="m71.059 45.207c-5.9648 1.5156-12.086 2.3516-18.242 2.4922v1.0703h18.828c-0.17578-1.2031-0.36719-2.3906-0.58594-3.5625z"/>
  <path d="m75.52 48.77h21.512c-1.3438-4.2578-3.2773-8.3086-5.7422-12.035-5.168 3.1641-10.719 5.6602-16.52 7.4258 0.28516 1.5117 0.53516 3.0508 0.75 4.6094z"/>
  <path d="m29.137 61.355h17.535l-1.3594-5.4102c-0.73047-2.8867 0.85938-5.8516 3.6641-6.8477v-1.3984c-6.1602-0.14062-12.285-0.97656-18.258-2.4922-0.96875 5.332-1.4961 10.73-1.582 16.148z"/>
  <path d="m29.137 65.195c0.085937 5.418 0.61328 10.816 1.582 16.145 5.9727-1.5156 12.098-2.3516 18.254-2.4922v-8.4102l-1.3242-5.2461z"/>
  <path d="m60.066 102.72c-2.7812 0.003906-5.168-1.9805-5.6719-4.7148-0.50781-2.7344 1.0156-5.4414 3.6133-6.4297-2.4062-1.4102-4.2422-3.6172-5.1914-6.2383v26.039c2.9805-0.78516 5.6367-2.4883 7.5977-4.8633 0-0.13672-0.011718-0.27344-0.011718-0.41406 0-1.1523 0.19922-2.3008 0.58594-3.3867z"/>
  <path d="m91.895 100.22c-2.5469 0.003906-4.8438 1.543-5.8164 3.8984-0.97266 2.3555-0.42969 5.0664 1.375 6.8672s4.5156 2.3359 6.8672 1.3594c2.3555-0.97656 3.8906-3.2734 3.8867-5.8242-0.007812-3.4805-2.8281-6.2969-6.3125-6.3008zm0 8.7656c-0.99219-0.003906-1.8867-0.60547-2.2656-1.5234-0.37891-0.92188-0.16406-1.9805 0.53906-2.6797 0.70312-0.70312 1.7617-0.91406 2.6797-0.53125 0.91797 0.37891 1.5195 1.2773 1.5195 2.2695-0.003907 1.3633-1.1094 2.4648-2.4727 2.4648z"/>
 </g>
</svg>
