<?xml version="1.0" encoding="UTF-8"?>
<svg width="100pt" height="100pt" version="1.1" viewBox="0 0 100 100" xmlns="http://www.w3.org/2000/svg">
 <path d="m25.527 59.461v26.727c0 1.8008-1.5 3.6055-3.6055 3.6055h-6.9062c-2.1016 0-3.6055-1.8008-3.6055-3.6055v-14.715c2.1016-0.60156 3.9023-1.5 5.1055-2.7031l9.0078-9.3086zm70.27-44.746-1.8008 15.316c-0.30078 3.6055-4.2031 4.5039-6.6055 2.4023l-3.6055-3.9023-34.535 33.332c-2.1016 1.8008-5.1055 1.8008-7.207 0l-13.512-12.914-15.617 15.617c-2.1016 2.1016-5.1055 2.1016-7.207 0-1.8008-1.5-1.8008-5.1055 0-6.9062l19.219-19.52c2.1016-2.1016 5.1055-2.1016 7.5078 0.30078l13.215 12.914 31.23-30.031-3.3047-3.6055c-2.4023-2.1016-0.90234-6.3047 2.1016-6.3047l15.914-0.90234c2.4023-0.30078 4.5039 1.8008 4.2031 4.2031zm-9.9102 23.125v48.348c0 1.8008-1.5 3.6055-3.6055 3.6055h-7.207c-1.8008 0-3.3047-1.8008-3.3047-3.6055v-38.438l12.012-11.711 2.1016 1.8008zm-20.121 15.316v33.031c0 1.8008-1.8008 3.6055-3.3047 3.6055h-7.5078c-1.8008 0-3.6055-1.8008-3.6055-3.6055v-19.52c1.5-0.90234 12.012-11.41 14.414-13.512zm-20.121 15.617v17.418c0 1.8008-1.5 3.6055-3.3047 3.6055h-7.5078c-1.8008 0-3.3047-1.8008-3.3047-3.6055v-27.328l6.9062 6.6055c1.8008 2.1016 4.5039 3.3047 7.207 3.3047z" fill-rule="evenodd"/>
</svg>
