<?xml version="1.0" encoding="UTF-8"?>
<svg width="128pt" height="128pt" version="1.1" viewBox="0 0 128 128" xmlns="http://www.w3.org/2000/svg">
 <g>
  <path d="m9.0781 92.441c-1.1016 0-2 0.89453-2 2v11.68c0 4.1758 3.3867 7.5586 7.5625 7.5586h20.379c4.1758 0 7.5586-3.3828 7.5586-7.5586v-43.883c0-4.1719-3.3828-7.5586-7.5586-7.5586h-20.379c-4.1758 0-7.5625 3.3867-7.5625 7.5586v14c0 1.1055 0.89844 2 2 2 1.1055 0 2-0.89453 2-2v-14c0-1.9648 1.5977-3.5586 3.5625-3.5586h20.379c0.94531 0 1.8516 0.375 2.5195 1.043 0.66406 0.66797 1.0391 1.5742 1.0391 2.5156v43.883c0 0.94141-0.375 1.8477-1.0391 2.5156-0.66797 0.66797-1.5742 1.043-2.5195 1.043h-20.379c-1.9648 0-3.5625-1.5938-3.5625-3.5586v-11.68c0-0.53125-0.20703-1.0391-0.58203-1.4141s-0.88672-0.58594-1.418-0.58594z"/>
  <path d="m115.24 17.039h-82.918c-4.2422 0-7.6797 3.4375-7.6797 7.6797v22.562c0 1.1016 0.89453 2 2 2s2-0.89844 2-2v-22.562c0-2.0312 1.6484-3.6797 3.6797-3.6797h82.918c2.0352 0 3.6836 1.6484 3.6836 3.6797v17.082c0 1.1055 0.89453 2 2 2 1.1016 0 2-0.89453 2-2v-17.082c0-2.0352-0.8125-3.9883-2.25-5.4297-1.4414-1.4414-3.3945-2.25-5.4336-2.25z"/>
  <path d="m120.92 52.219c-1.1055 0-2 0.89844-2 2v14.762h-70.32c-1.1055 0-2 0.89453-2 2s0.89453 2 2 2h70.32v3.1406c0 0.97656-0.39062 1.9102-1.0781 2.6016-0.69141 0.69141-1.6289 1.0781-2.6055 1.0781h-66.738c-1.1055 0-2 0.89453-2 2s0.89453 2 2 2h32.898l1.6602 9.4609h-18.559l0.42188-2.4219c0.19141-1.1055-0.54688-2.1562-1.6523-2.3516-1.1055-0.19141-2.1562 0.54688-2.3477 1.6523l-0.53906 3.1211h-12.004c-1.1016 0-2 0.89453-2 2 0 1.1016 0.89844 2 2 2h52.68c1.1055 0 2-0.89844 2-2 0-1.1055-0.89453-2-2-2h-14l-1.6797-9.4805h29.859c2.0391 0 3.9922-0.80859 5.4336-2.25 1.4375-1.4414 2.25-3.3945 2.25-5.4297v-22c-0.066406-1.0586-0.94141-1.8828-2-1.8828z"/>
  <path d="m30.82 77.039-9.1211 6.1406-2-3.6406c-0.54297-0.95703-1.7578-1.2969-2.7188-0.75781-0.96094 0.54297-1.3008 1.7578-0.76172 2.7188l2.4219 4.2617c0.45312 0.8125 1.2305 1.3945 2.1406 1.5977 0.25 0.027344 0.50781 0.027344 0.75781 0 0.66797-0.003906 1.3203-0.19922 1.8828-0.55859l9.6992-6.5391c0.44141-0.29688 0.75-0.75391 0.85547-1.2734 0.10547-0.52344 0-1.0664-0.29687-1.5078-0.3125-0.44922-0.79688-0.75-1.3359-0.83203-0.53906-0.082032-1.0898 0.058593-1.5234 0.39062z"/>
  <path d="m62.621 33.602c-0.75391-0.80469-2.0156-0.85156-2.8203-0.10156l-4.1211 3.8203c-1.332 1.1875-1.625 3.1562-0.69922 4.6797 0.74219 1.2031 2.0664 1.9258 3.4805 1.8984h32.617c0.53125 0 1.043-0.21094 1.418-0.58594s0.58203-0.88281 0.58203-1.4141c0-0.52734-0.20703-1.0391-0.58203-1.4141s-0.88672-0.58594-1.418-0.58594h-32.199l3.6406-3.3594c0.42578-0.36328 0.67578-0.88672 0.69531-1.4453 0.019531-0.55859-0.19531-1.1016-0.59375-1.4922z"/>
  <path d="m86.941 59.801c0.75 0.80469 2.0117 0.84766 2.8203 0.097657l4.1211-3.8008-0.003906 0.003906c1.2812-1.1836 1.5742-3.0938 0.69922-4.6016-0.74219-1.2031-2.0625-1.9258-3.4766-1.8984h-32.621c-1.1055 0-2 0.89453-2 2 0 0.52734 0.21094 1.0391 0.58594 1.4141s0.88281 0.58594 1.4141 0.58594h32.199l-3.6406 3.3789c-0.80469 0.75-0.84766 2.0117-0.097656 2.8203z"/>
 </g>
</svg>
