<?xml version="1.0" encoding="UTF-8"?>
<svg width="128pt" height="128pt" version="1.1" viewBox="0 0 128 128" xmlns="http://www.w3.org/2000/svg">
 <path d="m107.18 32.414c-1.0078-0.57031-2.2383-0.55078-3.2266 0.042969l-27.152 16.293v-13.551c0-1.1523-0.61719-2.2188-1.6211-2.7852-1.0039-0.57031-2.2383-0.55469-3.2266 0.042969l-27.152 16.293v-32.75c0-0.84766-0.33594-1.6641-0.9375-2.2617-0.60156-0.60156-1.4141-0.9375-2.2617-0.9375h-19.203c-0.84766 0-1.6602 0.33594-2.2617 0.9375-0.60156 0.59766-0.9375 1.4141-0.9375 2.2617v80c0.007812 7.0664 5.7344 12.793 12.801 12.801h64c7.0664-0.007812 12.793-5.7344 12.801-12.801v-60.801c0-1.1523-0.62109-2.2148-1.6211-2.7852zm-4.7812 63.586c-0.003907 3.5312-2.8672 6.3945-6.3984 6.3984h-64c-3.5312-0.003907-6.3945-2.8672-6.3984-6.3984v-76.801h12.797v35.199c0 1.1562 0.62109 2.2227 1.625 2.7891 1.0039 0.57031 2.2344 0.55078 3.2227-0.042969l27.152-16.293v13.547c0 1.1562 0.62109 2.2227 1.625 2.7891 1.0039 0.57031 2.2344 0.55078 3.2227-0.042969l27.152-16.293zm-70.398-25.602h12.801v12.801h-12.801zm25.602 0h12.801v12.801h-12.801zm38.398 12.801h-12.801v-12.801h12.801z"/>
</svg>
