<?xml version="1.0" encoding="UTF-8"?>
<svg width="128pt" height="128pt" version="1.1" viewBox="0 0 128 128" xmlns="http://www.w3.org/2000/svg">
 <g>
  <path d="m122 58h-40c-1.1055 0-2 0.89453-2 2v62c0 1.1055 0.89453 2 2 2h40c1.1055 0 2-0.89453 2-2v-62c0-1.1055-0.89453-2-2-2zm-28 62v-10h16v10zm26 0h-6v-12c0-1.1055-0.89453-2-2-2h-20c-1.1055 0-2 0.89453-2 2v12h-6v-58h36z"/>
  <path d="m90 82h8c1.1055 0 2-0.89453 2-2v-12c0-1.1055-0.89453-2-2-2h-8c-1.1055 0-2 0.89453-2 2v12c0 1.1055 0.89453 2 2 2zm2-12h4v8h-4z"/>
  <path d="m106 82h8c1.1055 0 2-0.89453 2-2v-12c0-1.1055-0.89453-2-2-2h-8c-1.1055 0-2 0.89453-2 2v12c0 1.1055 0.89453 2 2 2zm2-12h4v8h-4z"/>
  <path d="m90 102h8c1.1055 0 2-0.89453 2-2v-12c0-1.1055-0.89453-2-2-2h-8c-1.1055 0-2 0.89453-2 2v12c0 1.1055 0.89453 2 2 2zm2-12h4v8h-4z"/>
  <path d="m106 102h8c1.1055 0 2-0.89453 2-2v-12c0-1.1055-0.89453-2-2-2h-8c-1.1055 0-2 0.89453-2 2v12c0 1.1055 0.89453 2 2 2zm2-12h4v8h-4z"/>
  <path d="m6 124h68c1.1055 0 2-0.89453 2-2v-8c0-1.1055-0.89453-2-2-2h-30v-76h56v6.3438c-2.3281 0.82422-4 3.0508-4 5.6562 0 3.3086 2.6914 6 6 6s6-2.6914 6-6h-4c0 1.1016-0.89844 2-2 2s-2-0.89844-2-2 0.89844-2 2-2c1.1055 0 2-0.89453 2-2v-8h6v-4h-7.6133l-15-6h14.613v-4h-24.613l-44.645-17.859c-0.83203-0.32812-1.7773-0.074219-2.3203 0.62891l-13.398 17.23h-13.023v4h8v6h-8v4h12v76h-10c-1.1055 0-2 0.89453-2 2v8c0 1.1055 0.89453 2 2 2zm30-98v3.7305l-4.4766-3.7305zm6 6h-2v-3.7305l4.4766 3.7305zm-11.172 68h9.1719v9.1719zm6.3438-36h-9.1719v-9.1719zm0 16h-9.1719v-9.1719zm0 16h-9.1719v-9.1719zm-6.3438-12h9.1719v9.1719zm0-16h9.1719v9.1719zm0-16h9.1719v9.1719zm-2.8281-4v-9.1719l9.1719 9.1719zm39.523-22h4.4766v3.7305zm0.95312 6h-4.4766v-3.7305zm-8.4766-2.2695-4.4766-3.7305h4.4766zm-3.5234 2.2695h-4.4766v-3.7305zm-8.4766-2.2695-4.4766-3.7305h4.4766zm-15.523 2.2695h-4.4766v-3.7305zm-8.4766-2.2695-4.4766-3.7305h4.4766zm4 73.098 9.1719 9.1719h-9.1719zm12-57.656-9.1719-9.1719h9.1719zm51.613-13.172h-15.613v-6h0.61328zm-57.613-10v-13.047l32.613 13.047zm-4-10.172v10.172h-7.9102zm-14 16.441 4.4766 3.7305h-4.4766zm4 7.7305h4v76h-4zm-12 80h64v4h-64z"/>
 </g>
</svg>
