<?xml version="1.0" encoding="UTF-8"?>
<svg width="128pt" height="128pt" version="1.1" viewBox="0 0 128 128" xmlns="http://www.w3.org/2000/svg">
 <g>
  <path d="m91.859 120.32h-52.539c-0.83594 0.25781-1.4062 1.0352-1.4062 1.9102s0.57031 1.6484 1.4062 1.9102h52.539c0.83594-0.26172 1.4062-1.0352 1.4062-1.9102s-0.57031-1.6523-1.4062-1.9102z"/>
  <path d="m30.922 120.32c-0.60938-0.1875-1.2695-0.078124-1.7812 0.30078-0.51172 0.375-0.8125 0.97266-0.8125 1.6094s0.30078 1.2344 0.8125 1.6094c0.51172 0.37891 1.1719 0.48828 1.7812 0.30078h2.1016-0.003907c0.83594-0.26172 1.4062-1.0352 1.4062-1.9102s-0.57031-1.6523-1.4062-1.9102z"/>
  <path d="m100.26 120.32h-2.1016c-0.83594 0.25781-1.4062 1.0352-1.4062 1.9102s0.57031 1.6484 1.4062 1.9102h2.1016c0.60547 0.1875 1.2656 0.078125 1.7773-0.30078 0.51172-0.375 0.8125-0.97266 0.8125-1.6094s-0.30078-1.2344-0.8125-1.6094c-0.51172-0.37891-1.1719-0.48828-1.7773-0.30078z"/>
  <path d="m101.2 3.8594h-74.398c-1.1055 0-2 0.89453-2 2v24h-6.1602c-3.8477 0-6.9688 3.1133-6.9805 6.9609v53.641c0.011719 3.8477 3.1328 6.9609 6.9805 6.9609h37.578c-0.12109 2.5781-1.4219 7.6211-11.461 15.422l0.003907-0.003906c-0.55859 0.54688-0.74609 1.3711-0.48047 2.1094 0.26562 0.73438 0.9375 1.2461 1.7188 1.3125h39.441c0.75781-0.085938 1.4023-0.59375 1.6641-1.3125 0.25781-0.71875 0.085937-1.5195-0.44531-2.0703-9.1211-7.6211-11-12.719-11.379-15.461h34v0.003906c3.8477 0 6.9688-3.1133 6.9805-6.9609v-53.762c-0.011719-3.8477-3.1328-6.9609-6.9805-6.9609h-6.1602v-24c-0.0625-1.0273-0.89453-1.8398-1.9219-1.8789zm-72.48 3.8203h70.562v76.461h-70.562zm-10 25.879h6.2383l0.003907 50.762h-9.4805v-47.621c0.011719-1.7383 1.4219-3.1406 3.1602-3.1406zm62 78.879-29.66 0.003906c7.7031-7.4609 8.9414-12.121 8.9414-15.02h11.379c0.32031 2.7578 1.7812 7.457 9.1602 15.02zm28.641-18.836h-90.719c-1.7383 0-3.1484-1.4023-3.1602-3.1406v-2.3203h97.039v2.3203c-0.011719 1.7383-1.4219 3.1406-3.1602 3.1406zm0-60c1.7383 0 3.1484 1.4023 3.1602 3.1367v47.582h-9.3984v-50.762z"/>
  <path d="m40 59.121h48c0.60547 0.17578 1.2578 0.054687 1.7617-0.32031 0.5-0.37891 0.79688-0.97266 0.79688-1.6016 0-0.62891-0.29688-1.2227-0.79688-1.5977-0.50391-0.37891-1.1562-0.49609-1.7617-0.32031h-48c-0.60547-0.17578-1.2578-0.058594-1.7617 0.32031-0.5 0.375-0.79688 0.96875-0.79688 1.5977 0 0.62891 0.29688 1.2227 0.79688 1.6016 0.50391 0.375 1.1562 0.49609 1.7617 0.32031z"/>
  <path d="m75.398 64h-22.797c-0.83984 0.26172-1.4102 1.0352-1.4102 1.9102s0.57031 1.6484 1.4102 1.9102h22.797c0.83984-0.26172 1.4102-1.0352 1.4102-1.9102s-0.57031-1.6484-1.4102-1.9102z"/>
  <path d="m67.762 72.18h-7.5234c-0.83594 0.26172-1.4062 1.0352-1.4062 1.9102s0.57031 1.6484 1.4062 1.9102h7.5234c0.83594-0.26172 1.4062-1.0352 1.4062-1.9102s-0.57031-1.6484-1.4062-1.9102z"/>
  <path d="m62.16 46.84c3.4297 0 6.7773-1.0703 9.5703-3.0586 2.7969-1.9883 4.9023-4.8008 6.0312-8.043 0.027343-0.87891-0.51953-1.6758-1.3516-1.9609-0.83203-0.28516-1.7539 0.007812-2.2695 0.72266-0.44922 1.3594-1.125 2.6289-2 3.7617-2.4727-2.8828-6.082-4.543-9.8789-4.543-3.8008 0-7.4062 1.6602-9.8828 4.543-4.3164-5.5234-3.3398-13.504 2.1797-17.82 5.5234-4.3203 13.504-3.3438 17.82 2.1797 0.71875 0.51953 1.6914 0.50391 2.3945-0.035156 0.70312-0.53906 0.96484-1.4805 0.64844-2.3047-3.4766-4.5195-9.0352-6.9219-14.707-6.3594-5.6719 0.55859-10.652 4.0078-13.172 9.1211-2.5195 5.1094-2.2266 11.16 0.78125 16 3.0039 4.8438 8.2969 7.7891 13.996 7.7969zm0-9.6797c2.8516 0.023438 5.5508 1.2852 7.3984 3.4609-4.4062 3.1992-10.371 3.1992-14.777 0 1.8359-2.1797 4.5312-3.4414 7.3789-3.4609z"/>
  <path d="m56.68 25.52c-0.058594 3.1797 2.3203 5.8789 5.4805 6.2188 3.1602-0.33984 5.5391-3.0391 5.4805-6.2188 0-3.0273-2.4531-5.4805-5.4805-5.4805s-5.4805 2.4531-5.4805 5.4805zm7.5195 0c0 1.3008-1.0781 2.7812-2 2.7812s-2-1.4805-2-2.7812c0-1.1055 0.89453-2 2-2s2 0.89453 2 2z"/>
  <path d="m72.922 25.379c-0.34766-0.53516-0.92969-0.87891-1.5664-0.91406-0.63672-0.039063-1.2578 0.23047-1.6641 0.72656-0.40625 0.49219-0.55078 1.1484-0.39062 1.7695 0.16016 0.61719 0.60547 1.125 1.1992 1.3594l3.2188 2.6602c0.34766 0.27734 0.77734 0.43359 1.2227 0.44141 0.57031-0.011719 1.1094-0.26953 1.4805-0.70312l5.5781-6.7188c0.53906-0.34375 0.87891-0.92578 0.91406-1.5664 0.039063-0.63672-0.23047-1.2539-0.72266-1.6602-0.49609-0.40625-1.1523-0.55078-1.7734-0.39453-0.61719 0.16016-1.1211 0.60547-1.3594 1.1992l-4.2812 5.1992z"/>
 </g>
</svg>
