<?xml version="1.0" encoding="UTF-8"?>
<svg width="100pt" height="100pt" version="1.1" viewBox="0 0 100 100" xmlns="http://www.w3.org/2000/svg">
 <g>
  <path d="m79.031 74.195h3.2266c0.89063 0 1.6133 0.72266 1.6133 1.6133h3.2266c0-2.668-2.1719-4.8398-4.8398-4.8398v-3.2266h-3.2266v3.2266c-2.668 0-4.8398 2.1719-4.8398 4.8398 0 2.668 2.1719 4.8398 4.8398 4.8398h3.2266c0.89063 0 1.6133 0.72266 1.6133 1.6133s-0.72266 1.6133-1.6133 1.6133h-3.2266c-0.89062 0-1.6133-0.72266-1.6133-1.6133h-3.2266c0 2.668 2.1719 4.8398 4.8398 4.8398v3.2266h3.2266v-3.2266c2.668 0 4.8398-2.1719 4.8398-4.8398s-2.1719-4.8398-4.8398-4.8398h-3.2266c-0.89062 0-1.6133-0.72266-1.6133-1.6133s0.72656-1.6133 1.6133-1.6133z"/>
  <path d="m95.164 68.141-7.8555-8.8398 0.23828-0.71094c0.5625-1.6836 1.7422-3.0469 3.3281-3.8398 2.5781-1.2891 4.4609-3.6328 5.1562-6.4336l0.69141-2.7695c0.13281-0.53516-0.015625-1.1055-0.39844-1.5039-0.37891-0.39844-0.9375-0.57422-1.4844-0.46875l-1.293 0.26562v-39c0-2.668-2.1719-4.8398-4.8398-4.8398h-77.418c-2.668 0-4.8359 2.1719-4.8359 4.8398v46.805c-3.9102 2.9453-6.4531 7.6133-6.4531 12.871 0 5.9531 3.25 11.152 8.0664 13.945v20.594l8.0664-8.0664 8.0664 8.0664-0.003907-20.59c3.918-2.2773 6.8047-6.1445 7.7383-10.723h34.547l-0.35547 0.39844c-3.1172 3.5078-4.8359 8.0234-4.8359 12.719 0 10.555 8.5898 19.141 19.145 19.141h0.42578c10.555 0 19.141-8.5859 19.141-19.141 0-4.6953-1.7148-9.2109-4.8359-12.719zm-2.2578-20.602c-0.47266 1.8828-1.7344 3.4609-3.4727 4.3281-2.3594 1.1758-4.1133 3.2031-4.9453 5.7031l-0.16797 0.49609h-7.3516l-0.16406-0.49219c-0.83203-2.5-2.5898-4.5273-4.9453-5.7031-1.7344-0.86719-3-2.4453-3.4727-4.3281l-0.074219-0.29688 4.9102 0.98047 2.8555 4.2812 2.6836-1.7891-2.4336-3.6523c1.1172-0.86719 2.8125-1.9062 4.3164-1.9062 1.5039 0 3.1992 1.0391 4.3203 1.9023l-2.4336 3.6523 2.6836 1.7891 2.8555-4.2812 4.9102-0.98047zm-76.777 0.84766v-26.75l11.957-11.961h43.824l11.961 11.961v21.023c-0.99609-0.42578-2.0938-0.72656-3.2266-0.72656-2.9609 0-5.7031 2.0312-6.9375 3.0977l-7.2617-1.4531c-0.54297-0.10547-1.1016 0.066406-1.4844 0.46875-0.38281 0.39844-0.53125 0.96875-0.39844 1.5039l0.69141 2.7695c0.69922 2.7969 2.582 5.1406 5.1602 6.4336 1.4102 0.70312 2.4727 1.8789 3.0938 3.3125h-42.605c-2.4961-5.6914-8.1719-9.6797-14.773-9.6797zm0-31.312v-7.3984h7.3984zm67.742 0-7.3984-7.3984h7.3984zm-74.195-12.234c0-0.89062 0.72266-1.6133 1.6133-1.6133h77.418c0.89062 0 1.6133 0.72266 1.6133 1.6133v39.645l-2.7383 0.54688c-0.14062-0.12109-0.30859-0.25781-0.48828-0.40234l0.003906-38.176h-74.195v42.262c-1.1211 0.23047-2.1992 0.58203-3.2266 1.0312zm11.293 86.43-4.8398-4.8398-4.8398 4.8398v-11.367c1.5312 0.48047 3.1562 0.74219 4.8398 0.74219s3.3086-0.26172 4.8398-0.74219zm-4.8398-13.852c-7.1133 0-12.902-5.7891-12.902-12.902s5.7891-12.902 12.902-12.902c7.1133 0 12.902 5.7891 12.902 12.902s-5.7891 12.902-12.902 12.902zm16.129-12.902c0-1.1055-0.11328-2.1836-0.32422-3.2266h40.281l-2.8672 3.2266zm48.602 32.258h-0.42578c-8.7773 0-15.918-7.1406-15.918-15.914 0-3.9023 1.4258-7.6562 4.0195-10.574l7.9961-8.9961h8.2305l7.9961 8.9922c2.5898 2.9219 4.0156 6.6758 4.0156 10.578 0 8.7734-7.1406 15.914-15.914 15.914z"/>
  <path d="m16.129 54.84c-5.3359 0-9.6758 4.3398-9.6758 9.6758s4.3398 9.6758 9.6758 9.6758c5.3359 0 9.6758-4.3398 9.6758-9.6758s-4.3398-9.6758-9.6758-9.6758zm0 16.129c-3.5586 0-6.4531-2.8945-6.4531-6.4531s2.8945-6.4531 6.4531-6.4531 6.4531 2.8945 6.4531 6.4531-2.8945 6.4531-6.4531 6.4531z"/>
  <path d="m74.195 12.902h-48.391v12.902h48.387zm-3.2266 9.6797h-41.938v-6.4531h41.934z"/>
  <path d="m22.582 29.031h12.902v3.2266h-12.902z"/>
  <path d="m38.711 29.031h38.711v3.2266h-38.711z"/>
  <path d="m22.582 35.484h54.84v3.2266h-54.84z"/>
  <path d="m22.582 41.934h9.6758v3.2266h-9.6758z"/>
  <path d="m35.484 41.934h3.2266v3.2266h-3.2266z"/>
  <path d="m41.934 41.934h20.969v3.2266h-20.969z"/>
  <path d="m53.227 51.613h3.2266v3.2266h-3.2266z"/>
  <path d="m33.871 51.613h3.2266v3.2266h-3.2266z"/>
  <path d="m40.324 51.613h3.2266v3.2266h-3.2266z"/>
  <path d="m46.773 51.613h3.2266v3.2266h-3.2266z"/>
 </g>
</svg>
