<svg width="311" height="183" xmlns="http://www.w3.org/2000/svg" xmlns:xlink="http://www.w3.org/1999/xlink"><defs><path id="a" d="M.038.135h1.395v2.633H.038z"/></defs><g fill="none" fill-rule="evenodd"><path d="M283 65.33H8c-2.14 0-4.078.868-5.48 2.27a7.726 7.726 0 00-2.27 5.48v90.918c0 1.335.54 2.543 1.415 3.418a4.817 4.817 0 003.418 1.415H283c2.14 0 4.078-.868 5.48-2.27a7.726 7.726 0 002.27-5.48v-88c0-2.14-.867-4.078-2.27-5.48a7.726 7.726 0 00-5.48-2.27z" stroke="#CED7DE" stroke-width=".5" fill="#FFF" opacity=".4"/><path d="M303 51.33H28c-2.14 0-4.078.868-5.48 2.27a7.726 7.726 0 00-2.27 5.48v116.6c0 1.699.689 3.237 1.802 4.35a6.133 6.133 0 004.35 1.802H303c2.14 0 4.078-.868 5.48-2.27a7.726 7.726 0 002.27-5.48v-115c0-2.14-.867-4.078-2.27-5.48a7.726 7.726 0 00-5.48-2.27z" stroke="#CED7DE" stroke-width=".5" fill="#FFF"/><g transform="translate(41 79.424)"><rect fill="#F9FAFB" width="255" height="42.703" rx="4"/><rect fill="#E8EFF8" x="62.811" y="14.012" width="138.543" height="4.003" rx="2.002"/><rect fill="#E8EFF8" x="62.811" y="26.022" width="38.819" height="4.003" rx="2.002"/></g><g transform="rotate(-6 541.431 -2328.815)"><mask id="b" fill="#fff"><use xlink:href="#a"/></mask><path d="M.334 2.768a.254.254 0 01-.136-.04c-.146-.09-.202-.307-.127-.483C.589 1.043.865.345.868.34c.07-.178.246-.254.396-.17.148.086.21.3.14.478-.003.007-.283.714-.806 1.929-.053.122-.157.192-.264.192" fill="#FFFDF2" mask="url(#b)"/></g><path d="M243.848 53.604a.324.324 0 01-.327-.459 133.55 133.55 0 001.59-3.554.322.322 0 01.425-.169c.164.071.24.262.169.426a139.096 139.096 0 01-1.598 3.571.322.322 0 01-.259.185m-3.486 6.98a.325.325 0 01-.318-.476 135.69 135.69 0 001.789-3.456.32.32 0 01.433-.144c.159.08.223.274.144.434a140.807 140.807 0 01-1.796 3.473.324.324 0 01-.252.168m-45.624 7.23a.326.326 0 01-.097-.005 9.648 9.648 0 00-2.915-.145h-.01c-.27.03-.543.07-.81.124a.324.324 0 01-.125-.636c.29-.057.59-.099.878-.132a10.27 10.27 0 013.108.155.324.324 0 01-.03.64m-10.263 4.093a.324.324 0 01-.288-.52 12.12 12.12 0 012.911-2.714.324.324 0 01.354.542 11.483 11.483 0 00-2.756 2.57.321.321 0 01-.22.122m51.99-4.57a.325.325 0 01-.307-.493 118.692 118.692 0 001.997-3.336.322.322 0 01.44-.118c.155.09.208.288.119.442a116.602 116.602 0 01-2.008 3.355.32.32 0 01-.24.15m-34.974 4.145a.32.32 0 01-.25-.08c-1.006-.908-2.042-1.664-3.079-2.248a.324.324 0 01-.124-.441.323.323 0 01.44-.124 18.065 18.065 0 013.195 2.331.324.324 0 01-.182.562m-19.801 7.592a.324.324 0 01-.357-.35c.11-1.318.411-2.622.897-3.875a.322.322 0 11.602.236 13.221 13.221 0 00-.855 3.694.323.323 0 01-.287.295m50.414-5.275a.323.323 0 01-.294-.514 96.28 96.28 0 002.235-3.177.322.322 0 11.535.362 94.869 94.869 0 01-2.25 3.2.321.321 0 01-.226.13m-25.657 3.663a.323.323 0 01-.304-.145 35.73 35.73 0 00-2.265-3.124.323.323 0 11.5-.41c.783.959 1.558 2.03 2.305 3.18a.325.325 0 01-.236.5m20.752 2.385a.324.324 0 01-.273-.54 74.403 74.403 0 002.516-2.95.322.322 0 01.454-.048c.138.113.16.317.047.456a74.557 74.557 0 01-2.538 2.977.321.321 0 01-.206.105m-43.744 6.683a.322.322 0 01-.308-.15 12.14 12.14 0 01-1.53-3.682.324.324 0 01.24-.39c.18-.04.349.068.39.242a11.49 11.49 0 001.447 3.486.325.325 0 01-.24.494m26.04-1.945a.323.323 0 01-.348-.25 22.2 22.2 0 00-1.159-3.658.324.324 0 01.172-.424.321.321 0 01.423.172 22.939 22.939 0 011.194 3.766.324.324 0 01-.281.394m12.145.71a.324.324 0 01-.243-.569c.95-.81 1.91-1.69 2.851-2.615a.32.32 0 01.456.004.324.324 0 01-.004.458 55.983 55.983 0 01-2.885 2.647.322.322 0 01-.175.075m-32.393 6.283a.324.324 0 01-.176-.032 16.142 16.142 0 01-3.316-2.164.323.323 0 11.419-.493 15.465 15.465 0 003.182 2.077.324.324 0 01-.11.612m26.074-1.763a.323.323 0 01-.196-.602 39.796 39.796 0 003.234-2.1.324.324 0 01.376.527 40.64 40.64 0 01-3.286 2.134.322.322 0 01-.128.041m-18.64 3.932a.328.328 0 01-.08-.002 28.802 28.802 0 01-3.845-.797.323.323 0 01.174-.623c1.169.33 2.434.593 3.76.779a.324.324 0 01-.01.643m11.534-.836a.323.323 0 01-.124-.633 29.458 29.458 0 001.86-.615 40.306 40.306 0 00-.191-3.52.322.322 0 11.642-.064c.108 1.065.17 2.186.19 3.34.37-.145.739-.299 1.105-.46a.324.324 0 01.259.593c-.457.201-.917.39-1.378.568a.324.324 0 01-.454.17 30.02 30.02 0 01-1.852.61.27.27 0 01-.057.011m-4.872.97c-.934.098-1.883.147-2.822.147a.323.323 0 01-.323-.324c0-.178.14-.326.323-.323 1.273 0 2.556-.094 3.826-.28.166-.036.34.097.366.274a.323.323 0 01-.272.367c-.365.053-.734.1-1.098.139m6.431 6.222a.324.324 0 01-.354-.365c.177-1.313.31-2.611.4-3.86a.32.32 0 01.345-.3.324.324 0 01.299.346 62.917 62.917 0 01-.404 3.9.323.323 0 01-.286.28m-1.437 7.665a.324.324 0 01-.348-.397c.304-1.28.577-2.559.81-3.8a.322.322 0 01.378-.259c.175.034.29.204.257.38a84.126 84.126 0 01-.817 3.83.323.323 0 01-.28.246m-2.105 7.51a.325.325 0 01-.34-.422c.401-1.25.78-2.503 1.122-3.723a.322.322 0 11.621.177 102.986 102.986 0 01-1.13 3.745.322.322 0 01-.273.222m-2.642 7.338a.324.324 0 01-.334-.442c.483-1.213.947-2.437 1.38-3.637a.322.322 0 01.412-.194.325.325 0 01.194.414 122.916 122.916 0 01-1.385 3.657.323.323 0 01-.267.202m-3.096 7.155a.324.324 0 01-.326-.46c.553-1.182 1.09-2.374 1.598-3.546a.323.323 0 01.592.259 133.342 133.342 0 01-1.605 3.563.322.322 0 01-.259.184m-3.495 6.966a.324.324 0 01-.318-.476 148.196 148.196 0 001.791-3.451.323.323 0 01.576.292 146.372 146.372 0 01-1.798 3.467.323.323 0 01-.25.168m-3.857 6.774a.325.325 0 01-.31-.49c.667-1.106 1.33-2.235 1.967-3.355a.322.322 0 01.44-.12.326.326 0 01.121.442 153.508 153.508 0 01-1.976 3.369.323.323 0 01-.242.154m-4.189 6.57a.325.325 0 01-.302-.503 157.835 157.835 0 002.13-3.253.323.323 0 11.545.349 163.529 163.529 0 01-2.139 3.265.319.319 0 01-.234.142" fill="#DBDBDB"/><path fill="#46D4C6" d="M253.302.531l-22.995 39.197 11.859-4.725z"/><path fill="#45B5AA" d="M242.166 35.003l6.456 8.246-.591-8.196L253.302.531z"/><path fill="#3A978E" d="M248.622 43.249l3.882-7.474-4.473-.722z"/><path fill="#46D4C6" d="M248.03 35.053l14.181 4.457L253.302.53z"/><g fill-rule="nonzero"><rect width="90" height="24" rx="4" fill="#2E9C8E" transform="translate(120 137.08)"/><path stroke="#FFF" stroke-width="4" fill="#FFF" d="M176.845 166.981l2.317 5.592-5.501 2.292-2.492-5.885-4.169 4.118v-22.06l15.775 15.943z"/><path stroke="#000" fill="#000" d="M174.252 165.274l2.53 5.985-2.425 1.01-2.644-6.25-3.042 2.98v-13.843l9.988 10.118z"/></g></g></svg>