<svg width="256" height="153" xmlns="http://www.w3.org/2000/svg" xmlns:xlink="http://www.w3.org/1999/xlink"><defs><path d="M4.35 11.3c.62 0 1.134-.141 1.542-.423.408-.282.704-.705.888-1.269l-.954-.252c-.136.36-.325.613-.567.759-.242.146-.567.219-.975.219H2.196a3.13 3.13 0 00.288-.36c.104-.148.194-.338.27-.57.076-.232.122-.52.138-.864.02-.216.024-.428.012-.636a7.88 7.88 0 00-.084-.738h1.842v-.708H2.724a8.338 8.338 0 01-.201-.888 4.756 4.756 0 01-.075-.78c0-.284.063-.525.189-.723a1.25 1.25 0 01.51-.456c.214-.106.453-.159.717-.159.344 0 .617.068.819.204.202.136.371.342.507.618l.984-.348a2.05 2.05 0 00-.534-.729 2.7 2.7 0 00-.852-.507 2.996 2.996 0 00-1.068-.186c-.38 0-.738.067-1.074.201-.336.134-.624.33-.864.588-.24.258-.409.569-.507.933-.098.364-.101.78-.009 1.248l.18.99H.366v.708h1.212c.052.348.088.639.108.873.02.234.03.453.03.657 0 .572-.105.989-.315 1.251-.21.262-.467.393-.771.393H.18v.954h4.17zm6.96.132c.636 0 1.19-.123 1.662-.369a2.676 2.676 0 001.098-1.035c.26-.444.39-.966.39-1.566 0-.616-.134-1.133-.402-1.551a2.578 2.578 0 00-1.065-.948 3.28 3.28 0 00-1.449-.321 3.5 3.5 0 00-1.113.171 2.578 2.578 0 00-.945.573l.222-2.802h4.2l.03-.96H8.76l-.39 4.512.936.294a.31.31 0 00.06.021c.012.002.03-.003.054-.015.22-.244.43-.426.63-.546.2-.12.402-.201.606-.243.204-.042.424-.063.66-.063.36 0 .689.08.987.24.298.16.535.383.711.669.176.286.264.621.264 1.005 0 .616-.187 1.103-.561 1.461-.374.358-.869.537-1.485.537-.38 0-.72-.072-1.02-.216a2.341 2.341 0 01-.777-.6 3.53 3.53 0 01-.543-.876l-.96.402c.152.436.391.822.717 1.158.326.336.717.598 1.173.786.456.188.952.282 1.488.282zM21.6 11.3v-.984h-4.578v-.174c0-.332.082-.618.246-.858.164-.24.38-.453.648-.639s.564-.364.888-.534c.324-.17.646-.347.966-.531.32-.184.615-.393.885-.627.27-.234.487-.511.651-.831.164-.32.246-.704.246-1.152 0-.492-.117-.923-.351-1.293a2.346 2.346 0 00-.993-.864c-.428-.206-.932-.309-1.512-.309-.668 0-1.23.124-1.686.372a2.578 2.578 0 00-1.038.993c-.236.414-.36.871-.372 1.371h1.104c.044-.532.238-.958.582-1.278.344-.32.8-.48 1.368-.48.528 0 .947.138 1.257.414.31.276.465.634.465 1.074 0 .336-.083.627-.249.873a2.604 2.604 0 01-.657.66c-.272.194-.571.38-.897.558-.326.178-.652.363-.978.555a5.806 5.806 0 00-.9.651 2.868 2.868 0 00-.66.849c-.166.324-.249.708-.249 1.152V11.3H21.6zm4.26.132c.952 0 1.706-.375 2.262-1.125s.834-1.859.834-3.327c0-1.476-.279-2.591-.837-3.345-.558-.754-1.307-1.131-2.247-1.131-.628 0-1.174.168-1.638.504-.464.336-.824.838-1.08 1.506-.256.668-.384 1.496-.384 2.484 0 1.464.278 2.569.834 3.315.556.746 1.308 1.119 2.256 1.119zm.012-.96c-.62 0-1.094-.274-1.422-.822-.328-.548-.492-1.436-.492-2.664 0-1.248.165-2.151.495-2.709.33-.558.801-.837 1.413-.837.616 0 1.085.277 1.407.831.322.554.483 1.459.483 2.715 0 1.232-.159 2.121-.477 2.667-.318.546-.787.819-1.407.819zm5.646.828V9.884h-1.32V11.3h1.32zm4.392.132c.952 0 1.706-.375 2.262-1.125s.834-1.859.834-3.327c0-1.476-.279-2.591-.837-3.345-.558-.754-1.307-1.131-2.247-1.131-.628 0-1.174.168-1.638.504-.464.336-.824.838-1.08 1.506-.256.668-.384 1.496-.384 2.484 0 1.464.278 2.569.834 3.315.556.746 1.308 1.119 2.256 1.119zm.012-.96c-.62 0-1.094-.274-1.422-.822-.328-.548-.492-1.436-.492-2.664 0-1.248.165-2.151.495-2.709.33-.558.801-.837 1.413-.837.616 0 1.085.277 1.407.831.322.554.483 1.459.483 2.715 0 1.232-.159 2.121-.477 2.667-.318.546-.787.819-1.407.819zm7.254.96c.952 0 1.706-.375 2.262-1.125s.834-1.859.834-3.327c0-1.476-.279-2.591-.837-3.345-.558-.754-1.307-1.131-2.247-1.131-.628 0-1.174.168-1.638.504-.464.336-.824.838-1.08 1.506-.256.668-.384 1.496-.384 2.484 0 1.464.278 2.569.834 3.315.556.746 1.308 1.119 2.256 1.119zm.012-.96c-.62 0-1.094-.274-1.422-.822-.328-.548-.492-1.436-.492-2.664 0-1.248.165-2.151.495-2.709.33-.558.801-.837 1.413-.837.616 0 1.085.277 1.407.831.322.554.483 1.459.483 2.715 0 1.232-.159 2.121-.477 2.667-.318.546-.787.819-1.407.819z" id="a"/><path d="M4.514 11.976c.62 0 1.134-.14 1.542-.423.408-.282.704-.705.888-1.269l-.954-.252c-.136.36-.325.613-.567.76-.242.145-.567.218-.975.218H2.36a3.13 3.13 0 00.288-.36c.104-.148.194-.338.27-.57.076-.232.122-.52.138-.864.02-.216.024-.428.012-.636a7.88 7.88 0 00-.084-.738h1.842v-.708H2.888a8.338 8.338 0 01-.2-.888 4.756 4.756 0 01-.076-.78c0-.284.063-.525.19-.723a1.25 1.25 0 01.51-.456c.213-.106.452-.159.716-.159.344 0 .617.068.82.204.201.136.37.342.506.618l.984-.348a2.05 2.05 0 00-.534-.729 2.7 2.7 0 00-.852-.507 2.996 2.996 0 00-1.068-.186c-.38 0-.738.067-1.074.201-.336.134-.624.33-.864.588-.24.258-.409.57-.507.933-.098.364-.1.78-.009 1.248l.18.99H.53v.708h1.212c.052.348.088.64.108.873.02.234.03.453.03.657 0 .572-.105.99-.315 1.251-.21.262-.467.393-.77.393h-.45v.954h4.17zm9.564 0v-.984H9.5v-.174c0-.332.082-.618.246-.858.164-.24.38-.453.648-.639s.564-.364.888-.534c.324-.17.646-.347.966-.53a5.71 5.71 0 00.885-.628c.27-.234.487-.51.651-.83.164-.32.246-.705.246-1.153 0-.492-.117-.923-.35-1.293a2.346 2.346 0 00-.994-.864c-.428-.206-.932-.309-1.512-.309-.668 0-1.23.124-1.686.372a2.578 2.578 0 00-1.038.993c-.236.414-.36.871-.372 1.371h1.104c.044-.532.238-.958.582-1.278.344-.32.8-.48 1.368-.48.528 0 .947.138 1.257.414.31.276.465.634.465 1.074 0 .336-.083.627-.249.873a2.604 2.604 0 01-.657.66c-.272.194-.57.38-.897.558-.326.178-.652.363-.978.555a5.806 5.806 0 00-.9.651 2.868 2.868 0 00-.66.85c-.166.323-.249.707-.249 1.151v1.032h5.814zm7.152 0v-.984h-4.578v-.174c0-.332.082-.618.246-.858.164-.24.38-.453.648-.639s.564-.364.888-.534c.324-.17.646-.347.966-.53a5.71 5.71 0 00.885-.628c.27-.234.487-.51.651-.83.164-.32.246-.705.246-1.153 0-.492-.117-.923-.35-1.293a2.346 2.346 0 00-.994-.864c-.428-.206-.932-.309-1.512-.309-.668 0-1.23.124-1.686.372a2.578 2.578 0 00-1.038.993c-.236.414-.36.871-.372 1.371h1.104c.044-.532.238-.958.582-1.278.344-.32.8-.48 1.368-.48.528 0 .947.138 1.257.414.31.276.465.634.465 1.074 0 .336-.083.627-.249.873a2.604 2.604 0 01-.657.66c-.272.194-.57.38-.897.558-.326.178-.652.363-.978.555a5.806 5.806 0 00-.9.651 2.868 2.868 0 00-.66.85c-.166.323-.249.707-.249 1.151v1.032h5.814zm4.236.132c.48.004.924-.05 1.332-.165.408-.114.762-.28 1.062-.498.3-.218.533-.484.7-.798.165-.314.248-.669.248-1.065 0-.376-.078-.709-.234-.999a2.122 2.122 0 00-.66-.735 3.164 3.164 0 00-.996-.456c.56-.196.976-.467 1.248-.813.272-.346.408-.733.408-1.16 0-.48-.13-.887-.39-1.219-.26-.332-.62-.585-1.08-.759-.46-.174-.99-.26-1.59-.26-.548 0-1.049.103-1.503.311a2.62 2.62 0 00-1.089.903c-.272.394-.408.871-.408 1.431h1.104c.012-.4.11-.726.294-.978s.418-.439.702-.56c.284-.123.582-.184.894-.184.396 0 .733.062 1.011.186.278.124.491.29.64.495.147.206.221.43.221.67a1.2 1.2 0 01-.26.746 1.853 1.853 0 01-.712.546c-.3.138-.64.211-1.02.22l-.744.017v.942l.78.018c.408.004.778.07 1.11.195.332.126.594.31.786.55.192.24.288.533.288.881 0 .316-.086.592-.258.828a1.7 1.7 0 01-.732.555 2.827 2.827 0 01-1.11.201c-.536 0-.982-.144-1.338-.432-.356-.288-.576-.702-.66-1.242H22.4c.02.536.16 1 .42 1.39.26.39.617.692 1.071.908.454.216.98.326 1.575.33zm5.898-.132V10.56h-1.32v1.416h1.32zm4.392.132c.952 0 1.706-.375 2.262-1.125s.834-1.859.834-3.327c0-1.476-.279-2.59-.837-3.345-.558-.754-1.307-1.13-2.247-1.13-.628 0-1.174.167-1.638.503-.464.336-.824.838-1.08 1.506-.256.668-.384 1.496-.384 2.484 0 1.464.278 2.57.834 3.315.556.746 1.308 1.12 2.256 1.12zm.012-.96c-.62 0-1.094-.274-1.422-.822-.328-.548-.492-1.436-.492-2.664 0-1.248.165-2.15.495-2.709.33-.558.801-.837 1.413-.837.616 0 1.085.277 1.407.831.322.554.483 1.46.483 2.715 0 1.232-.159 2.121-.477 2.667-.318.546-.787.82-1.407.82zm7.254.96c.952 0 1.706-.375 2.262-1.125s.834-1.859.834-3.327c0-1.476-.279-2.59-.837-3.345-.558-.754-1.307-1.13-2.247-1.13-.628 0-1.174.167-1.638.503-.464.336-.824.838-1.08 1.506-.256.668-.384 1.496-.384 2.484 0 1.464.278 2.57.834 3.315.556.746 1.308 1.12 2.256 1.12zm.012-.96c-.62 0-1.094-.274-1.422-.822-.328-.548-.492-1.436-.492-2.664 0-1.248.165-2.15.495-2.709.33-.558.801-.837 1.413-.837.616 0 1.085.277 1.407.831.322.554.483 1.46.483 2.715 0 1.232-.159 2.121-.477 2.667-.318.546-.787.82-1.407.82z" id="b"/></defs><g fill="none"><g transform="translate(22.8)" fill="#FFF" stroke="#CED7DE" stroke-width=".5"><rect x="155.45" y="16.25" width="55.5" height="119.5" rx="8"/><rect x=".45" y="16.25" width="55.5" height="119.5" rx="8"/><rect x="25.45" y=".25" width="160.5" height="152.5" rx="8"/></g><path fill="#F9FAFB" d="M61.2 108.2h134.962v25.962H61.2z"/><path fill="#E8EFF8" d="M115.904 119.558h25.555v3.245h-25.555z"/><path fill="#F9FAFB" d="M61.2 70.2h134.962v25.962H61.2z"/><path fill="#E8EFF8" d="M115.904 81.558h25.555v3.245h-25.555z"/><path fill="#F9FAFB" d="M61.2 32.2h134.962v25.962H61.2z"/><path fill="#E8EFF8" d="M115.904 43.558h25.555v3.245h-25.555z"/><g transform="translate(0 60.8)"><rect fill="#2E9C8E" width="160.2" height="31.8" rx="8"/><path d="M145.442 10.976l-5.614 5.523-2.746-2.702-2.013 1.98 4.758 4.683 7.628-7.504z" fill="#FFF"/><g transform="translate(14.4 8)"><use fill="#000" xlink:href="#a"/><use fill="#FFF" xlink:href="#a"/></g></g><g transform="translate(96 13.8)"><rect fill="#51AAED" width="159.966" height="32.384" rx="8"/><path d="M143.994 11.594l-5.605 5.588-2.742-2.734-2.01 2.004 4.75 4.738 7.617-7.592z" fill="#FFF"/><g transform="translate(13 8)"><use fill="#000" xlink:href="#b"/><use fill="#FFF" xlink:href="#b"/></g></g></g></svg>