<svg width="326" height="167" xmlns="http://www.w3.org/2000/svg" xmlns:xlink="http://www.w3.org/1999/xlink"><defs><path d="M4.338 11.12c.516 0 .969-.078 1.359-.234.39-.156.719-.368.987-.636s.479-.573.633-.915c.154-.342.253-.697.297-1.065H6.432a2.706 2.706 0 01-.366.936 2.05 2.05 0 01-.708.69c-.292.172-.642.258-1.05.258-.792 0-1.395-.283-1.809-.849-.414-.566-.621-1.453-.621-2.661 0-.8.093-1.456.279-1.968.186-.512.46-.891.822-1.137.362-.246.805-.369 1.329-.369.408 0 .758.082 1.05.246.292.164.528.384.708.66.18.276.302.584.366.924h1.182a2.994 2.994 0 00-.51-1.398 3.166 3.166 0 00-1.14-1.017c-.472-.254-1.014-.381-1.626-.381-.784 0-1.451.173-2.001.519-.55.346-.969.849-1.257 1.509-.288.66-.432 1.46-.432 2.4 0 .944.145 1.75.435 2.418.29.668.71 1.18 1.26 1.536.55.356 1.215.534 1.995.534zm5.946-.12V7.142c0-.26.047-.481.141-.663a1.18 1.18 0 01.387-.441c.164-.112.354-.191.57-.237.216-.046.448-.061.696-.045.064 0 .143.005.237.015.094.01.171.029.231.057V4.754a.563.563 0 00-.204-.06 2.024 2.024 0 00-1.023.126 1.831 1.831 0 00-.645.435 1.982 1.982 0 00-.438.735V4.796H9.18V11h1.104zm6.012.12c.4 0 .784-.073 1.152-.219.368-.146.682-.363.942-.651.26-.288.428-.642.504-1.062h-1.05a1.24 1.24 0 01-.549.798c-.286.184-.627.276-1.023.276-.4 0-.733-.094-.999-.282a1.689 1.689 0 01-.594-.759 2.79 2.79 0 01-.195-1.065h4.446v-.408c0-.628-.105-1.171-.315-1.629a2.4 2.4 0 00-.921-1.065c-.404-.252-.898-.378-1.482-.378-.6 0-1.113.138-1.539.414a2.64 2.64 0 00-.975 1.152c-.224.492-.336 1.064-.336 1.716 0 .66.124 1.226.372 1.698s.592.834 1.032 1.086c.44.252.95.378 1.53.378zm1.566-3.714H14.49a2.157 2.157 0 01.183-.897c.126-.29.316-.528.57-.714.254-.186.575-.279.963-.279.372 0 .681.083.927.249.246.166.429.392.549.678.12.286.18.607.18.963zm4.224 3.714a2.68 2.68 0 001.221-.279c.37-.186.675-.521.915-1.005L24.3 11h.948V6.668c0-.432-.089-.796-.267-1.092a1.66 1.66 0 00-.804-.672c-.358-.152-.807-.228-1.347-.228-.5 0-.933.072-1.299.216a1.884 1.884 0 00-.855.633c-.204.278-.318.619-.342 1.023h.978c.08-.372.255-.64.525-.804.27-.164.583-.248.939-.252.48 0 .834.111 1.062.333.228.222.342.523.342.903v.486l-1.11.03c-1.06.024-1.83.204-2.31.54-.48.336-.72.848-.72 1.536 0 .38.087.704.261.972.174.268.415.473.723.615a2.51 2.51 0 001.062.213zm.336-.798c-.384 0-.697-.098-.939-.294-.242-.196-.363-.468-.363-.816 0-.304.079-.55.237-.738.158-.188.396-.326.714-.414.318-.088.713-.136 1.185-.144l.924-.018V8.96a.972.972 0 01-.159.501 1.66 1.66 0 01-.411.438c-.172.13-.361.233-.567.309a1.783 1.783 0 01-.621.114zm6.696.708c.228 0 .419-.01.573-.03.154-.02.269-.044.345-.072v-.744h-.678a1.92 1.92 0 01-.453-.042.334.334 0 01-.234-.195c-.046-.102-.069-.263-.069-.483V5.606H30V4.79h-1.398v-1.8h-.816l-.27 1.806h-1.038v.81h1.008V9.5c0 .332.047.612.141.84a.98.98 0 00.495.516c.236.116.568.174.996.174zm4.92.09c.4 0 .784-.073 1.152-.219.368-.146.682-.363.942-.651.26-.288.428-.642.504-1.062h-1.05a1.24 1.24 0 01-.549.798c-.286.184-.627.276-1.023.276-.4 0-.733-.094-.999-.282a1.689 1.689 0 01-.594-.759 2.79 2.79 0 01-.195-1.065h4.446v-.408c0-.628-.105-1.171-.315-1.629a2.4 2.4 0 00-.921-1.065c-.404-.252-.898-.378-1.482-.378-.6 0-1.113.138-1.539.414a2.64 2.64 0 00-.975 1.152c-.224.492-.336 1.064-.336 1.716 0 .66.124 1.226.372 1.698s.592.834 1.032 1.086c.44.252.95.378 1.53.378zm1.566-3.714h-3.372a2.157 2.157 0 01.183-.897c.126-.29.316-.528.57-.714.254-.186.575-.279.963-.279.372 0 .681.083.927.249.246.166.429.392.549.678.12.286.18.607.18.963zm6.99 3.714a2.68 2.68 0 001.221-.279c.37-.186.675-.521.915-1.005L44.808 11h.948V6.668c0-.432-.089-.796-.267-1.092a1.66 1.66 0 00-.804-.672c-.358-.152-.807-.228-1.347-.228-.5 0-.933.072-1.299.216a1.884 1.884 0 00-.855.633c-.204.278-.318.619-.342 1.023h.978c.08-.372.255-.64.525-.804.27-.164.583-.248.939-.252.48 0 .834.111 1.062.333.228.222.342.523.342.903v.486l-1.11.03c-1.06.024-1.83.204-2.31.54-.48.336-.72.848-.72 1.536 0 .38.087.704.261.972.174.268.415.473.723.615a2.51 2.51 0 001.062.213zm.336-.798c-.384 0-.697-.098-.939-.294-.242-.196-.363-.468-.363-.816 0-.304.079-.55.237-.738.158-.188.396-.326.714-.414.318-.088.713-.136 1.185-.144l.924-.018V8.96a.972.972 0 01-.159.501 1.66 1.66 0 01-.411.438c-.172.13-.361.233-.567.309a1.783 1.783 0 01-.621.114zm9.486.678V5.606h1.506v-.81h-1.524v-.864c0-.276.046-.482.138-.618.092-.136.264-.204.516-.204h.93l-.006-.786h-1.17c-.5 0-.876.129-1.128.387-.252.258-.378.633-.378 1.125v.96h-1.308v.81H51.3V11h1.116zm3.978 0V7.142c0-.26.047-.481.141-.663a1.18 1.18 0 01.387-.441c.164-.112.354-.191.57-.237.216-.046.448-.061.696-.045.064 0 .143.005.237.015.094.01.171.029.231.057V4.754a.563.563 0 00-.204-.06 2.024 2.024 0 00-1.023.126 1.831 1.831 0 00-.645.435 1.982 1.982 0 00-.438.735V4.796H55.29V11h1.104zm6.012.12c.4 0 .784-.073 1.152-.219.368-.146.682-.363.942-.651.26-.288.428-.642.504-1.062h-1.05a1.24 1.24 0 01-.549.798c-.286.184-.627.276-1.023.276-.4 0-.733-.094-.999-.282a1.689 1.689 0 01-.594-.759 2.79 2.79 0 01-.195-1.065h4.446v-.408c0-.628-.105-1.171-.315-1.629a2.4 2.4 0 00-.921-1.065c-.404-.252-.898-.378-1.482-.378-.6 0-1.113.138-1.539.414a2.64 2.64 0 00-.975 1.152c-.224.492-.336 1.064-.336 1.716 0 .66.124 1.226.372 1.698s.592.834 1.032 1.086c.44.252.95.378 1.53.378zm1.566-3.714H60.6a2.157 2.157 0 01.183-.897c.126-.29.316-.528.57-.714.254-.186.575-.279.963-.279.372 0 .681.083.927.249.246.166.429.392.549.678.12.286.18.607.18.963zm5.19 3.714c.4 0 .784-.073 1.152-.219.368-.146.682-.363.942-.651.26-.288.428-.642.504-1.062h-1.05a1.24 1.24 0 01-.549.798c-.286.184-.627.276-1.023.276-.4 0-.733-.094-.999-.282a1.689 1.689 0 01-.594-.759 2.79 2.79 0 01-.195-1.065h4.446v-.408c0-.628-.105-1.171-.315-1.629a2.4 2.4 0 00-.921-1.065c-.404-.252-.898-.378-1.482-.378-.6 0-1.113.138-1.539.414a2.64 2.64 0 00-.975 1.152c-.224.492-.336 1.064-.336 1.716 0 .66.124 1.226.372 1.698s.592.834 1.032 1.086c.44.252.95.378 1.53.378zm1.566-3.714h-3.372a2.157 2.157 0 01.183-.897c.126-.29.316-.528.57-.714.254-.186.575-.279.963-.279.372 0 .681.083.927.249.246.166.429.392.549.678.12.286.18.607.18.963zm6.99 3.714a2.68 2.68 0 001.221-.279c.37-.186.675-.521.915-1.005L79.932 11h.948V6.668c0-.432-.089-.796-.267-1.092a1.66 1.66 0 00-.804-.672c-.358-.152-.807-.228-1.347-.228-.5 0-.933.072-1.299.216a1.884 1.884 0 00-.855.633c-.204.278-.318.619-.342 1.023h.978c.08-.372.255-.64.525-.804.27-.164.583-.248.939-.252.48 0 .834.111 1.062.333.228.222.342.523.342.903v.486l-1.11.03c-1.06.024-1.83.204-2.31.54-.48.336-.72.848-.72 1.536 0 .38.087.704.261.972.174.268.415.473.723.615a2.51 2.51 0 001.062.213zm.336-.798c-.384 0-.697-.098-.939-.294-.242-.196-.363-.468-.363-.816 0-.304.079-.55.237-.738.158-.188.396-.326.714-.414.318-.088.713-.136 1.185-.144l.924-.018V8.96a.972.972 0 01-.159.501 1.66 1.66 0 01-.411.438c-.172.13-.361.233-.567.309a1.783 1.783 0 01-.621.114zm7.194.798c.44 0 .837-.083 1.191-.249.354-.166.645-.401.873-.705.228-.304.368-.664.42-1.08h-.966a1.432 1.432 0 01-.753 1.023c-.21.11-.457.165-.741.165-.596 0-1.047-.215-1.353-.645-.306-.43-.459-1.003-.459-1.719 0-.792.166-1.38.498-1.764.332-.384.764-.576 1.296-.576.284 0 .532.054.744.162a1.41 1.41 0 01.762 1.026h.984a2.379 2.379 0 00-.423-1.104 2.263 2.263 0 00-.873-.723 2.75 2.75 0 00-1.2-.255c-.608 0-1.125.136-1.551.408a2.59 2.59 0 00-.972 1.137c-.222.486-.333 1.053-.333 1.701 0 .692.122 1.276.366 1.752s.581.836 1.011 1.08c.43.244.923.366 1.479.366zm6.474 0c.44 0 .837-.083 1.191-.249.354-.166.645-.401.873-.705.228-.304.368-.664.42-1.08h-.966a1.432 1.432 0 01-.753 1.023c-.21.11-.457.165-.741.165-.596 0-1.047-.215-1.353-.645-.306-.43-.459-1.003-.459-1.719 0-.792.166-1.38.498-1.764.332-.384.764-.576 1.296-.576.284 0 .532.054.744.162a1.41 1.41 0 01.762 1.026h.984a2.379 2.379 0 00-.423-1.104 2.263 2.263 0 00-.873-.723 2.75 2.75 0 00-1.2-.255c-.608 0-1.125.136-1.551.408a2.59 2.59 0 00-.972 1.137c-.222.486-.333 1.053-.333 1.701 0 .692.122 1.276.366 1.752s.581.836 1.011 1.08c.43.244.923.366 1.479.366zm6.468 0c.616 0 1.133-.135 1.551-.405a2.53 2.53 0 00.948-1.125c.214-.48.321-1.036.321-1.668 0-.696-.116-1.286-.348-1.77a2.49 2.49 0 00-.981-1.101c-.422-.25-.919-.375-1.491-.375-.608 0-1.125.135-1.551.405a2.55 2.55 0 00-.969 1.137c-.22.488-.33 1.056-.33 1.704 0 .688.118 1.27.354 1.746s.568.837.996 1.083c.428.246.928.369 1.5.369zm0-.876c-.412 0-.746-.104-1.002-.312a1.8 1.8 0 01-.564-.846 3.703 3.703 0 01-.18-1.188c0-.492.067-.914.201-1.266s.331-.621.591-.807c.26-.186.578-.279.954-.279.408 0 .739.104.993.312.254.208.439.489.555.843.116.354.174.753.174 1.197 0 .484-.066.902-.198 1.254s-.326.622-.582.81c-.256.188-.57.282-.942.282zm6.456.876c.292.004.565-.039.819-.129s.472-.231.654-.423c.182-.192.311-.444.387-.756L106.62 11h.882V4.796h-1.104v4.038c0 .472-.139.827-.417 1.065-.278.238-.645.357-1.101.357-.504 0-.881-.126-1.131-.378s-.375-.58-.375-.984V4.796h-1.11v4.212c0 .348.063.653.189.915s.299.481.519.657c.22.176.473.309.759.399.286.09.591.137.915.141zm5.772-.12V6.854c0-.276.076-.505.228-.687.152-.182.35-.318.594-.408.244-.09.506-.135.786-.135.404 0 .733.117.987.351.254.234.381.593.381 1.077V11h1.11V6.944c0-.52-.099-.945-.297-1.275a1.817 1.817 0 00-.792-.729 2.502 2.502 0 00-1.083-.234c-.332 0-.625.046-.879.138-.254.092-.47.214-.648.366a1.903 1.903 0 00-.417.486v-.9h-1.074V11h1.104zm7.794.03c.228 0 .419-.01.573-.03.154-.02.269-.044.345-.072v-.744h-.678a1.92 1.92 0 01-.453-.042.334.334 0 01-.234-.195c-.046-.102-.069-.263-.069-.483V5.606h1.398V4.79h-1.398v-1.8h-.816l-.27 1.806h-1.038v.81h1.008V9.5c0 .332.047.612.141.84a.98.98 0 00.495.516c.236.116.568.174.996.174z" id="a"/></defs><g fill="none"><path d="M318 8.25H8c-2.14 0-4.078.867-5.48 2.27A7.726 7.726 0 00.25 16v98.526c0 1.443.585 2.749 1.53 3.694a5.207 5.207 0 003.694 1.53H318c2.14 0 4.078-.867 5.48-2.27a7.726 7.726 0 002.27-5.48V16c0-2.14-.867-4.078-2.27-5.48A7.726 7.726 0 00318 8.25z" stroke="#CED7DE" stroke-width=".5" fill="#FFF" opacity=".5"/><path d="M301 .25H26c-2.14 0-4.078.867-5.48 2.27A7.726 7.726 0 0018.25 8v116.598c0 1.699.689 3.237 1.802 4.35a6.133 6.133 0 004.35 1.802H301c2.14 0 4.078-.867 5.48-2.27a7.726 7.726 0 002.27-5.48V8c0-2.14-.867-4.078-2.27-5.48A7.726 7.726 0 00301 .25z" stroke="#CED7DE" stroke-width=".5" fill="#FFF"/><rect fill="#F9FAFB" x="38" y="49" width="120" height="23" rx="3"/><rect fill="#F9FAFB" x="166" y="49" width="126" height="23" rx="3"/><rect width="90" height="24" rx="4" fill="#2E9C8E" transform="translate(119 89)"/><path stroke="#FFF" stroke-width="4" fill="#FFF" d="M192.842 142.95l6.083 14.679-14.44 6.017-6.541-15.447L167 159.007v-57.905l41.41 41.849z"/><path stroke="#000" fill="#000" d="M186.036 138.47l6.644 15.71-6.368 2.653-6.94-16.408-7.985 7.821v-36.337l26.217 26.56z"/><g transform="translate(40 21)"><use fill="#000" xlink:href="#a"/><use fill="#043751" xlink:href="#a"/></g></g></svg>