<svg width="276" height="174" xmlns="http://www.w3.org/2000/svg" xmlns:xlink="http://www.w3.org/1999/xlink"><defs><path d="M4.51 11.3c.62 0 1.134-.141 1.542-.423.408-.282.704-.705.888-1.269l-.954-.252c-.136.36-.325.613-.567.759-.242.146-.567.219-.975.219H2.356a3.13 3.13 0 00.288-.36c.104-.148.194-.338.27-.57.076-.232.122-.52.138-.864.02-.216.024-.428.012-.636a7.88 7.88 0 00-.084-.738h1.842v-.708H2.884a8.338 8.338 0 01-.201-.888 4.756 4.756 0 01-.075-.78c0-.284.063-.525.189-.723a1.25 1.25 0 01.51-.456c.214-.106.453-.159.717-.159.344 0 .617.068.819.204.202.136.371.342.507.618l.984-.348a2.05 2.05 0 00-.534-.729 2.7 2.7 0 00-.852-.507 2.996 2.996 0 00-1.068-.186c-.38 0-.738.067-1.074.201-.336.134-.624.33-.864.588-.24.258-.409.569-.507.933-.098.364-.101.78-.009 1.248l.18.99H.526v.708h1.212c.052.348.088.639.108.873.02.234.03.453.03.657 0 .572-.105.989-.315 1.251-.21.262-.467.393-.771.393H.34v.954h4.17zm6.336 0c.04-.364.131-.795.273-1.293.142-.498.321-1.03.537-1.596a25.778 25.778 0 011.593-3.396c.302-.534.607-1.011.915-1.431v-.96h-6.09v.96h4.872a19.621 19.621 0 00-1.32 2.178c-.384.74-.712 1.457-.984 2.151a21.142 21.142 0 00-.657 1.917 13.357 13.357 0 00-.345 1.47h1.206zm7.524.132c.668 0 1.25-.103 1.746-.309.496-.206.881-.495 1.155-.867s.411-.808.411-1.308c0-.336-.086-.658-.258-.966a2.692 2.692 0 00-.657-.786 1.889 1.889 0 00-.837-.408c.4-.168.727-.412.981-.732s.381-.716.381-1.188c0-.504-.128-.932-.384-1.284a2.403 2.403 0 00-1.044-.804 3.84 3.84 0 00-1.494-.276c-.552 0-1.049.092-1.491.276a2.4 2.4 0 00-1.047.804c-.256.352-.384.78-.384 1.284 0 .472.129.868.387 1.188.258.32.585.564.981.732a1.909 1.909 0 00-.84.408 2.632 2.632 0 00-.657.786c-.17.308-.255.63-.255.966 0 .5.137.936.411 1.308.274.372.659.661 1.155.867.496.206 1.076.309 1.74.309zm0-5.112c-.524 0-.952-.13-1.284-.39-.332-.26-.498-.622-.498-1.086 0-.464.166-.832.498-1.104.332-.272.76-.408 1.284-.408s.952.135 1.284.405c.332.27.498.639.498 1.107 0 .464-.165.826-.495 1.086-.33.26-.759.39-1.287.39zm0 4.212c-.64 0-1.151-.145-1.533-.435a1.379 1.379 0 01-.573-1.155c0-.316.087-.598.261-.846a1.75 1.75 0 01.732-.585c.314-.142.685-.213 1.113-.213.432 0 .806.071 1.122.213.316.142.561.337.735.585.174.248.261.53.261.846 0 .48-.192.865-.576 1.155-.384.29-.898.435-1.542.435zm7.476.9c.952 0 1.706-.375 2.262-1.125s.834-1.859.834-3.327c0-1.476-.279-2.591-.837-3.345-.558-.754-1.307-1.131-2.247-1.131-.628 0-1.174.168-1.638.504-.464.336-.824.838-1.08 1.506-.256.668-.384 1.496-.384 2.484 0 1.464.278 2.569.834 3.315.556.746 1.308 1.119 2.256 1.119zm.012-.96c-.62 0-1.094-.274-1.422-.822-.328-.548-.492-1.436-.492-2.664 0-1.248.165-2.151.495-2.709.33-.558.801-.837 1.413-.837.616 0 1.085.277 1.407.831.322.554.483 1.459.483 2.715 0 1.232-.159 2.121-.477 2.667-.318.546-.787.819-1.407.819zm5.646.828V9.884h-1.32V11.3h1.32zm4.392.132c.952 0 1.706-.375 2.262-1.125s.834-1.859.834-3.327c0-1.476-.279-2.591-.837-3.345-.558-.754-1.307-1.131-2.247-1.131-.628 0-1.174.168-1.638.504-.464.336-.824.838-1.08 1.506-.256.668-.384 1.496-.384 2.484 0 1.464.278 2.569.834 3.315.556.746 1.308 1.119 2.256 1.119zm.012-.96c-.62 0-1.094-.274-1.422-.822-.328-.548-.492-1.436-.492-2.664 0-1.248.165-2.151.495-2.709.33-.558.801-.837 1.413-.837.616 0 1.085.277 1.407.831.322.554.483 1.459.483 2.715 0 1.232-.159 2.121-.477 2.667-.318.546-.787.819-1.407.819zm7.254.96c.952 0 1.706-.375 2.262-1.125s.834-1.859.834-3.327c0-1.476-.279-2.591-.837-3.345-.558-.754-1.307-1.131-2.247-1.131-.628 0-1.174.168-1.638.504-.464.336-.824.838-1.08 1.506-.256.668-.384 1.496-.384 2.484 0 1.464.278 2.569.834 3.315.556.746 1.308 1.119 2.256 1.119zm.012-.96c-.62 0-1.094-.274-1.422-.822-.328-.548-.492-1.436-.492-2.664 0-1.248.165-2.151.495-2.709.33-.558.801-.837 1.413-.837.616 0 1.085.277 1.407.831.322.554.483 1.459.483 2.715 0 1.232-.159 2.121-.477 2.667-.318.546-.787.819-1.407.819z" id="a"/><path d="M.819 8.342l3.042-.006V7.46l-3.042.012v.87zM8.955 11c.62 0 1.134-.141 1.542-.423.408-.282.704-.705.888-1.269l-.954-.252c-.136.36-.325.613-.567.759-.242.146-.567.219-.975.219H6.801a3.13 3.13 0 00.288-.36c.104-.148.194-.338.27-.57.076-.232.122-.52.138-.864.02-.216.024-.428.012-.636a7.88 7.88 0 00-.084-.738h1.842v-.708H7.329a8.338 8.338 0 01-.201-.888 4.756 4.756 0 01-.075-.78c0-.284.063-.525.189-.723a1.25 1.25 0 01.51-.456c.214-.106.453-.159.717-.159.344 0 .617.068.819.204.202.136.371.342.507.618l.984-.348a2.05 2.05 0 00-.534-.729 2.7 2.7 0 00-.852-.507 2.996 2.996 0 00-1.068-.186c-.38 0-.738.067-1.074.201-.336.134-.624.33-.864.588-.24.258-.409.569-.507.933-.098.364-.101.78-.009 1.248l.18.99h-1.08v.708h1.212c.052.348.088.639.108.873.02.234.03.453.03.657 0 .572-.105.989-.315 1.251-.21.262-.467.393-.771.393h-.45V11h4.17zm9.564 0v-.984h-4.578v-.174c0-.332.082-.618.246-.858.164-.24.38-.453.648-.639s.564-.364.888-.534c.324-.17.646-.347.966-.531.32-.184.615-.393.885-.627.27-.234.487-.511.651-.831.164-.32.246-.704.246-1.152 0-.492-.117-.923-.351-1.293a2.346 2.346 0 00-.993-.864c-.428-.206-.932-.309-1.512-.309-.668 0-1.23.124-1.686.372a2.578 2.578 0 00-1.038.993c-.236.414-.36.871-.372 1.371h1.104c.044-.532.238-.958.582-1.278.344-.32.8-.48 1.368-.48.528 0 .947.138 1.257.414.31.276.465.634.465 1.074 0 .336-.083.627-.249.873a2.604 2.604 0 01-.657.66c-.272.194-.571.38-.897.558-.326.178-.652.363-.978.555a5.806 5.806 0 00-.9.651 2.868 2.868 0 00-.66.849c-.166.324-.249.708-.249 1.152V11h5.814zm7.152 0v-.984h-4.578v-.174c0-.332.082-.618.246-.858.164-.24.38-.453.648-.639s.564-.364.888-.534c.324-.17.646-.347.966-.531.32-.184.615-.393.885-.627.27-.234.487-.511.651-.831.164-.32.246-.704.246-1.152 0-.492-.117-.923-.351-1.293a2.346 2.346 0 00-.993-.864c-.428-.206-.932-.309-1.512-.309-.668 0-1.23.124-1.686.372a2.578 2.578 0 00-1.038.993c-.236.414-.36.871-.372 1.371h1.104c.044-.532.238-.958.582-1.278.344-.32.8-.48 1.368-.48.528 0 .947.138 1.257.414.31.276.465.634.465 1.074 0 .336-.083.627-.249.873a2.604 2.604 0 01-.657.66c-.272.194-.571.38-.897.558-.326.178-.652.363-.978.555a5.806 5.806 0 00-.9.651 2.868 2.868 0 00-.66.849c-.166.324-.249.708-.249 1.152V11h5.814zm4.26.132c.952 0 1.706-.375 2.262-1.125s.834-1.859.834-3.327c0-1.476-.279-2.591-.837-3.345-.558-.754-1.307-1.131-2.247-1.131-.628 0-1.174.168-1.638.504-.464.336-.824.838-1.08 1.506-.256.668-.384 1.496-.384 2.484 0 1.464.278 2.569.834 3.315.556.746 1.308 1.119 2.256 1.119zm.012-.96c-.62 0-1.094-.274-1.422-.822-.328-.548-.492-1.436-.492-2.664 0-1.248.165-2.151.495-2.709.33-.558.801-.837 1.413-.837.616 0 1.085.277 1.407.831.322.554.483 1.459.483 2.715 0 1.232-.159 2.121-.477 2.667-.318.546-.787.819-1.407.819zm5.646.828V9.584h-1.32V11h1.32zm4.392.132c.952 0 1.706-.375 2.262-1.125s.834-1.859.834-3.327c0-1.476-.279-2.591-.837-3.345-.558-.754-1.307-1.131-2.247-1.131-.628 0-1.174.168-1.638.504-.464.336-.824.838-1.08 1.506-.256.668-.384 1.496-.384 2.484 0 1.464.278 2.569.834 3.315.556.746 1.308 1.119 2.256 1.119zm.012-.96c-.62 0-1.094-.274-1.422-.822-.328-.548-.492-1.436-.492-2.664 0-1.248.165-2.151.495-2.709.33-.558.801-.837 1.413-.837.616 0 1.085.277 1.407.831.322.554.483 1.459.483 2.715 0 1.232-.159 2.121-.477 2.667-.318.546-.787.819-1.407.819zm7.254.96c.952 0 1.706-.375 2.262-1.125s.834-1.859.834-3.327c0-1.476-.279-2.591-.837-3.345-.558-.754-1.307-1.131-2.247-1.131-.628 0-1.174.168-1.638.504-.464.336-.824.838-1.08 1.506-.256.668-.384 1.496-.384 2.484 0 1.464.278 2.569.834 3.315.556.746 1.308 1.119 2.256 1.119zm.012-.96c-.62 0-1.094-.274-1.422-.822-.328-.548-.492-1.436-.492-2.664 0-1.248.165-2.151.495-2.709.33-.558.801-.837 1.413-.837.616 0 1.085.277 1.407.831.322.554.483 1.459.483 2.715 0 1.232-.159 2.121-.477 2.667-.318.546-.787.819-1.407.819z" id="b"/><path d="M155.69 147.928l-.003-2.514 2.509-.006v-1.001l-2.51.003-.003-2.523h-1.008l.006 2.524-2.526.003v1.008l2.528-.006.006 2.512h1.001zm8.442 2.072c.723 0 1.323-.165 1.799-.494.476-.328.821-.822 1.036-1.48l-1.113-.294c-.159.42-.38.715-.662.886-.282.17-.661.255-1.137.255h-2.436c.103-.107.215-.247.336-.42.121-.173.226-.394.315-.665.089-.27.142-.607.161-1.008.023-.252.028-.5.014-.742a9.194 9.194 0 00-.098-.861h2.149v-.826h-2.261a9.728 9.728 0 01-.235-1.036 5.549 5.549 0 01-.087-.91c0-.331.073-.613.22-.844.147-.23.346-.408.595-.531.25-.124.529-.186.837-.186.401 0 .72.08.956.238.235.159.432.399.591.721l1.148-.406a2.393 2.393 0 00-.623-.85 3.15 3.15 0 00-.994-.592 3.495 3.495 0 00-1.246-.217c-.443 0-.861.078-1.253.234a2.748 2.748 0 00-1.008.686 2.54 2.54 0 00-.591 1.089c-.115.425-.118.91-.011 1.456l.21 1.155h-1.26v.826h1.414c.06.406.103.745.126 1.018.023.274.035.529.035.767 0 .667-.123 1.154-.368 1.46-.245.305-.544.458-.899.458h-.525V150h4.865zm8.12.154c.742 0 1.388-.143 1.939-.43.55-.287.978-.69 1.281-1.208.303-.518.455-1.127.455-1.827 0-.719-.156-1.322-.469-1.81a3.008 3.008 0 00-1.243-1.105 3.827 3.827 0 00-1.69-.375c-.467 0-.9.066-1.299.2a3.008 3.008 0 00-1.102.668l.259-3.269h4.9l.035-1.12h-6.041l-.455 5.264 1.092.343a.362.362 0 00.07.024c.014.003.035-.003.063-.017.257-.285.502-.497.735-.637a2.28 2.28 0 01.707-.284c.238-.048.495-.073.77-.073.42 0 .804.093 1.152.28.347.187.624.447.829.78.205.334.308.725.308 1.173 0 .719-.218 1.287-.655 1.704-.436.418-1.013.627-1.732.627-.443 0-.84-.084-1.19-.252a2.731 2.731 0 01-.906-.7 4.118 4.118 0 01-.634-1.022l-1.12.469c.177.509.456.959.837 1.351.38.392.836.698 1.368.917a4.51 4.51 0 001.736.329zm8.876 0c.719 0 1.342-.147 1.869-.441a3.076 3.076 0 001.221-1.221c.288-.52.431-1.12.431-1.796 0-.663-.14-1.233-.42-1.712a2.842 2.842 0 00-1.169-1.106c-.5-.258-1.083-.388-1.75-.388a2.91 2.91 0 00-1.12.213 2.75 2.75 0 00-.906.602 2.47 2.47 0 00-.578.9c-.056-.947.007-1.747.189-2.398.182-.65.472-1.145.871-1.483.4-.339.898-.508 1.495-.508.537 0 .982.14 1.337.42.355.28.6.66.735 1.141h1.218c-.075-.555-.268-1.029-.581-1.421a3.08 3.08 0 00-1.18-.903 3.782 3.782 0 00-1.55-.315c-.854 0-1.575.22-2.163.661-.588.441-1.035 1.063-1.34 1.866-.306.803-.459 1.745-.459 2.828 0 1.055.157 1.959.472 2.713.315.753.761 1.333 1.338 1.739.576.406 1.256.609 2.04.609zm-.014-1.071c-.443 0-.833-.113-1.169-.34a2.228 2.228 0 01-.78-.938c-.185-.399-.275-.855-.27-1.368 0-.345.106-.66.319-.945a2.37 2.37 0 01.826-.69 2.279 2.279 0 011.06-.262c.462 0 .854.089 1.176.266.322.177.566.432.731.763.166.331.249.728.249 1.19 0 .457-.092.861-.276 1.211a2.06 2.06 0 01-.76.819c-.322.196-.69.294-1.106.294zm8.393 1.071c1.11 0 1.99-.438 2.639-1.313.649-.875.973-2.168.973-3.881 0-1.722-.326-3.023-.976-3.903-.651-.88-1.525-1.319-2.622-1.319-.733 0-1.37.196-1.911.588-.541.392-.961.978-1.26 1.757-.299.78-.448 1.745-.448 2.898 0 1.708.324 2.997.973 3.868.649.87 1.526 1.305 2.632 1.305zm.014-1.12c-.723 0-1.276-.32-1.659-.959-.383-.64-.574-1.675-.574-3.108 0-1.456.192-2.51.577-3.16.385-.651.935-.977 1.649-.977.719 0 1.266.323 1.641.97.376.646.564 1.702.564 3.167 0 1.437-.185 2.474-.556 3.111-.371.637-.919.956-1.642.956zm6.587.966v-1.652h-1.54V150h1.54zm5.124.154c1.11 0 1.99-.438 2.639-1.313.649-.875.973-2.168.973-3.881 0-1.722-.326-3.023-.976-3.903-.651-.88-1.525-1.319-2.622-1.319-.733 0-1.37.196-1.911.588-.541.392-.961.978-1.26 1.757-.299.78-.448 1.745-.448 2.898 0 1.708.324 2.997.973 3.868.649.87 1.526 1.305 2.632 1.305zm.014-1.12c-.723 0-1.276-.32-1.659-.959-.383-.64-.574-1.675-.574-3.108 0-1.456.192-2.51.577-3.16.386-.651.935-.977 1.649-.977.719 0 1.266.323 1.642.97.375.646.563 1.702.563 3.167 0 1.437-.185 2.474-.556 3.111-.371.637-.919.956-1.642.956zm8.463 1.12c1.11 0 1.99-.438 2.639-1.313.649-.875.973-2.168.973-3.881 0-1.722-.326-3.023-.976-3.903-.651-.88-1.525-1.319-2.622-1.319-.733 0-1.37.196-1.911.588-.541.392-.961.978-1.26 1.757-.299.78-.448 1.745-.448 2.898 0 1.708.324 2.997.973 3.868.649.87 1.526 1.305 2.632 1.305zm.014-1.12c-.723 0-1.276-.32-1.659-.959-.383-.64-.574-1.675-.574-3.108 0-1.456.192-2.51.577-3.16.385-.651.935-.977 1.649-.977.719 0 1.266.323 1.641.97.376.646.564 1.702.564 3.167 0 1.437-.185 2.474-.556 3.111-.371.637-.919.956-1.642.956z" id="c"/></defs><g fill="none"><g transform="translate(29 16)" fill="#FFF" stroke="#CED7DE" stroke-width=".5"><rect opacity=".4" x=".25" y="13.25" width="222.5" height="118.5" rx="8"/><rect x="24.25" y=".25" width="173.5" height="146.5" rx="8"/></g><path fill="#E8EFF8" d="M127 114h25.555v3.245H127z"/><g transform="translate(115 52)"><circle fill="#D8F3F0" cx="25" cy="25" r="25"/><path d="M32.587 18l-9.518 9.317-4.656-4.558L15 26.1l8.067 7.9L36 21.34z" fill="#2E9C8E"/></g><g transform="translate(153)"><rect fill="#2E9C8E" width="123" height="31.8" rx="8"/><g transform="translate(39.4 8)"><use fill="#000" xlink:href="#a"/><use fill="#FFF" xlink:href="#a"/></g></g><g transform="translate(0 142)"><rect fill="#EA4D5C" width="123" height="31.8" rx="8"/><g transform="translate(36 9)"><use fill="#000" xlink:href="#b"/><use fill="#FFF" xlink:href="#b"/></g></g><use fill="#000" xlink:href="#c"/><use fill="#2E9C8E" xlink:href="#c"/></g></svg>